<mxfile host="app.diagrams.net" agent="Mozilla/5.0 (Macintosh; Intel Mac OS X 10_15_7) AppleWebKit/537.36 (KHTML, like Gecko) Chrome/137.0.0.0 Safari/537.36" version="27.1.1">
  <diagram name="第 1 页" id="QgCP3TMtevPnfM7mnc4U">
    <mxGraphModel dx="1198" dy="791" grid="0" gridSize="10" guides="1" tooltips="1" connect="1" arrows="1" fold="1" page="0" pageScale="1" pageWidth="827" pageHeight="1169" math="0" shadow="0">
      <root>
        <mxCell id="0" />
        <mxCell id="1" parent="0" />
        <mxCell id="gyFH5Tu4j7qP2ZTiGYmG-3" value="Reconciliation Job" style="rounded=0;whiteSpace=wrap;html=1;fillColor=#dae8fc;strokeColor=none;fontStyle=1;fontSize=17;textOpacity=30;" parent="1" vertex="1">
          <mxGeometry x="931.4" y="570" width="128.6" height="350" as="geometry" />
        </mxCell>
        <mxCell id="9pg-booq9goJNZEmGVTY-1" value="&lt;b&gt;&lt;font&gt;StarRocks&lt;/font&gt;&lt;/b&gt;" style="rounded=0;whiteSpace=wrap;html=1;dashed=1;verticalAlign=top;fillColor=#B3B3B3;strokeColor=none;fontSize=15;fontColor=#333333;" parent="1" vertex="1">
          <mxGeometry x="1100" y="332.99" width="487" height="557.01" as="geometry" />
        </mxCell>
        <mxCell id="9pg-booq9goJNZEmGVTY-2" style="edgeStyle=orthogonalEdgeStyle;rounded=0;orthogonalLoop=1;jettySize=auto;html=1;entryX=0;entryY=0.5;entryDx=0;entryDy=0;strokeWidth=2;strokeColor=#333333;" parent="1" source="9pg-booq9goJNZEmGVTY-3" target="9pg-booq9goJNZEmGVTY-22" edge="1">
          <mxGeometry relative="1" as="geometry" />
        </mxCell>
        <mxCell id="9pg-booq9goJNZEmGVTY-3" value="&lt;b&gt;&lt;font&gt;CDC1.0(MySQL)&lt;/font&gt;&lt;/b&gt;" style="rounded=0;whiteSpace=wrap;html=1;dashed=1;verticalAlign=top;fillColor=#ffcc99;strokeColor=none;fontSize=15;" parent="1" vertex="1">
          <mxGeometry x="563" y="323.12" width="310" height="306.88" as="geometry" />
        </mxCell>
        <mxCell id="9pg-booq9goJNZEmGVTY-4" value="&lt;b&gt;&lt;font style=&quot;font-size: 14px;&quot;&gt;CRMBO&lt;/font&gt;&lt;/b&gt;" style="rounded=0;whiteSpace=wrap;html=1;dashed=1;verticalAlign=top;fillColor=#d5e8d4;strokeColor=none;" parent="1" vertex="1">
          <mxGeometry x="1720" y="500.05999999999995" width="554" height="400" as="geometry" />
        </mxCell>
        <mxCell id="9pg-booq9goJNZEmGVTY-5" value="CRMBO" style="shape=cylinder3;whiteSpace=wrap;html=1;boundedLbl=1;backgroundOutline=1;size=15;fontSize=15;fontStyle=1" parent="1" vertex="1">
          <mxGeometry x="2003" y="638.9300000000001" width="234.5" height="148.38" as="geometry" />
        </mxCell>
        <mxCell id="9pg-booq9goJNZEmGVTY-6" value="&lt;span style=&quot;color: rgb(23, 43, 77); font-family: -apple-system, &amp;quot;system-ui&amp;quot;, &amp;quot;Segoe UI&amp;quot;, Roboto, Oxygen, Ubuntu, &amp;quot;Fira Sans&amp;quot;, &amp;quot;Droid Sans&amp;quot;, &amp;quot;Helvetica Neue&amp;quot;, sans-serif; font-size: 14px; letter-spacing: -0.07px; white-space-collapse: preserve; background-color: rgb(255, 255, 255);&quot;&gt;CUSTOMER_CAMPAIGN_CONTACT&lt;/span&gt;&lt;div&gt;&lt;span style=&quot;color: rgb(23, 43, 77); font-family: -apple-system, &amp;quot;system-ui&amp;quot;, &amp;quot;Segoe UI&amp;quot;, Roboto, Oxygen, Ubuntu, &amp;quot;Fira Sans&amp;quot;, &amp;quot;Droid Sans&amp;quot;, &amp;quot;Helvetica Neue&amp;quot;, sans-serif; font-size: 14px; letter-spacing: -0.07px; white-space-collapse: preserve; background-color: rgb(255, 255, 255);&quot;&gt;CUSTOMER_CAMPAIGN_TREATMENT&lt;/span&gt;&lt;/div&gt;&lt;div&gt;&lt;span style=&quot;color: rgb(23, 43, 77); font-family: -apple-system, &amp;quot;system-ui&amp;quot;, &amp;quot;Segoe UI&amp;quot;, Roboto, Oxygen, Ubuntu, &amp;quot;Fira Sans&amp;quot;, &amp;quot;Droid Sans&amp;quot;, &amp;quot;Helvetica Neue&amp;quot;, sans-serif; font-size: 14px; letter-spacing: -0.07px; white-space-collapse: preserve; background-color: rgb(255, 255, 255);&quot;&gt;CUSTOMER_CAMPAIGN_OFFER&lt;/span&gt;&lt;/div&gt;&lt;div&gt;&lt;span style=&quot;color: rgb(23, 43, 77); font-family: -apple-system, &amp;quot;system-ui&amp;quot;, &amp;quot;Segoe UI&amp;quot;, Roboto, Oxygen, Ubuntu, &amp;quot;Fira Sans&amp;quot;, &amp;quot;Droid Sans&amp;quot;, &amp;quot;Helvetica Neue&amp;quot;, sans-serif; font-size: 14px; letter-spacing: -0.07px; white-space-collapse: preserve; background-color: rgb(255, 255, 255);&quot;&gt;&lt;span style=&quot;letter-spacing: -0.07px;&quot;&gt;CUSTOMER_MARKETING_OFFER&lt;/span&gt;&lt;/span&gt;&lt;/div&gt;&lt;div&gt;&lt;span style=&quot;color: rgb(23, 43, 77); font-family: -apple-system, &amp;quot;system-ui&amp;quot;, &amp;quot;Segoe UI&amp;quot;, Roboto, Oxygen, Ubuntu, &amp;quot;Fira Sans&amp;quot;, &amp;quot;Droid Sans&amp;quot;, &amp;quot;Helvetica Neue&amp;quot;, sans-serif; font-size: 14px; letter-spacing: -0.07px; white-space-collapse: preserve; background-color: rgb(255, 255, 255);&quot;&gt;&lt;span style=&quot;letter-spacing: -0.07px;&quot;&gt;CUSTOMER_MKOFFR_PROMO&lt;/span&gt;&lt;span style=&quot;letter-spacing: -0.07px;&quot;&gt;&lt;/span&gt;&lt;/span&gt;&lt;/div&gt;&lt;div&gt;&lt;span style=&quot;color: rgb(23, 43, 77); font-family: -apple-system, &amp;quot;system-ui&amp;quot;, &amp;quot;Segoe UI&amp;quot;, Roboto, Oxygen, Ubuntu, &amp;quot;Fira Sans&amp;quot;, &amp;quot;Droid Sans&amp;quot;, &amp;quot;Helvetica Neue&amp;quot;, sans-serif; font-size: 14px; letter-spacing: -0.07px; white-space-collapse: preserve; background-color: rgb(255, 255, 255);&quot;&gt;&lt;span style=&quot;letter-spacing: -0.07px;&quot;&gt;CUSTOMER_CAMPAIGN&lt;/span&gt;&lt;/span&gt;&lt;/div&gt;&lt;div&gt;&lt;div&gt;&lt;span style=&quot;color: rgb(23, 43, 77); font-family: -apple-system, &amp;quot;system-ui&amp;quot;, &amp;quot;Segoe UI&amp;quot;, Roboto, Oxygen, Ubuntu, &amp;quot;Fira Sans&amp;quot;, &amp;quot;Droid Sans&amp;quot;, &amp;quot;Helvetica Neue&amp;quot;, sans-serif; font-size: 14px; letter-spacing: -0.07px; white-space-collapse: preserve; background-color: rgb(255, 255, 255);&quot;&gt;CUSTOMER_BU&lt;/span&gt;&lt;/div&gt;&lt;div&gt;&lt;span style=&quot;color: rgb(23, 43, 77); font-family: -apple-system, &amp;quot;system-ui&amp;quot;, &amp;quot;Segoe UI&amp;quot;, Roboto, Oxygen, Ubuntu, &amp;quot;Fira Sans&amp;quot;, &amp;quot;Droid Sans&amp;quot;, &amp;quot;Helvetica Neue&amp;quot;, sans-serif; font-size: 14px; letter-spacing: -0.07px; white-space-collapse: preserve; background-color: rgb(255, 255, 255);&quot;&gt;&lt;span style=&quot;letter-spacing: -0.07px;&quot;&gt;CUSTOMER_USER&lt;/span&gt;&lt;/span&gt;&lt;/div&gt;&lt;/div&gt;&lt;div&gt;&lt;br&gt;&lt;/div&gt;" style="shape=cylinder3;whiteSpace=wrap;html=1;boundedLbl=1;backgroundOutline=1;size=15;fontSize=10;align=left;fontStyle=1" parent="1" vertex="1">
          <mxGeometry x="593" y="353.1199999999999" width="248" height="252" as="geometry" />
        </mxCell>
        <mxCell id="9pg-booq9goJNZEmGVTY-15" value="&lt;b&gt;&lt;font&gt;Adobe&lt;/font&gt;&lt;/b&gt;" style="rounded=0;whiteSpace=wrap;html=1;dashed=1;verticalAlign=middle;fillColor=#FFE6CC;strokeColor=none;fontSize=15;" parent="1" vertex="1">
          <mxGeometry x="290" y="327.1199999999999" width="168" height="142" as="geometry" />
        </mxCell>
        <mxCell id="3emYtROKRZzzf2U3mYJL-7" style="edgeStyle=orthogonalEdgeStyle;rounded=0;orthogonalLoop=1;jettySize=auto;html=1;entryX=0;entryY=0.5;entryDx=0;entryDy=0;strokeWidth=2;strokeColor=#333333;" parent="1" source="9pg-booq9goJNZEmGVTY-17" target="9pg-booq9goJNZEmGVTY-80" edge="1">
          <mxGeometry relative="1" as="geometry">
            <Array as="points">
              <mxPoint x="460" y="1017" />
              <mxPoint x="460" y="1017" />
            </Array>
          </mxGeometry>
        </mxCell>
        <mxCell id="9pg-booq9goJNZEmGVTY-17" value="&lt;b&gt;&lt;font&gt;AIMAS&lt;/font&gt;&lt;/b&gt;" style="rounded=0;whiteSpace=wrap;html=1;dashed=1;verticalAlign=middle;fillColor=#FFE6CC;strokeColor=none;fontSize=15;" parent="1" vertex="1">
          <mxGeometry x="290" y="521.12" width="168" height="578.88" as="geometry" />
        </mxCell>
        <mxCell id="9pg-booq9goJNZEmGVTY-18" style="edgeStyle=orthogonalEdgeStyle;rounded=0;orthogonalLoop=1;jettySize=auto;html=1;strokeWidth=2;strokeColor=#333333;" parent="1" edge="1">
          <mxGeometry relative="1" as="geometry">
            <mxPoint x="552" y="428.1199999999999" as="targetPoint" />
            <mxPoint x="460" y="428" as="sourcePoint" />
          </mxGeometry>
        </mxCell>
        <mxCell id="9pg-booq9goJNZEmGVTY-19" style="edgeStyle=orthogonalEdgeStyle;rounded=0;orthogonalLoop=1;jettySize=auto;html=1;strokeWidth=2;strokeColor=#333333;" parent="1" edge="1">
          <mxGeometry relative="1" as="geometry">
            <mxPoint x="551" y="575.1199999999999" as="targetPoint" />
            <mxPoint x="470" y="575" as="sourcePoint" />
          </mxGeometry>
        </mxCell>
        <mxCell id="9pg-booq9goJNZEmGVTY-20" value="short-term solution" style="text;html=1;align=center;verticalAlign=middle;whiteSpace=wrap;rounded=0;fontStyle=1;fontSize=15;" parent="1" vertex="1">
          <mxGeometry x="443" y="530.1199999999999" width="145" height="30" as="geometry" />
        </mxCell>
        <mxCell id="9pg-booq9goJNZEmGVTY-21" style="edgeStyle=orthogonalEdgeStyle;rounded=0;orthogonalLoop=1;jettySize=auto;html=1;strokeWidth=2;strokeColor=#333333;" parent="1" source="9pg-booq9goJNZEmGVTY-22" edge="1">
          <mxGeometry relative="1" as="geometry">
            <mxPoint x="1177.666666666667" y="495.2649999999999" as="targetPoint" />
          </mxGeometry>
        </mxCell>
        <mxCell id="9pg-booq9goJNZEmGVTY-22" value="" style="shape=image;verticalLabelPosition=bottom;labelBackgroundColor=default;verticalAlign=top;aspect=fixed;imageAspect=0;image=data:image/png,iVBORw0KGgoAAAANSUhEUgAAAUIAAAFCCAYAAACErdScAAAMTWlDQ1BJQ0MgUHJvZmlsZQAASImVVwdYU8kWnltSIQQIREBK6E0QkRJASggtgPQiiEpIAoQSY0JQsSOLK7h2EcGyoqsgih0QsWFXFsXeFwsqyrq4LnblTQigy77yvfm+ufPff878c865c+/cAYDewZdKc1BNAHIlebKYYH/WhKRkFqkLEAATaAIvYMkXyKWcqKhwAMtg+/fy9gZAlO1VB6XWP/v/a9ESiuQCAJAoiNOEckEuxAcAwJsFUlkeAEQp5M2n50mVeDXEOjLoIMTVSpyhws1KnKbCl/tt4mK4ED8BgKzO58syANDogTwrX5ABdegwWuAkEYolEPtB7JObO1UI8XyIbaANnJOu1GenfaeT8TfNtCFNPj9jCKti6S/kALFcmsOf+X+m43+X3BzF4BzWsKpnykJilDHDvD3JnhqmxOoQv5ekRURCrA0AiouF/fZKzMxUhMSr7FEbgZwLcwafNEDHyXNieQN8jJAfEAaxIcTpkpyI8AGbwnRxkNIG5g8tF+fx4iDWg7haJA+MHbA5LpsaMzjvjXQZlzPAP+fL+n1Q6n9VZMdzVPqYdqaIN6CPORZkxiVCTIU4IF+cEAGxBsQR8uzYsAGblIJMbsSgjUwRo4zFAmKZSBLsr9LHytJlQTED9jty5YOxY8czxbyIAXwlLzMuRJUr7ImA3+8/jAXrEUk48YM6IvmE8MFYhKKAQFXsOFkkiY9V8bieNM8/RjUWt5PmRA3Y4/6inGAlbwZxnDw/dnBsfh5cnCp9vFiaFxWn8hOvyOKHRqn8wfeAcMAFAYAFFLCmgakgC4jbuhu64Z2qJwjwgQxkABFwGGAGRyT290jgNRYUgN8hEgH50Dj//l4RyIf8l2GskhMPcaqrA0gf6FOqZIOnEOeCMJAD7xX9SpIhDxLAE8iI/+ERH1YBjCEHVmX/v+cH2W8MBzLhA4xicEYWfdCSGEgMIIYQg4i2uAHug3vh4fDqB6szzsY9BuP4Zk94SmgnPCJcJ3QQbk8RF8qGeTkedED9oIH8pH2fH9wKarri/rg3VIfKOBM3AA64C5yHg/vCmV0hyx3wW5kV1jDtv0Xw3RMasKM4UVDKCIofxWb4SA07DdchFWWuv8+Pyte0oXxzh3qGz8/9LvtC2IYNt8R+xPZjZ7ET2HmsGWsALOwY1oi1YkeUeGjFPelfcYOzxfT7kw11hq+Zb09WmUm5U61Tl9NnVV+eaEae8mXkTpXOlIkzMvNYHLhjiFg8icBxFMvZydkVAOX+o/q8vYnu31cQZus3buFvAHgf6+vrO/yNCz0GwF53+Ek49I2zYcOtRQ2Ac4cEClm+isOVFwL8ctDh26cPjIE5sIHxOAM3uM/5gUAQCiJBHEgCk6H3mXCdy8B0MBssAMWgFCwHa0AF2AS2gGqwC+wDDaAZnABnwEVwGVwHd+Hq6QQvQQ94Cz4hCEJCaAgD0UdMEEvEHnFG2IgPEoiEIzFIEpKKZCASRIHMRhYipchKpALZjNQge5FDyAnkPNKO3EYeIl3In8hHFEPVUR3UCLVCR6NslIOGoXHoJDQDnYYWoEXoUrQcrUJ3ovXoCfQieh3tQF+ivRjA1DAmZoo5YGyMi0ViyVg6JsPmYiVYGVaF1WFN8DlfxTqwbuwDTsQZOAt3gCs4BI/HBfg0fC6+BK/Aq/F6/BR+FX+I9+BfCTSCIcGe4EngESYQMgjTCcWEMsI2wkHCafgudRLeEolEJtGa6A7fxSRiFnEWcQlxA3E38TixnfiY2EsikfRJ9iRvUiSJT8ojFZPWkXaSjpGukDpJ78lqZBOyMzmInEyWkAvJZeQd5KPkK+Rn5E8UTYolxZMSSRFSZlKWUbZSmiiXKJ2UT1QtqjXVmxpHzaIuoJZT66inqfeob9TU1MzUPNSi1cRq89XK1faonVN7qPZBXVvdTp2rnqKuUF+qvl39uPpt9Tc0Gs2K5kdLpuXRltJqaCdpD2jvNRgajho8DaHGPI1KjXqNKxqv6BS6JZ1Dn0wvoJfR99Mv0bs1KZpWmlxNvuZczUrNQ5o3NXu1GFpjtCK1crWWaO3QOq/1XJukbaUdqC3ULtLeon1S+zEDY5gzuAwBYyFjK+M0o1OHqGOtw9PJ0inV2aXTptOjq63ropugO0O3UveIbgcTY1oxecwc5jLmPuYN5scRRiM4I0QjFo+oG3FlxDu9kXp+eiK9Er3detf1Puqz9AP1s/VX6Dfo3zfADewMog2mG2w0OG3QPVJnpNdIwciSkftG3jFEDe0MYwxnGW4xbDXsNTI2CjaSGq0zOmnUbcw09jPOMl5tfNS4y4Rh4mMiNlltcszkBUuXxWHlsMpZp1g9poamIaYK082mbaafzKzN4s0KzXab3TenmrPN081Xm7eY91iYWIy3mG1Ra3HHkmLJtsy0XGt51vKdlbVVotUiqwar59Z61jzrAuta63s2NBtfm2k2VTbXbIm2bNts2w22l+1QO1e7TLtKu0v2qL2bvdh+g337KMIoj1GSUVWjbjqoO3Ac8h1qHR46Mh3DHQsdGxxfjbYYnTx6xeizo786uTrlOG11ujtGe0zomMIxTWP+dLZzFjhXOl8bSxsbNHbe2Maxr13sXUQuG11uuTJcx7sucm1x/eLm7iZzq3PrcrdwT3Vf736TrcOOYi9hn/MgePh7zPNo9vjg6eaZ57nP8w8vB69srx1ez8dZjxON2zrusbeZN997s3eHD8sn1ednnw5fU1++b5XvIz9zP6HfNr9nHFtOFmcn55W/k7/M/6D/O64ndw73eAAWEBxQEtAWqB0YH1gR+CDILCgjqDaoJ9g1eFbw8RBCSFjIipCbPCOegFfD6wl1D50TeipMPSw2rCLsUbhduCy8aTw6PnT8qvH3IiwjJBENkSCSF7kq8n6UddS0qMPRxOio6MropzFjYmbHnI1lxE6J3RH7Ns4/blnc3XibeEV8SwI9ISWhJuFdYkDiysSOCaMnzJlwMckgSZzUmExKTkjeltw7MXDimomdKa4pxSk3JllPmjHp/GSDyTmTj0yhT+FP2Z9KSE1M3ZH6mR/Jr+L3pvHS1qf1CLiCtYKXQj/hamGXyFu0UvQs3Tt9ZfrzDO+MVRldmb6ZZZndYq64Qvw6KyRrU9a77Mjs7dl9OYk5u3PJuam5hyTakmzJqanGU2dMbZfaS4ulHdM8p62Z1iMLk22TI/JJ8sY8Hfij36qwUfygeJjvk1+Z/356wvT9M7RmSGa0zrSbuXjms4Kggl9m4bMEs1pmm85eMPvhHM6czXORuWlzW+aZzyua1zk/eH71AuqC7AW/FjoVriz8a2HiwqYio6L5RY9/CP6htlijWFZ8c5HXok0/4j+Kf2xbPHbxusVfS4QlF0qdSstKPy8RLLnw05ifyn/qW5q+tG2Z27KNy4nLJctvrPBdUb1Sa2XByserxq+qX81aXbL6rzVT1pwvcynbtJa6VrG2ozy8vHGdxbrl6z5XZFZcr/Sv3L3ecP3i9e82CDdc2ei3sW6T0abSTR9/Fv98a3Pw5voqq6qyLcQt+Vuebk3YevYX9i812wy2lW77sl2yvaM6pvpUjXtNzQ7DHctq0VpFbdfOlJ2XdwXsaqxzqNu8m7m7dA/Yo9jzYm/q3hv7wva17GfvrztgeWD9QcbBknqkfmZ9T0NmQ0djUmP7odBDLU1eTQcPOx7e3mzaXHlE98iyo9SjRUf7jhUc6z0uPd59IuPE45YpLXdPTjh57VT0qbbTYafPnQk6c/Is5+yxc97nms97nj90gX2h4aLbxfpW19aDv7r+erDNra3+kvulxssel5vax7UfveJ75cTVgKtnrvGuXbwecb39RvyNWzdTbnbcEt56fjvn9us7+Xc+3Z1/j3Cv5L7m/bIHhg+qfrP9bXeHW8eRhwEPWx/FPrr7WPD45RP5k8+dRU9pT8uemTyree78vLkrqOvyi4kvOl9KX37qLv5d6/f1r2xeHfjD74/Wngk9na9lr/v+XPJG/832v1z+aumN6n3wNvftp3cl7/XfV39gfzj7MfHjs0/TP5M+l3+x/dL0Nezrvb7cvj4pX8bv/xXAgPJokw7An9sBoCUBwIDnRupE1fmwvyCqM20/Av8Jq86Q/cUNgDr4Tx/dDf9ubgKwZysAVlCfngJAFA2AOA+Ajh07VAfPcv3nTmUhwrPBzxFf0nLTwL8pqjPpd34Pb4FS1QUMb/8FN9+DPffEGigAAABsZVhJZk1NACoAAAAIAAQBGgAFAAAAAQAAAD4BGwAFAAAAAQAAAEYBKAADAAAAAQACAACHaQAEAAAAAQAAAE4AAAAAAAAAkAAAAAEAAACQAAAAAQACoAIABAAAAAEAAAFCoAMABAAAAAEAAAFCAAAAAKaJDVUAAAAJcEhZcwAAFiUAABYlAUlSJPAAAEAASURBVHgB7L33khxntu23y3vX1d7Cg+CQw3HH6OjcUFxJIb2CHk/voD8UitBV6GjuMXM4hp7wQHtf3eV9lX5rZzcInjGXQwJkg8gEsstnfvll5aq13dqRer0+tXAJZyCcgXAG3uIZiL/WY5+GGPta5zfceDgD4Qz8dTMQifzJ9796IHwJ/L4Ggy89/ydHEj4ZzkA4A+EMvMoZ+BOgF7nEof/w2qsBwsuNcxAOfi89vjyuP/f85evhbTgD4QyEM/DKZgCgewF6L230ZXL2Mjf8VkA4HZtNxlMbD4yV2yGPR1PT846BAeq9tPuL57/2TPggnIFwBsIZ+BYzAIKJ0EWiZlEQLJIwiyWDNcpzel5ANL1gfS8Dnu/tAiQdpnSfJ78VEAr0Rv2pdWtT6xFrGTSnNuwKGCM2HTGGycu4+9WB/ulnv3o9vBfOQDgD4Qz8+RkIECQCeEUBv2hiaomsWSJnli5HLFW+AERe8+UC5ASIfwSGegPPB8ztGwLhFOAbA3CD1tT6jeBW4DdoB+uoGzDDiUDQWSEDDlEvOBnh33AGwhl4dTMgRItMLRoL2KAzwbTAcGpJADGRt+C2wP3sBLAENMUQL8FQtxdsUbcCVQHlN2KEDoKAXmN3YvXNqXVOYIJnUE+BnTDv4jZEv1d3vsMthTMQzsA3mAGAERzjT3CbnplapmpWWJ9adiFgjLFkwAgFepfA5/5D/2Cwj78IhOMeDLBpAN/EWgcT69TMepjDYoLyD4ZLOAPhDIQz8EPPwMvGZ78R8XiF3HTdU7PM3ASTeWJJGKIAMSrwuwBEN7EvHv95IGTrQ0xeAeDZM9bHE/yCP/Qhh/sPZyCcgXAG/vwMjDpmo07EeicAH/5DMcPc2sTyMUxnTOQJdrLA0NmhR1aC+38SCEcEPjqnU2vtYw7vwASPp6Dsn995+Eo4A+EMhDNwlWZALHFCNkv3KEaGS8TGvXHADiujF8wwChBOWSOsXwdCPj2dEAwBVS/9gU38gqPeVTrEcCzhDIQzEM7Af3sGJkOYYS3ilu1oOLExgVxLjD2gEovBDGGJUQIcWr8GhEqL6dXNmvsTmGAQFBGqhks4A+EMhDPwps6AAHFwGvf8wkhiZKkqPsPi2OJxgWHMYl9jhLBBBUA6xxNr7k6tfUigJNRjeFPPfTjucAbCGbiYgekIVthUmgxOwkTUJhGoIYA4TUcsNpnYBDAMGKFAEDaoaHADEGxsYw7jJwyXcAbCGQhn4McyA5Ne1HqHSYvEyC/M9z3VOZ6cOBg6EMovOAQEVSmiwEhXOYI8Fy7hDIQzEM7Aj2UGZCJPGjHrZ6MWO1fWM2zQxhaLTwJGqJI45dw09wJW6CAYEsIfy/kPjyOcgXAGNANTcghl/XZi1jtKAIKwwsTA4hOZxrwwwWRWpUj7iBpicgedM4ZTF85AOAPhDPzoZgBW2I/Z8CxhkXTfIqUhlXEwwimhY+UI9urkC1JBEiZN/+jOfHhA4QyEM/DSDEwHURs3UzYqdSzSvwBCSWgNO5jEysgmX1CiCeESzkA4A+EM/GhnYEL0WBKCBE+mYN8U0IuPvJ4YkxgQ9OqR0Df4oz3/4YGFMxDOADPgvsKYjftRG7VIq8FbGB1TP6y0mckQBAxBMPyehDMQzsBbMgPKL5x0MZP7+AglsKrUmbCC5C05++FhhjMQzoDPgIBw3EPYED3DqHyCAsEwbzD8doQzEM7A2zQDwjwp6o9HihoDhAqYhED4Nn0FwmMNZyCcAfkKJ7DCiANhOB/hDIQzEM7AWzgDSh309EHqjaXmHy7hDIQzEM7A2zcDig9rFRBeoiLY+PZNRHjE4QyEM/DWzoAQL2CEaBK+tbMQHng4A+EMvOUzEFBCldiFQPiWfxXCww9n4G2dAZnFE5UYIzrzNYXqt3VCwuP+PmZAjmnt59IJo19jyjtRA+4MmtYbtlk7loynLUvLsRS3CVZiet5o5+sjvOhG9idf+/o7w0fhDPzFGeBLqX8Aob6gwZfyL34gfDGcgW89A8F3TCaIfoGFiPo34XGjW7Pds8d2cP7cDhtbVskt2Hr1rs3kFq2cm6PjWIwG3SS9Xizewhal4Xg04a+pG6M3tb18Q3gbzsBfOwN8JUNG+NdOWvj+PzsDE5JSx+ORDScDG5GcOoLtjcjWv7w/vHhuTFH7mExWvVbvHNtO7bEdNbat1t63Qrpip809B8FSZhZWmLJ4DFVh/mlRG8ZELGX5VMnSiZwlEzBHXhcw6nndj0bj9KH4Cjz/7IDDF97yGQABWfSjHALhW/5VeFWHL6tiBAjKxO30G9bq17ltWhuztztoXayYv4O2DcY9X/uYws1ezU4Avu6wCTj2bZ/mYQ8PPsI0zgB0WctgJqeTWQfCCExQPWllOs8V12CP8wDnjOUAxVyqADhWLJ8uWyqRCYHwVZ3YH/l2ZKCAgyEQ/sjP82s5PP2CivkNUOxoA3htWh+2L8BP93ujpvVHLZrkoAAc6bGi+Ybu0Sg+oME2z8EUJ8M+zLFr/anef8Z7h5bNJaxSztlstWCt1sAajZ4NhwPr9WuIB2ufE/czxqMpq7UOLQfoZVN5B0YBZi5ZdKYoMNRayACMqTJgmnffozf1vmCWr2Viwo2+WTPghDBAwpARvlmn7mqMlp9RBTlagN7e+VPbP39mB/XnmLT77vMbTRG8jA4tl4tYIR+zbJY1E8fMjVgqFrERJU2JAeDY6ltn3LVoa8hrMZupFOwn91btFz+7bptbx/blw107PW1a7QxgHQC8fGYwlPk9scPzbWd98XgC9pgC6AIGmcJcnsHPWM0v2Rq+xpXKLZvNL7vp7OZy4FS8GvMYjuJKzICgMATCK3EqrvYgPLBBP4cx63FzG3/ejh3Wt7i/i4/vxDrDc5hexwrliN24m7e56qxVZ9KWA/yy6aglaKGoNRpVtJeUBdIVRmTzC9QazZ4dnTRt97BuW/vnVsynbHVpxlZYfw4gdjp963YGDoL9bt96zba1Gi07O2vb3lHDnu3BRrswyx6gigkuX2Grd+7m9kF90x5lPwIUF22+uGrLlZsehJF/0f2OIShe7S/e9zi6EAi/x8l+s3YF/PFTGUR6xzDAvvWHPds8uW9f7v27PcKPt0e0d0TgI52O2fxs0Vary/bLX67ae3cW7dbGLH47Ahggn5ukQawjmILL+7zW6w2tVmvbv/3hmf0f/+VTKwOEi3MlW1+fs8XFsqIj/pmR2GCnSzsJfIr7J/b8+aH99rNt6/YHtn3YsCam9oCWtLJ8G92TIDrNJ+MxzG18iWKGH6z/D3Zz/qcebZZJHYvQ9JvtaxUr8D98/jIw4zsO/7wVMxAC4Vtxmv/6gxzQvKZLYOOcqK6iuWKAB84Cd2Bbu3bWOgI3JpYHuGarebu+MW9zCxWCJGN7slu38zY+v3QS/1zcysW0lXhfJp0gAEI0F0boKMutYC6XS9pP7ixhPietVM7bfCFudJSwIUyPXouIxdGUG8mkCGZwslS0GYArznaz2ZStzBXsweaJ3X9+ChCOHct2YYp7xy1noDFKBjqDBik6T3i9b1snX9pCacMWCLYo4FLOzuFLnMHcBmgJ4ihAk4yRv0hgRgAZLm/BDPB1DIHwLTjPf80hTjB/5f9rYl6etQ89x2/79IE9Pf7Mnh1//iIlRiCRhvFVylk3Y29cwy9HkGMCgJw2+1bvjghkJBzclhzE4hZNwBCTIJM030Q3BYRsR4B5c2MOFjnnGDnCByihzFGX/hF8xgBA52mxmCVzpMyw3VIuZUszOXt3vWI3Hx9YpZCGHSIuB3Z9xD46MEVndkgt9WGLjd4BAZZdGO0XAOCqrc3ctRtz77m5vOjH3POIdzFT9RQepeKITYbL2zEDIRC+Hef5Gx2lfIGq8pBvTbl9WwDgEUnOYoB1Gl8LIJUrqBSWQj5t1UrOmaDY4NpKxWZnipaBpaUBtmQyYTHoWIzgSCFHrh/PRzMpWigCLtC7KeADDfPV7wOMMk+Fj/IjqoHOdCCwBDR5XySetCns0FmaWGI6S5+JiaWHQ1ueL9kv7gZBlCj7K5ditrAQt3aLft005+kPxlYnMCMTutPreVBnCDsU0O/UHtli+ZrveMyxzRVWHSjlU1QeY8gKv9FX541/UwiEb/wp/O4HIAhS0rPy/1Td8fjwY9jfF7CnLzGNjzw6TPIKoGAEMzBzCxlbmi/aCj68G4Dg6sqMzeIjLJdylgf00gCeWNuUDwjY4kSEEzC7eCppZEA7uEUcCAG7ESwOccypQFHPsWg/DoD6sFYBp/gdz09JlI6wTpM8nmQsQXpNtToKfJG8S+CbK01tfjlm57WJNWlTOwBQT8977DrmYHjeAhDrTTttHTgoKvijiLJArwHgd4ctN5GV3A2U+/M+sPDPj3YGQiD80Z7ab35gSoZu9s7s/t6HgOBH9vToM0Bin2TohgdIlCgdh2klAbSf3VuxX76/ZrfWZ4nukquXz1gG314Kn10CoBHoiQVGYwAY1G6Kfy/Kc1FeE0g5mjmY0UqRCpBIDPCLA4iYr0YTHQe+y6ELBAWQF4AosIykUjbFVJYPD0ehTXMFS8IMyyNk1gFMgdnNtbItrSWs15lYHzdjZJi08/OR3Vqbsd/d37d//mTbTs67HgA6A+jFgi99goo894ZdT7+ZK6x4/qGCKuHy456B8Az/uM/vXzw6pcMoGtz0et8n9mD/t0SD/0B1x3MCC+2AXZHknE0XbRYzeA6f3D/88ob9zU/XbWO5wuO8A48IHJD1FYiJukV4Rms0WGmTA1DxvLol+usKRvAZ/H5ijhHAbgqgOSuUOSzw0/IfwRAwFWgJYPVZ7HCLwQrj3fYL0EzDSqsZupOxPUmxRwcZ6zQNE12AHSMBfGiPt2t2Wu96md/QKAMcTshvZIwaE8v8yaplyEmsFpa8eiVJrqLvl/GodNCDSTBHVc2ITSptR0ncSt52UL3cULC58O8Vn4EQCK/4CXpdw5M5LBCUKfhw/3eUtf3B2eAhNb9DmlwrwVnR3PXlGQ9ifPDOsn0AG6xS+VEpkbyM6XvpP7uArADgLgfsQCb/3gW4icEJ+QRgMm0FYlq5705BTOcIIDcd0Hl7ADt8GQy1TT0WmOITdDM5gZl9AYbyHSqgIjANgJT9YHHHYKWxpAB2zHjjdm2p6OZxkUCLmOG/fbbLj8CQIcSs3uzaeYN8REoE5RP9ZOvXBFcO7N3Vv7drs/eskp1nTtIczsjzFPXaDulDW7WHAGYWEKzY7YWfuWCEQFHme7i8OTMQAuGbc65e6UgVHT5t7dn26SN7cPB7e3L0iSdIj6kKKRdT5AXm3fS9fW3e3rmxYO/cXLC71+c9JUWJ0a5YpBE5rdNN4A8cExFW5chgiKgCt2JZUpxRoNiBk/e5qRyPg12II+AzTCiwAvDKrI4AShFA0X2HAJiDrIMq+9JGZAJrEQgq6YHbyCUgjrkvP6NjJiwzDmTGYIUxTHtM8zwAtTKLKR0nwZtVnzsliNKjfO+ICpZDErvjEanaRCgZ3LPnp/pBAHAZRXw+6X7DOuz5kEqandoDgPCJr6piWSxds95M2+dFPzLh8mbNQAiEb9b5ekWjJfQBs1HE9NOd/2pPDj/1ErkBTLBYEAus2Ht3l+yX763ZDXyBa0sVy2Wl6nIRsLgEJo0G0BCgaFXFyBDTt00aSwOG1aIqpE1VSACIgf9O2xDgKXChvMIsgZUcAZhsFhMXphYDCKPJJFb0BdgKRC/3p1v5DGV2RmGOuge4OSh6vuEFSJIy42a4EDE6AgzjmNICyCgCDjFbxMQX8M5g7h/Ue3ZAuo8qW3YP6qjXxJ18PtvCdD7dt4eHH8Kch1bNLfPZnG0ef8mPxh+Ysw8JJNXwrSqwkmMaAPCLwAoz4mML/7w5MxAC4Ztzrl7ZSCVYoLSYx4ef2HOiw/XuIa62qd1cnLPrq1Vnf7evkdfHKr9gmSixzMcIIOagI/DD1BXx6gF6HZKnm6w9orMDfHJYr9ymSFshhw8rd9DvcYvIAixRTHFIlchQyc+YzWyKIAvJ0ReAqFSbvCLTmYQVs/jdAOAc98XSnHVqFmB9YowCXw+cODBemN56XYQsoJIgJQAICHpQZkwuI8eQYn/VYibIR5wZWbVDCs5c0W6vVxlLEh8gSd7pLWqdj6x2furVNNX8bxB3yDBvTwHybfvZzRHJ2WYPdiNWzBS9jC+LAs5ltYqGES5vzgyEQPjmnKtXNlIJJHy2+y/4BX/vrDCG+bi8ULB/+MV1AiEbdu/WAsGRPIxNun5BjbD78QBDVXpEMGvFssQAm+2WHdR69ny7Sa7eBCktcgbxmaUzBUAHsKJGpIeJ3O21UZPpWr3esuMaqSunDcQUWtZqozBDnp8YYg4QXASQlhdKXqKnMj0FZdLUBkfxHwoM3cwWM8REVsAkkoAxAqYO0kLVCxCcEpiBU/ICcI1p7BUqBG/0Fi0ZfIZpot35UsSqvFeblI8xmc6gnAM4Y3YPuhM7b256UrnM3RxMdTo5s1/citn/+qtZ+/ARKjjNKHXMi7ZUvk5QpQyjDS+pYIbfrL/hWXuzztd3Gq1rBRLl3Dp9SIDk91RbHMK+YnabqpD3KHH72w+u2V18gXNUiKh8TeZjENAITN8gsKEob8z6Y9Yh9xMlK1SjdovtjHhuCoREoxOiqALBDuytg2lcZR3CCsfUFhNs6PSQ2UKLsNkEHBvWqNet2UJMoUUUF8a4dwyoIsbw8OmRzZQzNlPK2vwMGoSU8s0SqRZD9ZQdEDAW63sFSheQTY4GlgGcPVDtM3UBhAJDMUNHyWAKBZNRWG0aUI+yCgmjfDYOMx1OY3ZtuWr7a3W7/2zfdo9OyTfcsUQpbRvViC1VCI6kJBDLjwHAn01WMJ0X3UT+Tico/PAPNgMhEP5gU//971ipHoqIbp3ed9GEdDpCUCTn6TD//a9uukksLcDABMYUVmmbVpW5uWkq8xOwm8QANGBuQEpJcg6wmiOheh7zOuMHNRmhRjM4JHWlztoAPzN8DPM6itK0Iqqwsgl+tz75ew1Mz8PDPXv2fNcePd6xR0/27fHTA3v8/MTOzlvO6sQW37k5b/duLtr7RK9vrM16Ok9BQEZ0ttPuOLvMA8AJEq3jRIsVSgmA7wIEHQwBRlE/p5DBy57sTSXMFNaKve7MU6xujbrp49V5ywsY8Z02OocERKipnq9SlkeaNdsbE5wZjUkgT5Rd+ktq2uHyZs5ACIRv5nn7q0YdKMhMXMz0CX7BE3QDuYxtnQv9p+8u20/f27AbN5YsjzkcIS8PxHL/mxig/HCOXIihRgCyaBw/WDRvxSRMaArARbMwxyx+M8DyYonw3mh8BvDLE/hY4OOY0kqeBkTZGECkoEbfI7m5QsIW2V4GRrW8ctvee+/MTk6JzB6e2OHRsZ2eUPN8LkAd20PEFXaP6jZTzLr5vEhp3Txrs9GxnZ1jm8snbWMuT9VLkufjlsSX6KO6yGl0DBQIskYInLhpDf5NpVoDEPotj2WGF7NUz1RLdmNpzo5PEI8d9PADxm15Roo6U4ImCFK0CfgQKJGatqLLL/dWuZyL8PbNmIEQCN+M8/SdRqkmSSqhO28fedmcgiVT6mpX8b/9/P0Ne+fuqq2uzwdmsPyAyoETAxRoaYV5RVBkiQrYElXWGRRauB8NGCAw4suUPiTACqver0hq0UEweFXb0ct421CmhrcBoAkAMIcyddVm5wlokPw3gn0NBh07PDiwvf19e/Z0x54+37EnsMTN7SN7CFNUsGRRsl9UtmxQ3tcACJ9tHdkqKT91/IqjCKZ9kXK/zMhiyj/E5PXIs4YmILwEwSlgKF8iQZsADHkfFnQkESFYQgpRuWAbMMCDeSLI5zWrAISLZdJpANZnxx07b+UBQdRqyC+UvqH8iC8i3H64OuBweRNmIATCN+EsfccxqoKkT9mYSuYknqC2mVqK1AbPzs9YpgBoEQgQ4AkAfXXU4q5MWoFevIypXOIlTFs+Ox23MQ2VNydKxeoxZG31ctF2YJQqTxOQig3qMSkmWsQaQRyYWQ9ca7IJlGaUBQ2IJvA7VudI2iZlpTp73W7cOrX3Dw4BxkOUq/dgfwe2f3Bsj2GIO4i5joggS8B1QJSjiw+SMhNLKJIL0ysPKQ0EuBJTwh+8FFV1ywUr1L5sfJGmQy6hQNAPg8PRj4DM5koe/2Qxj6nftBIis8UMNcwo6xyco7DTkVwX79ScAYJqX6C0pOA5Sgr5QZEfMlyu/gyEQHj1z9F3HqHASl3jxFiimLoqA5tGZmEzJQAoQ2QUE5LIb4pIapI8u6QSnTEPAyDjYo/hN4ThiQFOMWsnYwVBBn7fWaAjCHRLtqdg0oFBIKhtCAhlYss01ip/48VzvDfYXpdxsLJtN6ujsLk8QRjM5rlZGJ6aPDVgZSeH+BJJa3nw1H77e1jZ833bBAiVjiO46VAlUiMvMJUdsPZtlRrj3hA1HHyGWSS1ivj10gIuAaHGCCN04BMIwhp1PzgUARswyXsSzEOa+SggPlvMRKggiViNGubjhkoTiVxzzMq/VNsC1Wt3YbNB06mcN5VSaV64XP0ZCIHw6p+j7zzCGCCki3OhuG73lv7WVivnrrAyOInbb/6paZ+WazYzT6T0WtnW1iq2tEgCdV6+wCxoQJUHADUeHAGme9wXbWJ9mQU6AAoELxcByQXY+FMAngBIcCUA4jbwFwq+BEL4DAXUAkJeJ+YMIAowxVIFnoA3rsu5WbrapRdsER/g3Vtz9unnm/bPv7lvm5tH+BUbrkcoua3UY/IVFeDoFpDdogMebLOYnNhNfH7xLGV37Fb5hIGZrEO5AEEAcsrqLkVGq6qYvdO67Z+eWY4qlSLpRPxOkDY08aTxDuWA/VHXFXvuU6ct1Z4TosurM7cptXvHrqN3mIzjcgiXKz8DIRBe+VP03QfoTYvI56vSxEisUFp86kCn3h6dw3Nr1WAzp30bUwXSa9GCszmxmdmxFelBQswApoj/birWJlP4wn4E/AQYf7wI6C6Wi7uqDdZ/X/xWACiTUmYyoMiqcTkYOkXTy4FZHZEfkiBNArs2kYuSYE1PlBmqX1YryH5lAKURvsC4PXo4hQ12rEH3u90jNAjJ6qa4jsoWTFWY31x+apXYwAoAWorIclSs0PMH2S8mtI9RxyPT2c1nJYWPKadrwv6aVplHVxFWKBAdA4R9RBq6BFC6SJftUWon18PTo0+9T7PEF1bojyIF73B5M2YgBMI34zx9p1GKZQkMS9kqZnGO2AEQAaB543U1YKe+uDc+t/Otbfto59A+yT21pfW03bm36AGVxYUiwQDwSCAm9ofP0fCHTRWIEDN0Rng5RN4k1udmMbf6kN93GsabuOV1/Qs+J61BAYZQSCvPa2GbMrun0zaMDi0tPeaf+KKOJ4Xow00qX8r5n9mdtZL9YS5pnz48tM8fn7gQ684h+YWYvPtHPW8idW0hatdn+rQBIMWGY5kiFaYginatgInvV+MWK+Q5tQ8dkOh9Rm5jg14paYIiOXIHo5jXHoXnszKDz9r8eACCamOg56uFZbs1/4HdXvy5m8Z+LOGfKz8DIRBe+VP0KgYo9iU9wbSvL29RPq4RYNjuNWzYS1q/kyDRGcc/F/lwsG9dEp9t2kMKP4mPDHMVNjklcVlA6HW/YogOWgIxFoGJYE7gp9QbRaBf3F7ch+1NeT3wIfJ+f+/FrYDQt3EBjIALm3+x+F2ei4FgJQIXpQWk+3tUn/QWjYo8QC5iT3boiHeA0vYJfrw2LQN4X3Scsdq1gXWJTisZ2lkfh+DbFg4LsDXWCyAcwRKlbN2mO94AEzhNikxGYrDQYI8Mc6t5EysUELbwD6oFgAQYBIZl1GrC5c2ZgRAI35xz9VpGKoB0Lb1Mya4l7trcYMHOuqt23Hpon/72Ey+JAxLs1koO0MnatA8wcvFfAqGbyg5Wl2gVgK6bmg6CCpQIAF8GREQQPE2Hrx8pNBH1BlF1h24vQdKZIeD0HxaxQqdsGgOCB9ZpWDUxtA9uVADGCDXDGfu//nXT9lGSGWK+nrPWmyPLxLp21gAIe0j659ioR4vZvpBQQMg8eM4k++Vw8A9K2Vq9lEeY38h4MbQMaTXBiAg6+R3SkjDN2RgrARkazM8AhCn8seHyZs1ACIRv1vl6LaN1MCSaG/c+I0hiEaSQ2VxH0v5099D+bfDcYu8XbQ3fl/URQIUtOhsEINw8dvtSUBAsDhdidRes8OvsEEAU4Dn46ZaAiKSueCwJLpXvCTQDxggoCXq0Ld+4QBB/pcAHMVYoLIhFlDZOrXKRbRiR2gy+u1bZUuOWfbHdtWeHPY5lgu9waHuA42GtRV8S8gzVRMrxK9i2/JWqn/YxCwgB0Mtm8l6DDNOkNbMHSrQ9rQqcVPMIwDqQGs2qiFADgqGi9Wv5mr7WjYZA+Fqn983beAJgki9RkRAy+uz+wT/bh5/91qpWtr9bW7IYZXpR2nzKTxg0XQKbXrZdXzpkAaybxXpO9wEasUNngA6ApJYovUT3xRgFnKzas4PixXNT0S8BIVTNQVC5erqvaI1eU0kdtzOlOKwwZeVo2d6bH9r//n+TQH6E/A0f7vSHtkVgaHuhbreWMFtlAmvc2q7250AIMMvoBiDHMEKxQrFDdysAhEgYUuEycabZR2knAzLKPO/rOeqssyBjkDvImMLljZqBEAjfqNP1+gcrNidQyCYKNptftUpmzbKRJdvc6dj/+c/b9u5i1G7MgghCCK0eMHE0+aPB6dmIByJ0hxWWqbI2sT5vwERaD5na3Netngtem5AyMwaQqAvB9ETWC9CSz04MrU+bzj5S+12ATe07Ozyn6K5AayJFGsnod9pEvtsow5BPiDk7YRt6/8PdE0+Qvr4wC5sjrxDQPG12bPv4zOaX0F2kusYTrhmqgiUCQx2DXJwKFilaXEeySz2b25jYVfovv7Octs3TASo+MpODXtCBucwHw+WNmYEQCN+YU/X9DjSZQPWF4Mp8YQOxgTu2vf85ZuYz+9/+cRbp+gpgGWBb4DQTKAoy/hgQX7BFf4n3yRx9+Z3aEIsrU8MYx+QPYugSxUbYgZWcZQISYnQTa1HRcYaIao1k5hO60h2fdez4nGRr0n66vUAAVv48MTcRxXZv4gGOIRqJAsIH1COn8EX+ZH3ZKpT25aiXlrn8/3323H4GK1xYmacKhbGILSqQAhhqUYtQT5tBFPa8pUjyiOTpid1Zjtvf38qRXzkFCNFcJPG73a9jNgeisf7h8M8bMQMhEL4Rp+n7H+Sln6+UnaUR+k/sc9X97rdgT1k7qmcRJUjS1IksZ9gbKcoXGChAlPwWaCe2GOSmXAweUHFcCcDl8ohePAIQZRIHQWgCGgpUYNV2umMqOMaA4NDXDmxwypqLkFdYGNksAZLJBP/iVF9lPIraDcA0gr0dnOMXrGESnyAGC4hJy1AM8LePtt3cnRIwOaoj/wWIys8nUVYwlDGIXRKWYRVMe9CbF7qDCY2tUM2BgV6bRfa/EmceqMSJMwYGrsqSePTASxg1BncNXB5oeHulZyAEwit9en74wRUzM3Zt7l4g4nrctV36eBycSTkmhVhCmugvIdiIysgEGQJCld7JhycwlJCCnhMoKu1Ex/MC+niszwi5vnrWGSQ5elMkscboFw4wRbvk6nVYu10Ai7riBNvNphBRzdPEjgBPhsCHIrpqORqHCg4waTuA1uODrjPCdg8BWURW+7QROG937Q8IOQjo8yhOn3d7mNeIPSinUEDMrYMg75U/0MM1YomsHdJpdmoobfP89XmAECWaPPXHdDLlENhn/5zPHwCYLcAZSS+Z+/J7hsuVn4EQCK/8KXq9A3xhujpAyT8ocPpqUe6hwDBoVZmjF0nUNvcGVk51YGOwnmgHvx9BBjFDos3TiGS8SqxUhKiuWOVyvk2hibarW93xB8HtC2wMEDECGKVSE4vmJpYqjq3s7DCQ+B/T/3hKLqPK5mIRxBUksBCnyVKij/kKp4QSit0pqiuBhCr1ylKc7hIFPqoDrIDeaaNtn27uAY59RF6lfpMhQt61L2CKJUppsjDDHqA75TNKutY/scAmgHpIKk6eVqF3VtK2WlXFC0cII5QPccSYZBqrV/JZ59gKmYpLdOmow+Vqz0AIhFf7/LzW0QkE9U/sRdUmYi9SS4kqmHEBiIoiK88wlyoSFS2gLh2n0dHYblQxHysSSSCFBdKjZu1TdAW9tSYKz9MYuXQRrVJoUURYaxCdfZFM7YYoLMxBEWC8BERupQULYUPzUODIKNXRDjY4Ibl5KvUcegrbpAHzrMO8JP7aZNwD9oVT8aL6I6eSOFji/d0uJmwE3x5isrDMOqywjTm8jdbhrRXUuW+uoop9BtMb283lBWqFK6RKsi+AUHM0BgzFBmVuS3mmXEjZjfmUy3IJBJUSqelSgnWftJ2z9qHV2gcEajIhEL7Wb/Cr23gIhK9uLt/ILSm40KZeVuIBEmdIojuYTeVhW2JzwSJQlIpKjt4hYBFqNQmisnPWb/K+5BmBX4AphhkcRVE6imMveg4wkBJzoTQj+X7dd8ZIIASIw5DUc7rPV1D+PRilI+olaCqarOf0WCarQJNgSlRq0gQ5bFwAGCue0zgetTCj2XfknHGf8XYkwmgTsH9GI/f9nvsJz+inMpDfD1yVoS7GOEHkYfcEAARk86g65Omkl/77JCA/x3vZBeAnU7nP546b+CVTUTe/s9zmUlLpAdgxxcVAh7xHgKn8y+PGLvt+5r2QC/Q7DperPwP69oXL2zoDsBgxQekUqtG7LmJJdC1GN7il+ZL7twLwAJEAmih+NiNKG7dup2jD7gxgRP0t9mGE3iGRmNRjuI0ivIpsvj4TkD0B2iXwScBUPkVupwEowv94Xe8JVpnaDqSILUhwIQBR9iHQlN8NjUTTilwXmjBsp8c4Ogis8hjdwQhADC55K9HzNseHSSsQBKd8cZbnTM+IQBMswUQu5bKY0XlM4iEjYx8CNvyMARAqSEK3O4RZBYKlrG4p2wME+0SWyeABCMFzDnkMKxQbPGxswxrfZ3/aqXIWBbximBcpOQB8IIYRjCn8+8POAN+scHlbZ0ABAzn55dw/4sLdp3G5WJ8EBhKxFKuACrDEJFTjpyZgKYn+7iBKUjH9OvpZzEeaNcVIp8FXGKWMTWsAipipdI+LqJ8wjZx8FUjKPFaU+YVZLLtaj4PVcwwBPLFIwiE8T0BGfscIIMcq8ItEMbdJg/FtJdVCAFOcUr1Jnxajfd47Qkh1lEWDMGoz2SFJzwgvpKS2A2uVBX4BiGwc4OLYQPcbi3nK9DZsuVRC4p8xESwZg24Cwi73t2pB8OMa4g4LpYT3R+5BBc87Y1JzADnlS7JxOCHityc0jt/36LE6/SnqrNxCpdfo1kv2EL/IKtoTLldiBkIgvBKn4QccBKigvDdJcu3UHrtPa76whgmYhAEtwmLoPEcliYIAHVSaldc3AGRkCo5GsBqZvCP5AVMo4KtB0yUQihnCEGGJU1JdJqwjoslj02MB5pRyNJmaQZtOZ02Ao/cSESNzcBQgAnSsDoIRAQcmcVRmMYCIGR+hPM9zEAFHXgDYeG8fUCUHMUcN8kIekJun4TwpOOo70kPEVabsJRh6lJi9zJWK9lOAMAewqmlUCz+iErfHvFkqNq2+fjIitoBU/3wpSTvQmNUbMEXMb7kOlpEGm9YGdkpEuXvBsPXjIZeDPlnv0KQKhRqBt/qczBQQiQiB8Af84n991yEQfn0+3tJH+LnwkwkMz8ZH9ujwIwAq4VHPIbqFp+09Wn/WuKjpQUzXNvnUhgCEQELWc8AsBVhqb4kQKqAXBC1ggrTRHJNSM2RtABBNZPmH+BGT6ZEtVlTOJzAUmYKmudkokxoWCbjoH/FeVgEjqSlTQG6CjNikzP05QJB+xykAEf+lOu5FUhi10C/J5RtJ2IUE9SlFtnJNaTboFTZrngzdl1l8yQrdehfAle39axvWpu/yA9oBTNA17KA8o2NVlo9ScwpEoZcqKZstphCITVjreIAG4QD/Ysx+dVNm+RTJLuUk9p1B64dDuYWDcdeeH39hH2/9GuWbsq3PvuM+11kEGsLlasxACIRX4zz84KMQaxnCDNXTRO0+lTKzVr3LhVyjUdFnburJxzVWG0uAa4qU1ZQcOjolOW6Jjbmun/BMvjz5/dimVgUlpoBTFDM6Dnsk7ID/DiFTqkQSKdJRshNAhn4gubjLaMmUlJHpOChQ9F4mVGtMVTeMya3tgWSKdus2CsiJEAqVA0DMIrsFeJE3k4OFrpZpCDXu2YOFHmktI2dxSo7WIjYnY12Ap37Lh6foMhJNJgyEKQuLBexTlKoswQTXq2nMYoQVqCluYQ5rgFU656XJYYyxnUcEZhS5lvmrANTe2VOfU/lft08fuHDrcvmGN4PXXIbL1ZmBEAivzrn4QUYSECMl0SgoIrHRlu2iuDxDe0035xpb9sXuh+TgbTsuSQBhqjo0GrpHinx9ULN2eqVIhP7L5vSNCi1BNB6r6iPObQkfX47ocpt64YN2wz452bYmwquzM0PbWIyTm5d11qVKDXbD4n++mhfYZSRChBpglOjClHSXMWYwWOe7jJLkHSHvJppSH2VMdoEv6TalZNtWyh27t9JGYmxAegsxZYAM7GIP7IudndYb9vmzLWsAgn2UrhdoVSCpflyILqZwezFjd5do5AQQ6vAOzkewuph9sJ4H+DCd8T9myaz2FgCAp1wJj2HWmydfINq6yVyeeFBqFq3CFAxWjDtcrs4MxMf8or747l6dcYUj+R5mQODnPkCc+H1SUCSHn2Qdkgt33KRJ0t5vnAmK2cjE0yLwEEpFFDXNw/C4nmNUbUzwwU3J0ZsSWHAiKLTwlQ9w6w2TsDHj+P7SREzL+AjX0vN2MkjasNm0TRKlD2odehZHbBYVmSrbniEZ+rJaRPv+alGqDsrVnmIDMAGEExrOy4b13sLODAmmkAwewR+HUUvgpI2vELHWZs8+3yb30VmmhqY5MDs8q9vnTzdtBRmt5RwgSFpRB/+eyujWSCd6dzVva2gdZjGJZSpjlOMnhR3z4V2qTZ6hcnNKDbKqWia8YYI53Ons0TiKypdJE0VHRGJpeKUUpVyagAxjC5erMwNxSQ7pV8+/tFdnXOFIvo8Z4BdQEcwOLLA7bJAXh4ApTY5aJBMfN5Ht3/p/ST1pcH+HC1zgcbEABFFJTmEWJgpRpLkInFB2N24AePphZXV04eYFQ/Rf2+BHNwmQzmayVkqs2FGnZA9Oj+3h8aE9rNdstjq1O6tJewchWHXTU+5eTEKAX1vYcFRRaXIHJwRUxkSLuwRNZJJTFYKdCmAThIEhmloT9AvEnzvUB7cAwjbMrf5iaxrfiPWQBk049uz67Xt2b3HePj/dtxbBjhs0ilqYjdt7awUqSVJ0+WM8jL+AWncdM7uGzuHu6dA+etYmXxFlHH4IYrgPlEY0Hpzw/rTNkvuIV9Fq5DrGicbn0zNhovWLM3A17sRPkBDqk3GvdAi+XVdjVOEoXvsMiAnJJ9jpN7mYD7k9srUZwweWxewjsEEN7glgKCl6gaAHIPwbgj9M/kCxMNjPFECMCByKBCskPkA1x4SUEmeIJCQraPF1MGQjwjHWBGBVTqTteoGG8dwvYDLW6J3yYLOOykuLKPYAmau83VzIwKCCCPPXJwZmCNObKlI8QT17TOR2CAvkH2jl0WSJvk77mMoEcdKwMDE0tel0ZsvG5CPkCOxasWK/Wlqxa6UCEeGxzZYp8QPkC/Q0nkOPtkqARGk6HY7nnLrnY9Sud1Gc2aH2+uF+154ckMuID/QaqjZilIuZvM2kSOFREId/D2hH+qzdwp+YpxvejAu4fv1Ywkc/5AzET09wQjcxcziJfH3C5W2ZAYBI3ezky1LOW5d2nfdW6OFLSkcm2bEnhx0A8Zx0E7Eb3swSBBYAPQGh8uyUP0dXOAMIo1zwUYFgBr8dzFJBDZmNUwUl9PELRhjc12OZy7gaAaocIDqXztharmT/tr9ln26fEbDp2Rd7LT5GLmA+RXSZdBhFUV5eYF5Guo4qSdTkaUpEezpQrqESvHmjwFAMMULyNUCJUW5x0n0EhJeLghwJAO5WZcb+p42bBG7IYEwObT5NJz9AfmGWyDYq1GKBEmBtAPICvc+2mwRHOgg7qIETfs/u1DbyFbtVnLGfzS7YrdKMg7zmrI6MTgu/YSZZ8/lV3XaSHijhcnVmIAyWXJ1z8b2ORL5BVUBs1x5yu4VP7AyfHFUl5TwXaxwWaPb8SDlwQSXw5eCEcZk+LIpgwYgfUaxoeoCoNA8w5E0RmcxKWcGkjdI4aYL5OMF81OqBUjnk9J9Vt5driqqSCsXFd0qz7HsMg8JUPj6y//rFuZ00RvaP71TtXczTryBMH9ZC8EZBFJihTTGDkfCPAn7OQuUrBBHVI1kah81uHCCL+rFJkktLmcDKSp42BOWsVUoji+cQc8j0bZZIdIScQvlATyive3bUsU3Ud7ZO6Fh33ndGeM7xyTwu44e8OVOwn1UX7V55zhYyOauk0paiJLDe79teu2kN8i4VgBIrPUeUQWAsQAyXqzEDIRBejfPwWkchUPB/IJHSNgSC6sN7UH8O8/qCQMguDvwWzKtEykye+0mixEMPVDheXKIP2JEm2FEgkTreQISALnECFAXcjN7CCXx5MbEw8upiPA4YYtzDEs4MVbImNHQM4o9uHRhhYYBWAp/etUKFwEbCzno9+xAw/LjXJvWENpyY7KuzOUzKmKfYvETqwEIBIaYp6i80G4EZKuVGCwOHRSqoMiZyXW9HMblRu+ZlHwLvKNFn5DZscKmMrBjJ18N0m7WD+o0ANIKLYAT49e03j5r2yWbDHsBSm6C/JMQSbDvF8S7kivYBIPh38yt2r0J+o//zAdhJr2N7NJiq8cui5k4xjrPZPeN+IQTCYIquxN8QCK/EaXh9g/BggFRRAL4e0eEuqi0NSsDkF3yw/6HtnH1OQKJFkm/OyshRqQHRcBTlQqWJExc6WOBLABykwACSy/jBskNewHwdcYFPkK6f4kMbUYMbT7FKkYUPyvSNyn9IJYb8iBMY1FQsUdFl5eEBii/7DwW6aUCrCktbx0x+pzJr+10aSBHp/d2Tc4A5aj9dL1HFQQULSPgCDJWm49AGwlEvDRK+QDoHJT43ArgE7of4P1V37OyVDahueAMlmUwe5WlEG84Qbj077cACqRIhqfoUNliDkepWwgsSYBCYxZkb+QI38mVngj+dWbAFms9fguCYY+vR8vQUINzpNG2niSrN6MRKhVUft0zmcLk6MxAC4dU5F69kJGJ+igRLEkqlc0N6ECsqLF+gqkOUIH2COopqi7dqXxIh3kZglFaeRATKaPGlKK0Ds/Clweheulh12erirWRTtgI7ywtKZO6iODAih25CCdqIdJckGoIT2FRcAAgYghcWBWyUbhMh4DEBlAzgVPoKUIijMgBExzGAUEGTGEETgczdUpVdkHNIpPf+LhFXNlbNZ5DZZ5xenncJJrrlw842BYS+ZW3dSaF6oQwAwoP6ACAMhFWV7ydGlyMpvFwkeTrSsydUlRw2EJ6t92yfQMgxCtdt0ha7HNuQOe3CfJUGlCdXsQJY38WMfx8AfBcWeBvfoINzsFfeP7GzPgna3bYdAITH3aa1+bzOSQLzWNJm4XJ1ZiAEwqtzLr7zSC5BUDWu521Yn3TxWgcuFHqOUKjEABrUvF7WDU+t7Yzo2nyBzm4VNPtUr0uvEPxefWIQnlZ1MSqBWgLhvVkqLFYX01YYwPyEZ9LpUz4dLG/SRviAtpojcgAT+A3jmLHKAxRAcOOmckSpLWqULmAEEN2HSKDBmSFmsoBGjGuWiKsCDputuj3z0rihPcc/t3XSo5F6luh2HKBVRITFGaG4GGAoeBW1fLHyFIAnlZh9lGb2kOZX0CPJseTSgD1XQJOqk83Drr9+TLVLA9aap1SlHCvYPX4kNA+PGqd2BKjFOZZVXAjvVeYdqO8A1iVSZBR0uaSoGkUfNijf4Bbjl3ksAixFnwIR40pmDhNfzZXD5arMQAiEV+VMfMtxCEDk8+sijKDa1jZy8aoIOWnu2QnR4JPmrlc1NHqnsL+6vy65LbiJbcwV7PZS2W4ulmCF6vWLMnMHgYA60vYtMUtBa7AUMkn6AWdtsYpcFcrM8Tq+N7RRvaoD35/6AI8lZMo6ARwnw6SN8RVOABuBoZDQQRCQi0puC2AFuRw8hFnYkUR8g8CMIE3gsgbgKOgQV9oKQHtM06Y9mNpqFUUZ2KuCOlr0/mBjwd+vRs34eKUPkjWHmMWoUJ8ipqByOgm2ZshT7HN/C5GFfZpAPT+BddL/JD2llK5QthV8f2XG0cHvmCbwofvL2QIBnar9fHaJ1wtEuwNA67EdMUz9YKjSpAmTfd48p4yQkj2ixslkBcHXO/gir7nCj9R9wuXqzEAIhFfnXHyrkQgEBzQ63z9/SgT4EcGPB/jCtrwSpIPIgfyCA4QTZJJJK28EUwHiMM+ipMvM2H+6t2y3AMJKNutsp4M23/7xiC5xqjARpAAlsJklosk/uzZva4sFS9PGkuwYBy6M3gCISA+RiSwx0wk1vhMpPOM3nKDaP5ZJjN9QPr5L5qSEbAUjZC4LIMco1QTtOAPozWF+LqA2I0AUCLVgcQLDwzoVKPj5VqsRl+IXBAo+HQxhZRBKXy59j+ow1wSITrodq3U61iCKK6XpBOVxWmvkBJ53aiSOUx9Mdcwvqgv2wcwiQZuyZQjafHF+7KyuBZBW01n71SzzBVNdByTlKmgDeAO2J59giShzlvScwDfYtS/rJ/aofmodQPIavsG/ufG/uEZhAtPfS/G+1RkPP/Q6ZiAEwtcxq99im7pwpfQi0JLslQBIwgepi3wzva5/AZjR0Iigh+qCxf7O28e2d/6EGuGnrikoqfg+QqVifmMPHASflY9NicnzJA2LAf50Y97uLFXxuaUAKNhRZ2pnZxPEAkimblEZwQWu96fR/ludIX1lZcOq+AejmLUTusdF8J1Fpd2n2IRACCbk8vaYlupDHAgj8JzyC2GG0wQgx/acDPIxgaCLJejY+Kxqlidihnw2yXgEmgUiyTlyDbsci8rXvK8wvkmU9jk+MTCAlPlWFJdYNRvVhgM09DklRHzcaDI3Z8jsY6ICaD6X7E5j1PhjfHYxEfwYeAoMPr8ceTMCNIbmaTACv2WCIXe4lX9Q4CfzV2xRaTICa0XQ5dN8Bgv87OzYtjGN+6hwz5VW7DqdAK/P/oRe0cuMWZfdBWJ/i+9K+JFXPwMhEL76Of0WWwQIYBQybS+FDnSx3l74wFIEB7QIysZceF38f1I2OWxswoyeoQzzBeklD1FDOffPK0lagRJXQhbA8E+LLjuJBKhW9ufXFuwf7nJxzpfwt+UAHOpmAbVGbWxHx3RqO2/babfrCdHZVMJmMYnXYEo352+iEMP2kdGSVirSLl45EkGoVWzPqSN7EsCMlMbCrSLEYobjoiMKgwjSX2RCCmSEXUqz0eKRVPQLxwBdDKFTIMoBSUyrQYVLl+MSK2y5tqACDwJV7ZeVbamtqKo/HAz1mB0MAL79sxo5gMcoa+uYoLcs8mu2SY3J0eRd5u4vZpbsF7C9AjmIArY9AhwHNIrXmK6T0nOzVPFodhLgbcAwN3EzqB5Z4KfIcZWEcAHnMf7AD4927bcnB3YM+yxkCaYs/729s/QrFLCX8BNS+3wB1D6Q8M+VmIEQCK/AaVBkVwAns1agdtqiWB9n+nL5Oqyw6uxO/j2B5BlJ0Kesivpermf4AuOoQSfjql6AWAEibVLqBjAsAUQCkEqK1VWLHh1+f33Rbi/O4WeTKH3ChkjZt5ukj5zRm4NI6VEb+XrGlMCHtlwt2b3VeVufq9LdDa1B/qlyLh4fEw1m8lDGUoGHDWBkqjjhrjMusTuZyWJ6XPh6LpIlUkrnO4EhdrgDQkRoCEqrPE/5h1HePwWkIvIX4m8UKKlMTWwW3PHUlx7Pq2n7CD2wOEGPAAzZsfseFY1lHA6CCLJiDu+eIoN1csyPBbmG7E7BG5ncK9mi3SDae4vyOvn91kisFr/E02lFmOiEsQqEhVsag9jfEYxPgDfA3M0wp5fA2eW1561zr5e+jzl8TFpRMbdsK9V7dmv+Z7gWbnhZnRpjhcvVm4EQCK/AOZGKsUDu0cHv7dOdf4H1NAhMrNpP1/6Tm8vnSDipGZCAcvfske1iBuv9TYRUp5i+MfqDlChDK6v5ENp4fVJaVAc7AuDEWASCJV67szRr/3h3nSBJCfMYHxfHzjVtHRob1c/GdopZfEKKiYCwg08xkybBGcD87+7dtPls1WdqNFbViYRQ1cGORGYAUNY3Oc2AGJFlZ2jKD2TrgNoIfyHY4+Cmx5LgV36hFKhFImUmOzqBNq5oI+BkH/zBzObdMDyZnTKBZWrLbwkp5FYCrIAjogtKj9FOvNcJfr3Lx13kvs7I39s+OXEgbJOkrSUOGM2nkeYnCVrRX6W/COi0L40FXmmL2Rx5gTkHTQ98NM49MVqRY5nNi5jJC9QTCzxlDp8SZv/49NA+PN6zLUziUSxvt2buOhO8Mf8e7oeFMGXGZ/9q/gmB8Ac/L1MXQ909ewzDk27dPmxnZE0YobTsJOqpXiKH6AIeNXa8PEsJ0UmAaLEcY83ZIhp5VVpMyp+3i5TVDgnBQI0fWRSQWCwjQ7++hILKPCBY9cTpKL6rPvJZPepkGzX0+E4mJFcTPUUnsIc/row5fGtlyX6CavP1lVUiqSRYw/CmAFh/KBBTjiC6gLBCCSgI5CL4GFVGImYoTUGpWE+1wvAmpOOohwnQiVq1eCWPGa8CJo6UjmQ8yWOV6aHeig8SqukYpx1o5TkBJlDlNjVjmlIxonpkXtEGeT/ACNCJER7X69QF7zsjrCHi0GdeUzDIeSK9N2GBAsENgiJ5zGExQYmwBsEcgtj4FhsEoXYBtWOqWxQsETMU+M3gI5xHPSfLD4xA8CEM8P75iX1WO7Id5q/DZwuk/yyWNpj7yygxSeXaQLhcyRkIgfAHPS0wJC5YiXaq5ve0tQMbrDEiRKNghU+OP7XoyWfuB1Q+oBKjp+SrwMGsTBrLtbm8/fx6GYDD0Z/DuQ8T/H8+O0S1hRphtivsUMmbEqb/0zs3AMEyTJNUaMBGzYaUL9jAHG6cTu30lDSSM1SVWw0CAYBssWw/v3XN3qePx/ryso1IPemeNQlSUHkyJnEaLIqjUh3FfJxC8SKwtwhAwoYBQuFZYA7rKde8hHqySx/TUOBHpFjMy7FLGOcrf/QeyW4RWIlwK4wTq9XhaBEMyhSGe/JIIBgAoTyKfAhgFRDyOfZ7eH5mD/d2+XGQS0HCDMj3A1DLmMS3iwR/YIIVTGThk5imgFs0VY8FcFvMxa8PNgHDhoPfTczojUrZlmCDMp2baCiqcuTT2qH9ep8fKgBTqTLq9zKPL3ChuMa6TpoPzFJsM1yu7AyEQPgDnhqv+8Xx1R7gyO8/xYc3RZS0ao/2moDiMdjwqTMvyedH0N+bIVFZ7E7lcNfm8wAhFxtsUCDYQHl5m5rYZwglSBRgAoJcn68QGV4FKMl5q1bJX0OdBeDokiPYg72JCTaQ4asjKFqjP8exegNTafHBwjV759qyvb+xjo9wFn9ghsZMBDAAMDHC0QgRA3xk8v+pbedUCjRKp+NYImp8LBTiNfn1JBE4AGBw6wXMkDSVMVUnUdigVP6550xJ+Odg54DHI/6zK3IARw5KqtQQACYxS1OAUMLltASGF+zwQlxBvZC7NGhqdlt2f2fH/vD0qZ02aATPO8XIsoDUYrJsWekDEpTpswkwmWZSrAx3iwDJIZ8VszvtdZ1BKpKsnMaFF40HAABAAElEQVRAWitNygwBmE6LSpQaTJD0mjb+W6TKBhy/fgAkuqq2qLlU0YMjLxK/GUO4XM0ZUKK8viFXc3Q/8lGNuXAU5e0ChL3hNvl8EiKdwZRrAmhnAOS5BzpU0VHKwTKKGXtvfcZ+dWMOkMvD8NDg418Px/wewqjPj2UW05ejNaaFZRodv3n7n997l/fNsF2iKJikI5ibAiMNGKBAEIxAGWVsdXyCHZou5fJp2lquwwTX7O7qsuVy1M8CPONY5wIIEVGAEWrsavMZkQgptvGU4HZkzPeIhGyJswrVBJxiZ+720/uJIks+fwIQjmF76n0y5rsXkCU+KyQEMLW4i5GnenyuRSBiCLgKZFLkF6YxZcW6pCojKFWPFE/SFkPkcR2Q2j0FpADCL7a3PMdP33Cl5BTpfLeA+AHp2LDEAQp0Anheo9oliX/1KZMiU3cbcFNZnSLJYo43MKWVV9iF2R5S//yE932EeOvvTvb8HAhpOULGFGOMWQfBLECYojVqaBLrjF7tJZ5B523cIaGVn0X/Mb7a4/1RjU6lbjJ5x0hglbOAlwc7UHEhzUW/TWJUlRzRTXL+NuaKdn1BbDBPEyESjYnAOruD/Ugm6uPnZ/bhY1WPjIlQlpCWXyEBep30mAq1wxnSY2QKk6LTBAjrRJUbPOY5aSf0UgRUSNP5+fpdm4Fh3iRSvIQiSwKTbuoVEAKYixWaNmEdT7glUBEFCKcAodIJIwBJlEZM+iJ5XiDAJiNWQBMHFFVx4RhJtGOqNBlY4STG52UkY14Hn+EU83klPYsNtvFXtolgK2FZ85KH1RZIbE6olSd+TjgpO1bAJOHR7C4pMr97/Nj+9cED9AL3/HP6XosJrmXLdiNX9UgvXks7R06/jwncQUK/T0Mo7U/7UTT4lwBgGQEKVY4okLKDmXxGCo98hke9Fi0GSFTnh+M2PzICQDHWPfIVqdBDbmuBH601B8SQY7wZl2w8R0F8D7JAKpjLJb0Zw36zR6kcP5nF8g2qY9xwUiPYEcOMkteM69rBIwKrSBDdzdmd5ardXSbNg3K4WaLDBSSupP+nyOx5u49J3EWUoIFIaIvWkuT8zVbtg40Nmg2toIZcgKrErEtQhOwOa+IT7PLD1+/yeQkj0IQphZ8vTXBkeb5IaVnGZqkRzqEwE8efhgJCADYyQTGrJwCigHCi+xfHEdUtY456CgxACNpFFNoVAgF+CkAICOXrc38fr014bpLmln1N5GPUgev9YoX8V3pKEyYoEFQyteAyoXQVjq9IwCJJdUbgJ9RHNC65B/qw4QY/Cs/t119+jnkc5A2Kkan8bSZJewB8ghptSyDIN17R8TZJ7NqP7ksTsUqL0HVM4Tn2pbzDBr7AXdSld5DTElNsA5zAuM3ns7ZRLFoXd4AqVs5Q9Vbf5yptOheKG54CpbMZLld/BuJFitcjDb6g+HLw7oTL9zADkshX3uAOJXEfb/8aE7ZvNxYqpKVQ2obSioIeaWSw1mbLAOAs9cCzSE8VAMaM+8aU/iGwVBBiE3P4909PXTElBmhdm1uw91Y3YJBLSGaVbIAYKa4/I/uDCLFYISYpMltYrJZbQN+P7mxrRJ/BCMsCOGlATT6zKX6uKCkmAqYxrHMCA/Q2nYCg/IQOPrym9B0BIjjnrHAKeEekag3bk89Q2CYg8iizosXCR2EdfkNPuCairA+rO57e7HmFfKYDUzsmVUWpK2Jb2kaaCpMK9b0VUlbECAXM2r7SaGTyPz86AQQ30QxUfTWVNexfnxMUycw97ZMgzf0Tgk5ZTGzPA6S+WsEP3VcFTWDGT3zfT5HXV1pMHSbYhi1Cby2NDNksjDRPYnqJpE2tO/gXFDQRm4zCoOeKq5yvG+4fZHfh8gbMQDxDP9leghPISQ6X1zsDAgyVyJ21j1wUVf2CN08+BwSXCIIsIo9/Qp2w+oOgnIxJfH2+CgucwzQuEyjJuEiA/IVKD5GKs/rubp107P5enSjzFJAo4mdcJV9w3apZZKHoIdyi3Wa7DgNCJEFgMSH/LoVZnUYlpnR9xorr+Mtwj5BWbRM6uRntL6MAQgxWFIUdTQgMTABufW4yTbICPgRiAjAUEMqlIoYrPANmVEYHy/OIrw5E7JCnFalWnqHe7aV4PD8C8KPY5uAyPj+FTRwL/U+L6OsBZqgqSmQmxxlTFrNY4rEzuTK7UFvNICexzZjPidje39u33z557HmDPQBUFTNJfHZKei5zLDP4TYv8wKSZw4yqbEgYFwAqadsDO+xftcOqHFEw5KTfgTnSp5jzpuTyokzlfM5mcGHMUJGSpSImy/VzyHv1Of1QSHx1trBi8+SBpvEPhsubMQNh1Ph7PE8SPlB53LPjz+13z/8L+YGPCZSc4VBfxpwq2pe7py5CmuDCXEI6/s7yAiA5B7NQ4/OLIAG/WAKfJuVhJwiW7pzSmY2SOEUpl8mLu7cMG5xZpbSNoAG4Vic1ZtCFPaIqraAEmGDVjbLN30R2a51qEfyNA3r6DkmkHovJ4W9LUk6WyOHkx6+mFp1jqjzEIseTSyCUaRyAn1pXejWIw6EwTGyQHQESSqeRMrVYmUBOpM+JH1ipiPNATJNqmCBYAhgDXGJsbBrtRMzRBtFYkqAFRPLTFZHAn6PcTUAYl8kOICt5+hi6+8nOczeJH+6r/wolgOxT4FakMuReac6FEpQzOI9ZrdQXLTK5lSAtuaxt5LK22+ceoe7AzJXAnYEtLmL6zpNyNEtydQG2q2bvqtRJcCBZ6q1zNHgaklhewyyPxZDozywyvnn8mBXGqGBOuLwJMxAC4fdwlhRhHaB5JzGEfYQRHlJBoubfI/rdZvDTKRIai5KfB2OTsMBimVy1igIWFUwv8v5Ahzj5cTECArrAIUgkVosNtjwFZIxfY6WySE3rDZujtjUxzlu9MYQFEnAABIUuqRwRV5hfOoe46Rq1sddnLVMuuKL0CHY2JciigEOMiz+OqRilqoSdwQQBUQQOhjiRBzT4kokMnDn7Cdx5zvFAL7bhMKgUEgCK47Ieq3Yv+5VtuZnKY90Xy+v1h55fJ9+igFJyXQJIJTafY9ruNhGTpSxOG5nhh2JtZh7Wq8ZHaU86rw+6ACYqL3tBmsyTw318puRa8gltT1FeSWfNCUAJeoj5yXztEPkdsNbx/e0DhLuky+zDKI/YF1OLXzSGb5U2nOpIV+JcFAswbNS7vYG72Ck/KIyZiSYFCD8jzFw/TLMF2HuFemzKIiWsMCAjQBaAzr/mRM8JHOPRMLla0/xDL/qe6DssF1MIhN/D2RjhjK8jjPocgYRP8Alunnzp5vEMqi/LgF6GlpZUg3HhcEK4WN9ZWUEjcM4Vo+UHUz2tNPkUHBBQ6GI+ITz55JAUG0ziUhah0NXb9rO1dyxGO8vaMdJTZ0SEB1KKxvwjIJIrk5pTTli+krQifTszJAaLevXrBA3O0ehDyEDmcIJgSQwBAaWBTGBGkKYLIFRFidJmZJqLuelrBCi6mcz9CyCcEn2VEo3yBKdyNr60BBjIX5BRYFeH9UmIVb1OxAbRwCGpmT7LmOMnAkJ8b02CEKqOWSOX7+4ytdcc64gxNGGKW9QQf7H7HJN4y9cWoPjyoooRtdRU6VwD03UPE1Y11C2Oq8OBKRXGvZiMNw6LXavMWpkASSWTsTJAWOTHIM3z6pPi7UQBvyQBrXwOoKTzXk1sEo3Ec3I421TB3MEtcWPufSLbZYCa1BzUwNu0S1UJpRSpMzSKz6dKrEHStwA+XH64GeDr7yWmfB0s3uUCEBNRpUF4Yl7tSZFkvoIiNUQRZA4/PvwYMPycZOl9vziyqQIXuNSKM1SNiGlQLyyxT6o6qvjCAkUXiQqQpqLfLEBRAQD1zagBhDunDRglbAX1k7nMkiXHZdJjYFokS8tkTecBP4AvAwtMZzHlKmnLVZG5J0IcAXAH9OcYNLrUA/ONYB/kUtF0STVzpOYIcPleBCuJzYBqWwyP7SodRnUhgX9Q+8IP6EDIdghc+PN8nVRxol/cy8VNZDFDQNSDF7Aw5R6W8Idqf1q7gOApVSBHLdRfWKf4Q2UOr1dJCof1Qr4QpiDP7/TInqDycn+Pyo/aCUywzXcYM5x/BfyBeQBwFiYoczoCKxwAaCOOUYRWIJ2iPC/B+KTIk8bszsGEcwBnCfATACpiLx8iGCyCGLBALF3lG+YAwgIK3Dsw1kf7Z0Srp7BFmeyk3GAWqyxSaVEnrV3m7IzjwmxmThP0NJ5BhkupNZJYk/nsTJkxh8v3PwP6kceLQkYFBKSNdlyvpwgkZzw8Ia/0bEgOS/L4Ekv4w9Y/OSMMtAK7ftEWAZ312XnALMsFI+UYaljxzxW4eJUeEixiX5hSAKECFAKCdg+wQC9wH2VlRYjvLt6h5++Mtc4AK9Slx4BLhnSc0nwaMzjPBciWSEVJwfaShYK3u1Ry8wAw7Z5RjkeJRxQwjuMHi8kkZm9jAhkQWWeDE14XELZIuUkTDEknA78fqMeYApNYiKcIsoOgzI0LYFOqio4g+Bd8w3TZi/mdwNBUXrI2KvN6sHQJfBwCgFqPqA+epaxtFaHU9eoyPxCzCLOe8KOya59sPfbbA5Kfe3ybBYIKt8gErZIvuFqaD8CM4IhQbASryxO8qIhdg+SS6k/xvNheGsBTOpJ8f+AiwMdscyvz99IM1hwmAEHlpSfIl9RrNSR+Pt46IlCV48doHpBbBBALfr5VMnmAOEYXZfCMxCkQbB2hXbZYuePirBuo0mSTJWe7+oEIl+9/BsaIkvQBwTY19/EWVQhDHOuKCobLq5kB5QlKGVo9Q+7vfeg+wR3ktWQey0x2rUBYUY40jOXyAhceDncu5DRAWIG1qPm3orNSkxZT10UaRGvjXHSkldTpRocpnYxTxhWDWUTm6f2RoxJFbIygCoylRGe2QpVSNHWjo/jXzVWCBFHWKUA5xMc4kICqvgRc3THSQCIwI9W1yfyW8ssIcMaNRlCDKLVM96H8mcowANbc8af9ac70BzaoOmgYo8ZYJ/iQJIGbfu8wLwIh+ozexdzUSEnZozrjmHSWDEnRep6260A94EJC9GdH+FIBwSmgtgoTfHfltosgfLL9hIqbHXyje6QeHfJjUPfAiIMg712ASa9UqnaT1KFr6CcmZXLD/pTDKP+jADDBrVJ5lFcYPL54jkGI/UU5Lh2bqmUu2WCM+5esUMAo1npMoGr3jMZM5z3UvQFpxBWkCanzvUluaIO68QK6jYtpGCo/auKqbfkmu9sExcRekfFSD5NMBcAuMgPh8n3PgL67Uk5SZpQDoeGPjuIwDH+XXs2p0MWu6PDB+SbM5dd2n7aZEl2V41xwEHjYJphjUihZsBZVCnWqFTKUZolxKTVEWns96F+cizDDBa0qDoGcfFEHMME+aSdqEJ6FCSaHM9ZrkR7DD1qWKGaW9pmVpRyskM8AsPKFyBRWFFi3Y9jgmLK8YQdnP0CXwFdJHhVfAvkgMVz5crhvkH0JCHsCQsyIEQAqxidgCIAwgEBxQn3IWR93W/j+tmpnViRSvUD/DwVDBHT6gsm/ecyxKkqr9JRZ2JW8n66MiL+xRq3vRwd7qODQKInAwrXZNXsf3+f9/ae+PtpDiQdWqO0EPygCL40J0Jyp2t/fegdf4pKXFzqw8SPwAtz89Goy9F0XeAerA5+AXHDlAM/zDoiCr8tjDT4jgGxRyfP0qGE7JwjYNgcAcIXA1jU/3wf1TcQenlty2rG7C2t2p4zaD6a5fuj0A/A5tcmfHn4JsCZhkcuALf7bEAhfzYX3HbbClfIdPh1+9I9mYEDxfYvSuSdHn9jD/d+5eOqEAMIMOX6KDicBojbRzhpF/WmAMJcucpFwIUeGsBc50VWjS20vvrYWZQpKpakKqGIEMGBWDZ57flKDoZHakVu31KRiw7bqiDH3yGnLz1B9ISZInpsDD2Amn1hcJiJRSzH/YYckZepsx4CpgyOJygLBqfx7TuxggwCgBFt7RJ07JGFzHTN+saqXvjABjvAVAiT4eVX0bQByHpHO8hnyVze4wFepjFFlifyIUnTZp63lx7UDe9KiyTksVJJW6mWs6PCzs449OD1xBRzIKPtLMo/b/IjAIM+PkCLDF0h1h9c5s08FkJLM6XxBjeln7Ser64jIrmJO4w5gLh0ABdoanwMcG4U5Onu9OHOXVmnAV/nrbEBAqGf4ydLnHBQFm/RlYSLU6Om3T/YAvgEBLRq68956t4af8sAGvRO7XcjZBvqN0jtUJYsAUIIMyl1cpjfMT/DlJkfnrj+pnjNBRFnRZDIDON8KrCjCLBHX0Gz+o0vstTwRRo1f6bTK2a/gCBf60cf25f6/A3j7fKkN3x/MAEl4iaSeNM94H8Kn+OXkU+qg8xeLdmEHge9NWoGKqrZQaknBphRPjVMvLCrf8LSZMwBk1VbyAOGYipQur4NzMokLlZRHhgV8YoMjUlTiXPxRgR1+qjE+uSEma4+m5QpseM6f8t0USFAajXx7vEf+wQFBAEgbPhQcZiwUVfix+AOYoeMgf5yZcUGPCL8NqLA4qJ/Zl4cHVpgBnCuBgrQY3DnJ0Wpv+enZoW1jGv9tbtUbIqmX8Rkm8SdHBwDhsScop4ikF5ifp0dbNKJ/whyh7kIkVsCgVcnSaQIcJfypN+aR2b9+iwqcRe7PM0a9JwBAyWc7tn31h+GLnV4+r/dp0d/gnl73o2M/DoJ6O6t8r10S2WUS//7ZAUyZkr3sLMdPrxfcIC1cH5FR3d6triHWgF8TgFZkeosfvSH21yygr74nWcBui2jyk6OPAOxAQELukBRpQSmOWX1qJNag1wJAFCAzgHB5bTMQAuErnFoBlfqIPIAJPj+5D3s59mqIRUBQ5p1Yyv7ZAYDXBAD5svOlj9K9KAoDjEXE4AAh1h7+OfXaGGLCSkgUb6CbygKCJoxQawVgLESWeYVaYkBMwZFilQAAKjURgG1KeFRBDt2qHG7Ke8T4lBMotqc1JtYEq1IoVX4SD3QAhh5I4fU+QbQ+fkeNQ8EBia3K3LyAGMbF9jnmyZSNgpx1ipl38eE9J4qrniBRwFJJzZK4P4MVfYJf7+PTA6vB8BShVX/gGVJ1jjGHnwGev9nftqfcij32OdYpYKn7QUWOAg5AFH8yJEnP8tmVmVlKChepwCHxnLWSl9YirPoCuBwMHd/ECDVc0d2LVaawfAAcQwDpPNYj3uif59fLu+wpBYj/Avs6fUye7NcAZxpBdXrAJRF58iWVJlMHCBdwa6wXF+0eaThLRP/1OYG/krbV62QjV8JMRkgDQDyr1aj5PsFf+C/2jO+KFGsyRJVlJhcojVREWSBbuUjOzpF2E8h56UDC5VXPQAiEf8WMutip8yB9KGAmlx9X/fCAfLEdlKYFhALEwahNMGTdbi3cwOH/Dhe3zMYaF7NKsbIeFIkSSRQIxgBEXbjEamGCSOWTEycGIu+ZgLAPqDU6fU/c7SOPrzrg7FRmWWBOyR+YK5GiQbc4mdATQA9rDBABAC9WmcVicQJDMb4IIKu0DgHkBDPZQY196nWlFSibQPtSkyQPOgAOkC0W/Qner7sTiRAQ+DjGd/f5wQ4+snNGzGdAFAUyarBEdXYTE/zs7AhprRHS/1z0gKECM5v1c/v85NA+PaYZPYDp4AeTGgKgl6ahbvVDkoUpVmFa12eXYIArtCRd98TzGUrfxAQdprmNAmDeR9lBked1q5cdAMUGL4DwZWDkOQc/gSHuBJf8Z1sC4iHRolPY+IO9U5dIa1JJkkoMLYcztUOQZIAP+H2Y6fskfasVaJlyQCVsS6i1Bq2e4YdPVS6qatE5kI80O0XIFeDfg0nL9ZGACaYp0cvh+1VStkr1pHCtdJs57qt6SMnkshEu50VHFC7ffQZCIPyGcygQHHMBy6cjn5j8N/LlXH4h1XBpp/aYJOePAcNHgMoQ0dQFmOBPKXu7wy/7HE5+fEgEQMS8skhcJTF/JgRAorC7VBzJKy7E0bBrRwBJg2qH2XwQURRItgHGLfxn6uBWSdENLVqlORIXDtUiWVeQwbdEKgg8z1mg2KCqQgJxBIBRWQG6wAV0lMu5iIIAkvcrdWoKEPIgMJ3JSwaPHAgFgmJIYo5unjma6L2OKrA+3AH49w5Pt92E/WR/B9HTiN0l7UUX/T4s6vfS7Tvet00Yo8ChRM2ughufAXz3MYXP2dmBkp15TSb05aK5FWhoT/IXzsCybi+u0U1vmbSjBUCiAljQmJ6ot34yxFSDXsmY42K7BJmizEkU35xcAPKVao042+O+gJMfH7HEqf9qcG78lnPMrbQTx5yvPmb7KUnnmwfSODxC6xCtQtJ/xlQGTSY7gD7K17DlBQJOavquY1Pidh0QlF9UfkUxe/lDBYZ6/G6Z/FHmVMndUtk5B2jPWI/xL5+idajGXNt8n4pHnxKMWaPk8jopRO9w3Pf43kiYVj+Q4fKqZiAEwm84kwJApcQIDAUK+iLKf6M0COUL7hMp/Hz3Xz2HrIHJM1ecI4q5Bhu8bRuzNwHNiB1MT2B2Qa/cLFUcSViAIsFRGKEYgfYxIfn2mBrbM+peZ/NcLLCACK+3iEJv1469CXkluUK0uIpllyY9hppYzOIEvYadwTiwwRkAKvkDIVwOes4GeU6gMiEi7SxRZjOrgNH7fgjsAcSRdApZFZkWSHrJHGgo0PQtsB0BlNqLDoZNO2kc4PindPBwy/YJlKxlClaCubW5wD/GHP6I1pYyiQUOariex7fX47VH56f43DD1AQx1hlNkVT84AkD9U0VJCudnGkAVC1xBIPX9tZtEhJf5kakQNU8zh7yTgxKz1K3Sd7xTHMATUUI0vlKtMSpsYrrPc7rvQAlYBkDITxD7nzKWCWA8AbzGjGkCwAuY27gido7P7On+iW0eqh6c9Be5EBDyUr1yCvaXj5GjCMhJ+l+1CRKTlVkst4CEH/IEdXTc6tGswMk8vk2pImseRxzzIeazfjTkQ1Ur0Ro+xFafntXNbaTFdvEr77r/WWy/WlgkZWfev4c6N+Hy3WcgBMJvOIcCO1UM6FYlVIrwaRE4Nnn+2dFn9tHmP+HUbxDJxP81s07J1bswliXYTAHQwOeHqSpVFDEX9bGQKaS0GJm+8hVO2LYiyMqPO8WEHi9jDnKBkcbrSdS7RFun3RmbjW9gVs7CchBjwBRWDbGYjqpJTMAloOL6cEbI9gSCHiEGjAUyARDKLAUEyQ2U3TjV1cuePG0Gv+AIEIQMsU3VyMKi9B5yDMUEtRuZvEOO/Yhk8ccHn9m/b36Jcs6xpbkwFZw5wRxW06NnsMAabFaafmJCYtMnNFo/B2TYoAOjqmUEkJcgqIs7iZ9TsvwrMwvM5QI9ntf4QVkk4ESZGn7FBC4BsIuOdpizsDqBoNRtlKrDxtwd6PPAyAOEdFob/FgoGqvzB0D5IlboY2OeYMxDqnyUZzmii/yYUr7z87rd39qxBzt7nJuWs3r5KpWLKJBT8CPDWPVY8yuRCAVJZOarCfwCoKdaZ82iWxPcCvhrzMECx7PE8eg9ah6vHwvNzybfAalgPyKw1iISvckPob5bRzTxen/tH71Xchq/opvKOvhw+U4zEALhN5y+EQihKhElOcupzXXr7FDiqjtUEaiSQN3m5OiuUny/XFnnAr5OwuwsQJLhc3q/wIU7IIm+xHGBn/vviNqqjpgLSOAjp/x5p861KTam99BTl8jyKdUW+dEsta7LXHiom8Bw4tStqp5YJiEfD8CP7b+IC/CkgHBELqD7zbhmpspJ5GIMAFJMDwBhbH5Mqi2W6ezmc8A2ArNYLJIyNUzCCRdrp3/mTOXZ/mekCX1hT0hy7sKAqph/krGS5P0eqTJPuZAD3+pXE93l82JCYn1KrVEQQFUeqrMW+1PttaprJDih0roN/IHX55bJuURazHFNn77IIxSA+rb8KVgyR0NwJxLDtAXklZTtq4Bc95mbKOCufMnLlgIKhOiYxARHiKuOAO4Btc5d5vvsvGZPdvccBCX/PyEIVGF8yg3MwfIk46WeLDpG+TYF9jhQXFhWZrGEXaVfKLPYgVCDZREQnhE0mqeaR+ayXhOeaRvN3ADghGHCNHMw2G3EZtVHpdHaIjBzyo+Egmtx5uMaP7QEzPAbhko3wbx+278hEH7DmZOElvoLTzCNF0pr/qVVvxH5cr7Y/Xf8f1t+MRQzqm64hgN/A0DUl1SgSUACn6HYlS4MmTcOhIiLTiZKYuY1wEn76HOhtWESHZKspQQtNig/XZ/uR11K6+BCPFN1lpkiDy/OhSKBBIcG/njfEABRzISdsl3AzAMggIDMSJAkqCsHDMBkwZEE9f053i/mqOcnVImIKV7AFbfsB9O4S4tL1c+q1egzRCQeHnxOOskuQglqnk4NNCxHvrFt9t8HNP8jCLIhxuV/tWkHQQFfnuBPEZO6SqBhrjBDkGmOOaRsDZ9bmb4pWUBfmoAarRhgMDb5E78CRG1Y+1N5INOMHiO5kMxbTCtKMTEkxWLaBkGOqExnoapAkAMWCE44hglgPmX+FfxpEsj4AqHXj59tUlN8CBB1rYR/7hq13XeVDgVQSevwD5j9D2jnKSEHAZymVW0JerhBtAgEBZxikYJt/XPGyL7EGBmyfht9XvTjoL7JCrhUAcNb+FofYx18XjuCXTdss31sX9D7+oDv28+v/Wd7N/J3lPbRMzlW8n2Ff77dDIRA+A3nTSZxEwAQEMpPKIkl9Rw5rG8HfkESavWrvFBaxZn/E/x7K4BdkS+//IAADWAoIJTPTjlwCdig8gPFCC/XET69ARex+hqLeQWfo8IEPcABAGUTmAONhGORwKxOovkXIwgA/fGj0MUv/NPit7rAuMpkIo8UaQYIvZUnjwV+uCR53aHFAVTvlWq0zGSvBUEuytkS71EkezhuIySwhw+TMjfKyLZrT2g2f0BVTKD8rE/1AFAHI13dF+PQ8wq0yJ2gAJO0FZP4yjKwvxziCJLeL5NwLmFZAeHsS6uUulULLJRQo6jgVtvW/YCxClE1Tr3mPj/dCs11LMCSgI6O6zBE/H4CQA+W8FaAUJ/zwIhYKj9E8hGOYGrHZzXbpNTv0+dbpMwcoas4tmXGqSZOAqdbgLXUbVLMvxKmZQanOD75FHWswlixOw1FDeolAaZ5kAvAWSNj0o+iv4eRv7zo+5ElyKPPiC3K/Na2pcnIzxQK2+ekZzU8sqy0Gx2lmlnJb+3+0Zc3Ft7/RjMQAuE3mCZd2DKJW71zv6hkJveGKBjjwD6kKbuar/dIpE7j81up3LB3ln5B75ACX1pyAwWAAp2LFBYBkJjVZVqMGKEzRhihfIjSI3TBAlEEGKGCFerkNsLMS0yRqI8imkDeYZyLMAEQKiIqQNAYtehGWHjJMPyxrkcBHtsXQdQYdIH6Z8AP9w8KU/ScPw78bnHEAnTcAuXTFurZHOtT1HMkIlGDmTT4YfAkZ+2YRRekLmw244/8Lw9kWgsAszStzxL8UQuBMsxZUXEBnwIhkt8vkwJTIPKaQ0k6EEAQgAqwgi0KSLT4cxf3HQw98qv3XoKhbjkGHQzHHOFHTAQXfA/mRdu88Cv6AetN/qvAj49YOabx0/19+wgQ/Hhzx84bHVsnB/Dd8qz9EhN9DcAWy9N4dLwbMMQeczQDQ/Szi69QqUOX8yBgkwtAQ9a5FQvU5xQs0b/Lc+cH5kfIcHhdDDLF3CknUexT0fYSt/+G6s4uDPEp6uaa7QzzqnJLSXxJTSdc/voZCIHwvzFnwcWN34fEuy7gJ3Zx2XNExfWKFosZqnPZSuU66x1+qQMhBQGcp8fognHAEysAceSsx8cjqXk1HdJ79F75ByW/L6YA/4E9IIaq6CR5eiN8dqkopVkxASERaxhVAm08MTyP+PpxXF567CK4y3ZY+OMApwdgA9ejL1xrwa1wQ0/qfb4qYtxxoDtu7AKAO4gM7MAGdbvnYhJddXFDbFYXrC5mRdBVCZHC3PcKCaLgui9/1uVtGhM4jT8rqKgJpLIkl5WDHcfHsGO6iPU5ZilbQwQDlRfK+kQIhSP+52LwwQ/K5cGILepQGMnFrQ6Gmbk4IF7xg+VsCgB53iXC/D3aBqsmiMk5Qa17B5mvz7f36C995I3rryEG+zcA4DsA4QagrYi4fIPapBieEsPF3uTTK8ByPWDCOZSJK7kxOKlHhjUcBVJcARtwLAOm2o4A72LgOoivLdqWwFCajRvsR+xSZnWf7bbGTc9bXSht8J2bsTiisIFq0cUkfW1L4YO/NAMhEP6l2dFr+rLLFIYp9AakTcAchoCiIshP6TlyUH/mkeN5Gvb84vr/SIDkNkBQ0lef9+r64oL5/9l7z+24kjVNLwBkwgMJb+jJ8ub4VvdozFqakS5Af3UXugRdlNbSD/0YtVa3dKZbp7uPK0cWq2hBeJdAAkgYPc8XuUEQBZBg0RN7kxvpto0d8cb7edlBgJ3NLRt01va9g0nxE3ESQJQRbqvfYnCxK+dFVEa8M8mnesIMhIOMGdxBtFLiMqO4K9s7vrh/scTRjnyRwaL4Nb86qD2K23o8Q9oW1h8RJvgHksn+Q4SQGUERW7FhXGOAh3q+DIL9REUMdY/A9oiIYK11jgAaw8ECe/CZ1Pqs0zPQznGybs8z7pFcts662bbNgMcdhUHfS76/fmqr9PGqMSUbejgx5/RWvIcMwfEprpw/LN5FsfJb3JevAp6vrHEEf+BYAmPch/dNSc6l1fSnOw9hgg9IqrCUPoC1WuD9f7hwLSrbeWSPH2fgjyB2CYZ4qdfnEj+GeCzg6UcZpUgBRQHRttVCrsuQFmYzZ/cyeQQQ5l1P/OvvrpOI5q6Cryzz/529TyTO3VBT1ADCHIUycngdJx6s/PLEFiiB8MRmefylndesMYKfesLN8Of7lgD7ecLljB4hDRNhUBM1IhyGbqDzGmIPLax5wCIAxWetwh0wuU5YkqKiri66rxRsMNgjcqtK9gBQOnsTMVlRuQlD0nBSabeeLxZDgKLDcDedg4vR9/iST3iXR2hcE9elUcZ78Z52WLdx4tYNqEF0hFlyGlR50zrpPZpE1jC5kT7DvchsjU7KdGGyO+OBg+URKtgDu+nlN1cNQW4nE+yG7Wnh7FCPyT0V15DBUHDIbMzvdckRpBRbDdGrkxzCuiZ1MutAnFgJ2WNFzRefUfXRpore7EY72BQ+rxZMca7iuwK6bBq38LMLrBsrfhOGNU+S1VkiXP505276GjcZDSyfDY6mv4EJ/gKjzSjMVfA5FGNj//xHcViiHwv3qPtPL3rQy4j7Gkxq6PksGOV2ZsvW2qyDtXerf+FZF6/Z530R4PU61Es29udTfeMhxqtvKGXwMe5FE8EKS13hs1s1xo4IaDKR6Dy5Vzx7z/O4BR0u9GSwMpmhOeeKVPtzzMadgMFEjapleP+PDVxmYAp86o4cjr7KABWJAUIcow2udzAKdhpPDhCZ1SMKhGacAfOik3PaAEAZYvjfsW0Vw4sK8QoPTn858xg+feEg+X+c0+vfhY2ozzQ5hIC3gW/aOoYeXYMWSRaxtPkIAJxlAGO1ZvsurKQD1EbuI5u2aw3dXo3Ep0N9w7HWeoyLHUg9WDjNrFOEucFnuQ9ZX9Yz7qFDMymDben3MrT20P0JB+hF+V0Hbd2LmqoHeN+gDshmCxxNhmp26C5YcFcX7Jj3keIfRiwwmkz18SKYBmxwrta3fM5b5L8BmPxmNUDThv1ABcE/37+HSHwv3acs6GeAn0zwP04SIonbTqgrDg/2+Ey+C2gtzsNnz9ALcqtXlAl6EbaNrC5X1dPoxXXH+qxn6Bny4ikEQH0ODdnTAVt/zTtkvblLH1uq/1241GiU0ipeLs9oAZqojX7lGKkMj6CX0XmWot88snI51gJ2csXhPcRX9YP1xmr6ofkVYWWEV/HPNExXxz4HFMbZ0wHOS7Qte8bAyYNSlxnZnPGiMrEmBhcHP8OBQStQ2nEZFC0AFSy2EE/1zXNQGwHidtYvMZpERsjXjwc6R/CzJ3dfxeltwE6GJ3i7bmytoc8kEwq6PfWcMYDzHnGtfcYvd13HdeUyA1W2BeiEX58MMLNA/fwER7/PK/pKBnlkulEdQBN4HdnFhcbgQwfXHAMfsOpkYhAEteb6qriqsFyIyrZxpNkSGHkvS3RlSsnbsr3pvhrk6do2aw/nElBlhY79dtKEFSyxSMPlq7/HGhenYzuTGgXg7xHidxvr8PezrLwekKdR44cs8EvihmVzharC1j3rIuzK+hSBXQpjScEKvQzf+/rcC/3K/S6QzUi95foukxcRPvfQWRunfGPiyzTAhFkuT28BujETON2QDlOpUeB9nQLvBwysEghPbrgCCAUYxUfdR/YAR0Vca1RcHvkkADGAj0HnUrwvwMZtLUpu2i0LLumDuAvjwiTK1hnkHBrCQgCf50JkFQh1mNUg0sbazkOrdmURkZ09UwCf1xMgAmB77E2Aer1hlpS5WJd5XcfqvbGFo3brSXtcxVjjnnspLDSIWN/Hq6UDsujbAj16TFWdZLCaDFzq1jx3AWLey2MQ5Moc6NxavPJeyRieEvfmfbp6vQKmoJvBjGMyyG1n21y3lnAx8bXFGHdhcAKkYKj4LJgW2aQ1mLpGqn1EHs8f2bk9nedgksnuKzgz1zfTw2WKP92/n/7t7o+oOZYjtPEjXGM+Blw+J5zvY3wFrYQnED7vEuzPmz625PbgYl5g8Wo8glEpH8Hwf8B5fXmDYldL3wKEw0xk18KxP2/1Aid6z3elSyeiNFMHFR7J0t6eGtaW9QmVyykt4IAnEA4arYi2T+lLRWBTJWktNkuIhb1liIy12Fbdl2DoKjtQT6YYrZuDVc0EKvWLWpHVKR2ujF7fy5gEXcVX9/Px7JruCi/hTkRDEyyod9shNlkdn7o817DuYtldoYi8IVn6O2pJ7EGsHeDcRiJYTU0dnvcg63M1qkP/Pl9jje8zksmGDwCgXf1PBL8AwczQbDDBMBhb67cAR9tBkPN33gtKvtfKbV+LVz7L3gL4eR8t5X7RJgz32M+jqZsTOFu6V0DSrWWR+Vxek33YV87heeO4fJYtxmeZIvWgEYMt/PTdzP30l3t3AY9FrOKrHCpHgJhM9T8QzqceTgttMDnO9LYt3qcWamOWjU55iMvP/NqPJLsl5dvOv48JxFht+165PLsFKuqbnEFt2HI5uQUccrIWnWct8O0AV1dnvriRPgt6Wx8Dx2kGZh6g/AUAZV7BDN2fTmnCTWtUrEU243kAzJq9Lra/FtXscOy2hts1EHc2WQcPyDTDsbb3iHMlddN+G0CK4+9W3TKSMD+Y3uzqj6x3yOT8Q1RP8xzq+LzOYYoK9YdubyzSOuUKapTz5D5cZGAh1gtF0Q949b1gwzZeS7CiYEZ+1wIgf3dhmwDCOE7e5+j+tp1tJqhkEVnwBcz5HEYj9lZd2OEs0jqv28f52dlvVf6rbRUk+cTx8jXk6xWUWeP6imeQX30KO7JJROEd1BGzhMx9df8uIHgn/Zm1YblQzjkNu7qMe8oviGt2VaTVOPK6l9yiTqCPz+w95lY48h3f6GCtP+MEccy16krEeiut1GH9TSZZ+2TWlT7er3x3cguUVuOT2+WJb2MgMiB7iOntJbbXCmiKkOaIGya8yaSZDuAm/n4xomN0ZhEvV3ZjUDOoFEW16i3A2NTdbZOv0IHq5g50QcttfK9hQ32ezNH3zX0TF5Cvb6uL6m8X0urKwzS7cRsRbzZC//RzVDwWTEf7jc/9NBhrjZTxvbi1qJvsQQTuxvnW83B1h4NLBhrgwncZ1ByF/p4BLN4DTL4G4Pjq74JP8V6Aim2OgGTr97wdUMtu3u8+FiGl2kg/EffusbwCXwVL24OVQwZ7bH0WHB8Dttuyen5f/Q0g9vi5zWWwRgBhdSbyxUQWP87NEJExS/GnOcqhoisl+a1ZozU+aBj5DUkd1Ltp2fX8b2LxuSi+Z1/S3B6qFJxEjl+SbaMecpxqiFPcg5lr9O1c3iQccOtiGumYClXKm7iPd+2cJRCe4Yk5O9sJTaXVjTWwv7uKA6v1hCeJkiDuFx+5XUXUPUpjtqZyO3SwwmBT2Siixdj0SX2UcZRlKSKrs1MUVTzVmCIQCmbqwYxksRKe4vTqBqm5tu+T32k79S5UAMQZyl3+GO48WxzH6AIBb6iV1Vgw1K1H1hrgKqq0hlIxpDJbyCwtD7LH4CIwHf0uAO8QeAoAFMQFpxYgAUJBZVpsTdA6CDA8sr3t4nb8jd9pBwe+gKZqwfM6wMVmWeJjILQ99wA2XGoKYxNA517BPrmODIIcJXSLOB2zrTrWZVLlP4IJ3nr0gNdFjCSbyfIAUzApnZQ/QC/4K6re/ZJVYdJzvu7F0DyZ6zoxz6bu2sK9yXZxkuqhf/Tjb2iGG9/73LxCV0F7DNce/QsFRdUtxsQbDuqzR+Hxum/lnTxfCYTPeGwOrxiirQGr1XZkQEATdGBb6AZ1V9iFDSpiuvXjxdkdlxFWBMEQjYcRo7U0a6RQt2eyBgFLsKsCgkZlmME6Z7tZSh3L34cjtyLwQuNHEho8IK3VHcQeIksYHOM4civq2ul97SN8TVAUdAVA9YNmoVafKCvVOh2si3fxOb5jUDGqYuXiM9MqvmuBXABei+098T6DWjCzADg/u50gmMGuYHH5ld+jnfJ2jxlm/j5E7NjPfVlbx5AhCWyL60uwO40DK0wCRrfAwtmO2+CF1mc7maC+gTqF19lmZaNORh+ytwCA6gJrtJthch/XxogbHiZ+eCREzKwPfP0gqNrBBBX6Bd5aXYp8hOsA2g7XKhCOYrySqZr09RK+iY+NTqgTeGiWO1BXaDzyJpPEGq5QRTgorVIuZ2iBEgif0UiyOmfZTaJKNumoKt8vDA8S10lGaRiKzE1RNrOr1uBtgaGgKBDqkH1wACAxmwucsjWzDTuv35z9V5K3/ioNAqoRjhaiK3Z9FsViwdUQvnAjIRGoYNlNJpNa32iAnyDqOkBEhyK6eQ49jgNIlx2vzff5c+u7OLPIJzAKiLzlfPkVUAks8LW1xv3kezsUhwuxN8DP7QQ2t8kgmAHu8XfFb4dgGPsd/d33Rz5zvILtuS8tGSzaxBbei/HPKw3ivcnMonVd4As2zvMyekMwNPfjNmuT1UzaoxgXZE8CylVinG8MYGEFYLS+GhtsW7zuJfeblOYwaj1QrB3sTruUOe4hW1En3+0hvq9hCFlZr5PQYgepAU8Fnv8gE6GtbVtoNDG8T+POgW5BSBL2HaWOcjm9BaK30kR6IJRAeHo7xS8CUQMQ1BVllVKSFIBOV8fHYHjdaRb3C/V4wkghTjlkHcIuDiv1e3uU6vQ47TAz3V90vv7lpf+YblLF7I/3/h5DxjD59r4MkDPXoUYVAWwHUXsHX7c1Smqq39NKfWXs4/Th1K9DBNYAcsj8cM3RPcfIFXWAJjkoQFBkKwZ5HngBez8d9gJfXDtg1mJlIXa2vsvszDsT7KRgxWvrfmOf1rEPzxnDlcYotn0MdsH+jp7vEFwzAMc+HFOrr+e2ap2GpArqCTPHmPrrzjy6UsBwjdyHRWSKz0BQzCJ3SoMwwClER+uJfES0iEYRU1wpbhrxoZhcAJJ39zoXjUYK+HcA81ttO2nk+jWKUVXTdPXHVNl5RCow6rn8UE+//3oetrfDgK0gylPYCf9GbjL6neKyReSNW24jqWyDPqm3gS5I5XJ6C0C4AUECF/BiK4Hw9HbKgwkgM6xudZPoi611rL77ANkQPmxdKN+XYYoU7oExCn5WUHPYq6PKi1ZRWKPuJ87OdFxBSV2eRXk2dlY55mJ05ghlg+2oJ5TVZcdrGUA1AHBskMSk7HOBML4LZLiR/blNBj0BQlcPw/h8zTpH2UKG48x0MtPzm/y5eMnX2oLvACPeByNTt5lBqBBhC+aXgVLA9JYycAlA8ZkDxsQQLCvvH1DstrFNtBLNoVU9W9ZlLxp7VAnsIgJrUVeHap3kbdp3m9cG6bE2KA5fJK59RLF0S6NumCIM1uddKSoa1aH/nzWFZUpaVS+Q0/A6ccMXYINaWtW3mUlbAGy1Rm6G1/x3GwPchol1O/FZxDWqawC/zu62NIrqpfegwfXvYNihzssQOmPE+78uzwUImg7MKcVkEuoJ9WjQitzZDgNWrG4lxHjNt/NOnQ5BjbyTOOfXS0b41Acnq3BgWrB9Bb3LOuUl+7oQsWAUm9sdDNAFGOFy6PBMh2VOOIe6wOeiDi6AEDANB+EWg7KMp/q760QAqNPzHDPLt8MfsUqKraKso0Cg7vDa+Bcwxs95/SwA0PMo/rptMEJeTT1/CHwBOHEFcR1H/whULvHSAoEMeoIToNTm6vUX7xlugqOszOtvgV5+9R4BPa0antODHq4tI4zncJv4XQaTNwnmrEEAU7LO0hZD0hCyCZOpA3bL9SUAYCktA3TL6AQX45WiVrDy0A1iUMiRORybkyraaiwwC4zZnbUEf4RDtOzpAqAyhh7N8LZD8PO6uNw3utCWGxjeVmtkqYbdXyKo4QCdZjvFojoB636MagP9W+nS6Hb6YLqRfri/lf704BH3RaYZmKQ1XgRCfTKjZEAAITppqwoaOcTkYh9+U2z3jbbtGU6+t2Xdbp4Bdb4ry0skEkCHbJqn3EXPcIRzsongZYdSR7eGaCwj2dmtsjqI2tET8redjMyApGJqN3rDEIUBPpdiqMl6THLQQVxxrnzH0KXzmqBhcrCdGNEZlP9zkfJfv0EBcATfPxmf+sTLox8TQ3oVA80UYW09wfw8jkYQDTWywICDQKI49eEfv/JcMRgANP0RDbGTxeaVe+JzsC9e/S1ccRhMArrbB5uFyQmYgkcGQY+pQ7T+j3lVbA0HbQBJlmIstBE1OjLLEOPyGPy+t223SeW1SSboOkxbVrcJAG4SOyvQbfC93zVMLMAqM9wDKNvQBQ5wnqqsTp0r4m0URkJPZrboAURGCyi5mt3F0gEmN5UBCphvy+JE4CTww/JCul2fT7XLl4ilHqA+CvdJn1trG0idZN/xijfITK5v4AplBBaoo2JRLMX+0Im2bkhglAEPkL3HOPFwvWJSCakBsbnoi2/L/b8V15Hn/khFWVlcZObYINh/18H005Cgt+KC38BFBGMJIKQkI51QIFRc2yFB6iZ0uooT+mCPIERh88Z8AJTW4MZBPTUBENlgjHwaW/hxlu4gJZegFcOR7/Xpk/0pegtKMyu30xx5/wQl0/yb0usCZRwnKA0gaHbC/BSdXbUsCzLZCHFyAwk8gqAO84LSXkvc1TF7fRe9GmK5CRfWG8Qic4+uKtm3ACGvx0lA1qVjtn0m2EXrVAKrwKfobuidejsNGVXA2ezT2arNZ0XQAEOiQlrMUgZj8oV1XYJgfgsUfVridRU/OCcbDRy2WcFmdGy2BnIYBRjs5vELsOPVZKjWBBnDly5eEYMVjTUcRIwwF+5xvP63aeGSAML9dIuCXL+n3X83NBiGm9UlQIzCUSudU6m6V6MLtdFGdYp5zZAQAws4lvAGySvCz7C4L44l07VNBiuNtM5EohTjBG40keqTPAu9TS3wdl1LpUm+O7S1jtZyOdYC6q2CERKqZqeS1ZlWaW5tA8ZWSWOIXQ3S6M+v/5jdXzBUyK4CBDlWMWP7mhkhlkBHQIuYKBJ7/LuL30XOPyNJPOfk0FVS/l/BYftSRK0MdI2Eu012g8kAmGd4jnVsKcDP7DS4eCM+bTGAFgEaHK9hriubKN2367CsrEyPeN+4II+IozhFofo7RjiqF4lY1XoXb3wvuBavgqGrjE82GJ9brJDP6vbM4biIX9tqayLR6dxjeF71fiaWkAFuybb5rIjbD7BpDHCVzcUK4+t3DQYoC7Q0psWTyHzdWmWIJjH1TiLLN9fJQ3jrQNDLsg1UZezA8tZWltP9B/ejtasDxHf39aZ7qAB+WEY3TSnPOSoBbrT1J3Ldpr5+Jp9I3fX42XuH3rtqgDVCIR9tzTO5LYbjfh/66F7CK31m5XJ6C1T2BELMxy01z+lbnrdfaBYHq7n7ZEmyNkXcJm01v6bIgUM1/mdzq03iVe8AXNdhe9lYgUAYgFYMQV8FwkroxDJbdBBEFmgA4i7B8l/P/DPHJL0STtrjgxcjg8ggztq622gJDitwMMCndGl/QvQ8wLK9h65vex99285SmiH87s78d4SX3cNv8X4YFkyJpXW6G2fwGCycx9ewWuvCA+DkGiMCXBblC/E2roDz5EVxmffxObM4Cz8FyDcBXXz3Hi3NIPbfYTKBbQJ4RbvE5XIQj+s5ugBUwW8EF5fsNzeIawuxtIi4JjkVBNUBFrrAIgzupBb5OYkSWjf0Wl5i2uHC20mztlffSHMzDwmdbEuXL1wiK1sXdZQJmZufTTNEw1DlIXVTx7mrj9rI6LU6Td/t4o3T9M6ttst1XIIsEv8H6kg3cKFZpJRE9Ccm1DItV7TYqX9Kq/EpTeNgVY+lSGv+PlNnWWlNR+gFfLpG+nfTtbHxtEby0vrWLOsig7weLFDR1egHs6dER41jGenQ4DNhUYCPx3mwfCuY4I/UnhA8ZIEfTPwiXRz6kCzPE4Ag4V6AYOEMnXv+CRfMgNC/8QCr4/a+DsSzJBa4Sbbl2xhh7gTTEngVxa+OfE7yVFgCx1aU1fCS9YxZrO3gO63OMjz3cazJXmJtvY+bAvgCAEOUUCGvYYmoD1jg4tos6e5v49ZioScKuwOAGzDQnIsws0zBz8GrT5xxvvr2FRbdKJUJ6Mn0dAlRzA1DhyI2+wmaoXfkCry+d3Xx2j8dGiV+fD99RcjfV1//NZjhIE7Tgzh8d/VTMW/gRurtp8DVUC3dJ2nsLbLmhMWb5xOGJvqWU5Ki8SBtOYmK4GJvb1rCD3ERNYsO93uj6KdlymxTLie3QAmEJ7RL6JTonBo+zN4iEO4BiCP9Y7CmPkK0TNu/j7FkGBYH+CVKXG4vRuYXxRANGjKiQizzeBoePNbm3loAUj8+gfeXbqZ/vftfA0C1ImsQuTHxy/AzVBwWUNUpFgzq6KXGd63jhlFDt4mEbqi5FMkXbs78G1XYvk0zS3dhfbAqfBdHei6mS0MfRBIG9ZnqGAU7xXG9H/nDIsUozsSbQJoMepn55W3CYBJ7qUPE5QXgD70f+RofrTzAUdyC7xZEn+ce8P3jPhR7exFpBTVDFWV50zg0awWNynC8DqP36wcAXdTW5GdxUgvEJu/0H/V/lu1UnJ+9u0bpByJCFtGVDg6kyxcvp3H8VYcGqZHiWqulnf4VdIcUt2KyciLZk4W3npUTVy++p6PoTC/jKrTb2McA9xBXo8Xoi+oJSyA8vbuUQHhC2xTWYq1vgqAsh35HBIfRHIMwrAbCbxeDFAU+gHV17AZuH0vp99//H+mLi3+Xboz/IgCsnSSkMj2jTzzGGr6ICyi9BTeV2D8s/CWq4I2SwWaaYt0XKb4jYAmwMjU77mkQoJhuxMo6513bUfdn8gV1Q1i3MXYcULLz2uiX6ePJvw32pxuOFeRcdblxBMUxAEEXx1NmV7BAbtb7lW/5XX6vCOv7/JvMzL20Mq/THnOwvwdLP6DvvAUQPyADziMAHlcQwY976QP0RnFh0aChc/MULFD/Ph2bh1p6QHWAgqUWUZf4y/vWWI/v3rc/st4p2PB/mr4ajPhhYyOtMom2L2OgI8fgFhPHMo7k3QBcx3YzXSfcrgZDzlbjI61BO/kk9Z80YmZzn7yZ64uodFZiQldVUPLBI+117G0JhMcaxI+R7QWGYyywUSWKxQLAQDdlHAlnc4B3VQZw/zA1F+Faox+kb2a+hwX9AQPHdDg9O3zV6+2SacX3hnwZCH9/6btInNpFh77He5MuXB35NHwFJwHDWs/4IRM8fmnCkrpG14YGqITkXgAAQABJREFUHByy13cW09r2POIw5TUBWl1NEBwj/M70YCNcT+F47f6PAS8D2hG4a4GcGk5/i7+8AoB8LvSDAaAMub1onw0sz0sMuIdh8LmzcJPMLjcRhdfCBUSxdoSJQxcWAW8K9hfprhD7pmEt47BrjR6Cqu1b6PWK1+P3/z5+DpGfaoRmmtb/8Q6W8znAsI7lfGcLKybhde14JlTaN4Itj/VQ/5kJwzbK/2DOvmd10Y1mmoQgj8i7mEg0sbtHyYVg/O/zdPLiPaMEwhPa0AgHxViNGRY1EhgNV1PHNmxGj4EKIjJ6GGZs63hYNOf+ktZYHX8J+SIvoMkVTIAqu8RuAZhgIeSYZpNxVZ9m+vwKBZ1kgR9O/hqfwQvhaA3s/OSqgokBSDLLVSyCj9Z+oILebXCMDg5Y6Vw90X81VYdMtEDcKXpIE7r6Xv2Qi8cQJCP0jgET/wQ87q0AvqwXPAqEGaQEQldFYEsALNbnOP8dwBxdJDkQ5zDCrCCG1dEFwunChcWU92Z2uQTjMdHpiOwPZqNop4tLJ8zYa3KIFgM5LvQc/fHe5db6Q1Z6O0LPt4VrkZlonEJdionIOGMNRVrL9/FBLNptR6Merji2ocW/nFxqrP14DlDahe1CyRDHKv+c3AIlEJ7QLvrNyQIFwawfzECoSFkjA/AgxYsEuBVcHCrUGZ6qTeIYfRnH5+t04E1y3n0VRg7FUcPerKZm7GdkjEaU3AAATZxqQe7rRI2YgCFXwKsFSB2/JKAorsNgesVf0+/XAV0BuxqV8XAYxvihAUTLs9epTqiINQ6QA/Dy5yIJQwY/wfDw93gv4AnEDk/Zca52l7Nlr8V1r3INcxS1f8SqRXphfSaSwx6wbR9i2yQFnTR+KKK5GuWhc7O+gIpuAaocOw/zOM25/6MF3FWQs12OsuL8JJzIcjPZH462nQAog3xIfxRAdTdyf7PRdOI/Wux/7hv5KQ1QAuEJjVPo9J4EQkO48NwnQcJU7RKsbJWaF48AHowibb2Itl/CGIfTXx/8a/qWWsCm77fwtkDlIguUyWVLrSLzNuB5Jf3u2v+UPpr8TaTmEqiOL3Z6gWoNtvUdovcSujeBVCfrG4BojjGGWTGItC6rf/ScWptlmwJitgLLvjLAxcDgj8d2KdimfNFtMhBmcUsAt97JfVx87lIc6MHS91HU3mL3MuYmeRg1DCmuq+uTBZrk9N9NXopML0Z7GGXiIPe4IWJzzqMDOS6i/HPYAj4V2+no8uSno79kgFzDH/MfH90jTdsWFfjG8R4g7JBn30kfKJ77k3uVn462QAmER1uj9V6dimBY6OMUQiJULKI6qNdbJfyJ9EjtsL19SnBu41Td0zlGTGgNUfFeepDuwZwWER9nYI8jwEsH4IU+D0OGhhZF7AtYb401/mT6byKKROPIUfHQsDbPrygsIAtGAo61hCsViqcjopt6S+AT6OzsrhHiFkkXWm4xrd+EPY8pk9U/UjZZGHI8j2FdOnfnCnvUO+a8O0TSqNc0v51i8AzF7M2uvUQ4oOoC7bqKt4LdCK5Flq/8hPjeTxmIH8AENQTo6vIuLT4DBckCePIk8frvoDj/s84sXuo6I9u20Lz61kXCFBsY8vaRVjoqOGKr+ji8o2cd8Xz+XgLhic9d6GuBBuDhsJCtWaC9wwQHZP2ttHXjfKzHfhWDx06UURzstobJJfSDDwP0HizfRE/46wArLbkCoaFPptO6MHEjfTL1N1icPwtWdxQEvSQBS6OM4XsWZBKgZKPj1Ysc03T7XbBLVsDYsLbwB5T9AUxe62MWwJ0IfLK2I2Cnn2PEGAOylg0wNnUdw4cRCatEggjkht9Z/1jwbuADWehLVR3I6Sqcpw/dls7PZni28tuntfHI+KLvnyDyri1EVof+LQCQ6+8AGLmRt/Y2BDhDGM1Q/T9evJG+JyXZ38/cSfPkDmgjNr0Nn9FI//aOTUivu8FLIDyhxRXb7P/F4jjIYp2DWx83mA6ip5EYxvxuID5W8dXroZ7JcB9W4+EPo4rczMqP4dCqmJrLZvYHuAyiZ9TFZgLRWACjLx+ywYBggEZGpvgpYOnkTJWtOIbZp03TFUkXuJaCEXqtZmc2aYP7aPHeAbzya06wEL5++EPqE2lFPPV/rvt+jhUncHwie7pMvwXTPMDgwoSwAZBqIPGaBEDFtgGYqa4w12F+hnaZ6cWsz7rI6Cj99kKHLXX6Yghlg0lDliXACOjVtxgIvRPbWtVDROWEQaonbRPD3gEQ9qqnjknp3WLmpz+hV/NLCYRnaFdnXfVngp4MMPFaaQcISZOkctrY3R7rkGCxGwEIdSwOERLReKn+EeCY65QIgOoKaz1jURTeDDMCn/8PFxBYUXUbH8bGLoWbiBDox2VCfY8s0HC7nHzV9zn5guxPwNsCBFe3iOs1tpdVK666RY00AlmAnyVB8W00wJyxA5Ci+8SC26Uhg8iEfoCsp1rDD7GWthtNaqWsRRosVQUrGGtcFHfN9PwxSU7VBX6G64eg2A1YvyoAPO24R5suLu4F/nisBpldTGwgsBjB4at5a972xfZxglIdMQY7TGkkHQxQvRDpw8nyXWTnr7PNSyA8Q2tnQdm0SYqsrOgFK0TA96Gja+K7Z7GcPmZeAUmfPaM2rB+8BaO7u/h1WtyYwfF6CCPLtQiz87d+s8ng2vJ4yb6GMjONEIqtduzQCQKCGmoMzQvRl4Gp/+Ej9HfLYUWej8+CnYlTTYKgP5lZZ8YG3aePlYHC99lnT1ZnWFz+TmNGhXyKnQwiI0DUadZxDVpocnwiYQRARWPbwfA3/d1+OzqdviTj83XYoC4xHuM0sHp8j8//TreQJuoJ8xU2AWNdSjyPYKwPnuwz7pWbEchUMbwIOOqovM1EtraDRb5jOxih4PKix33+O3++PbznXa69TtKFOaKetohAudh3IQ3SR7Px6/mOdy62dn7DxUhuUwLhKU/86KCmfwGAApUGFAYaxcZlaAKh1mP1aSPkDZTaGV5nCU1LfWpkuIOlVUvxb67+5wDHSLGFv6D+hx6jWBxogmCIs7jgaI3Nufx0gcgsMCJC3A7RzfyF6iB/BGh1zFaftwt4DuHaM9I/ilWZwvM4Z4/x3op7fURxdJOXrotV4PDYQodgGIDIH1N2me5+Z2c3zR4QpbKk0WSPYlHUwACc7Tdmd9Y38Lfj0+k3WIcza/qptbu4r5/7KpzZ7tu0uSxN9xCru+2iO3URBAUoRfRuQfwJIOZevJ+fcXKfQ5MZbxFHZsssG/0i0L8IuP6MyzjTLl6T1+ti/9zm2a3yvOab+A9ivBruvwgQDtMObz+jjZt43X8MlQII28gIXgLhCY1fDCCHkv80nDRxhl4FbNY2l9PkwFUGnyxN3y/ri1QiAkUrcU5mQI0M2J/GCUVkGeHNR/8GII2yX09so9tLIa5oGAl/PXRwAqViqOyywnE1fBwAviukVjIBrO4zi/WHnC/XRe5ErP1k+lPEdBgq4mofA6CXqJUePrt2E4Ug0zNvYDAnAMPn/xgo8kAKIIYFNbb20tp6g4wxK+khCRMWDNvjXB0wSKNDfknx8383cSldw02mm2O+bKuwV+OgFvTqpOVa2WHdphodQOjnOslZ1eFZ9U0M8Px9tIEJWXNmahg5wGUCAsVadX3PsxgDrQX2R1JfLXPeIdrPpcYEEAag5znYK9rWNvJ52Q7mJtyhfyzjxfAjeQvn90lKO/xlGhv+PDwLcpH3V3Qh7/hh4QToULkJwLBSrRJ0Lz0sRv87fnMv5/KBPwaQIFSIFRogDGPTmXg/lOn8pqc/wNYTpTk3SDbwAwaQq5FVWoaou8rt+b+EG819Ms2MYlT5YOJX4T4jEBaNrhU2W3TxyYMVyiwDgOnsurToxrJIAP2Dle9JpWVEyY+h0xPwxgY+oKDTdRyyL3Lecb6X8eWErZkttKIK4vl63BhGLSYh69JKirsQTEI3oPU6WUtWNilMtQwQouME/K3XPN7VFdbhXwCEvxu7cMjCPNrLXLweV8VTwU8QXCJs0KzMAqF+cquAo6tg6XZGW5jA4TJZW65hvDGOebKHTNZ8l0P4EPalvc9Y3EJRW6YpGHtui6bLTq/wmwkhZJ6qLJ59tGec7Dl/tp29Jl27lEpUF6zsUOFO4w4+g/Pb++mvGzxHVDMfj3yRLo58Euqao1LHc57yvd+cx5yYM1N7HxPm1FQXVkFml01CwDbe+3s/0w0KfocpqhBf9cPS4rqAG8vC2r20i+6vbX8YgeMAptBPrPAH6c7SrfSXub+kLy4dwPyyf5/V6T678Lewsa707aM/BKhZZ7jK+ngoKRI7oDcR+3DOZnF7DS6LsL+FtQeRmEEGyJb4JZLJePg/YIAhUwtJIAYwpBgDLSi6n2LQPgNDMM0L7+NjBsGAQQaR4GdOwqaMAlF4m0G1hRtQfZP44fpaJHN9BPPc2l2DFXXiHjOV/j1MUJ2grElgKc7QOtFLeZGpyuH0TRR0zEYt2Km7UzVhONkWbFBxeb0FjGuAooXR63z3B6rayeiMrjCrjVbtUZiyjNFmcH3aYhyG2WAu0c7GiT/cWE+PKBsqMzVTjBEzAuXLZsJek31CvD5+jd67AOjE4H2ac3CZ57W035nqB4CzSTr6sN7XhlIP6dvG8EbQRUt9crmcrQUqtSFSmi8j+kEi5CLloiWVSAgAUGNGlNakQ+lArC5wZYOklzuEt+0ChHxvjGiVZKqm2V/D6XkV3Z2scQAwNMnpZWZm952ByQkc+v6ZwNVFpoHcGyxQxqmILIs0q7Np843imIX9LSFaG2c63Deepsgvd2n0RrA/gVB2ohEkA5/H86gFRPEqYDHRhTN1vFosyaQJgAoAuMOAajDIGwTpbwCCpu1fJpPNAve5jDjeS45Ds6N8MTSe/ruJiyEediJyFmeIG3mJf7wTwVBmpijqcijGixIsMiMNJ5kxkvmG2iYzXPsDLNz3sJBv8nmeVfDQqm8Bd49hFmfF5actnkEAVszeZpIQBHVQ7qT9c+xvVhHUWszb9n/RxeelXlKWZwp+fRmDGXNg29ncyU2e3QbbrDNXLlM3Z3mvmuptWPYrQ4Aece14K6iXrtHv1CUX8eUvem3nZf9yyjjhSTuTaqAwblcrsD57WWQDOLDMrqILHIIJDmIpVgx1bE31T6TPJr8AYKhPO/tH8gr+IkLsLN1pAaaL+BZqCVZXJ1i5mLi18OXzVVFc5+c78xpAbgKCd90KsfcKabouU87zMnqfkWCAMktdeTwSYyS2C47WOrb5AuOfQIvY2yQTsqDn2qSQa5PvFIdlhNvmSSR56gogvoAI/qj+Y5rfuM+9bAGCg+lvJy4AJjlSxIGfr95zvtrl8DwB7o/P5bOQkRqXK7DJ9qZhcPozKs4+3FyP9RHZsR8CkHX0Z1qdLyE6C2CC4mmLv3lsQViXoF8NTwTQzlFO4NYKyS44tuL357gMWSzJ/Io+z8NrPe3AJ3zvVbifjG8R8X+BcyxhpFEPaoW6Xb0UeMq7qPL38BmtVKk/0jVKUafxVOseT6OdfMbVqZsYc31LnbSdwAt1zgmnLL86pQVKIDyhYTR+2KHM4GIHyyn4iaJAF4hHCrn2HqRBxC31T51tzL501lESDbTD1O4s30OcvYu1djrcaBSDBUPZnKnqFX9kfg6BPUDKiBFFY78z5dfKxkL6fu7Pkb3a806Qtv/q6CfofG5wTKvYEWIHO8lDyItnKDGQOCzvsgiVI0nUO2LlRqzchvFtbVkbxEpxm3zOdYI1AO2ggzRiZLNJQgUY4HJjNs1vPmS/dYCmDVGwHz9BmCh6N11kBKHXvRye8ci5bcccw5ytx0PgkSU7zdxiLWOdi79ZXYQp1tM9ikRJmhXpZZqKvqcxOb/Xt1IG6POttA8GKApWS5QZWNneTneTOf72AyjNqGMiWcVxDTPu6yLIuRxee+tdfOaP1nBFfvWfyzyfOhUO64i6Gwe+NtNGRPw0ooi9xpBdelk3yv2+HsIZ20aw3uMvCDAOmeWIPurE+Pisceryz3O0QAmEJzSW+p8QjXGFcZaVIXYh0k7ioFrD7cVKc30A0kU+Kx7buWtabavTgORserRLlThC45Y3RuioEzAQj2dIXCNAT/bnPorMhZVYgHm0cif9CBu8OftvgNMGCRn+S/p0+ndktfkodD5WizMTsQwwZ4i262cXGIvOAK0hYm2hQ9rcIDKFwkAN9H4WapLxRQgdmbTNY7jRpGKdYiQAaDRKJKCFze5EEoUdwKQzQNAkCsawyqTeBAie8Hh+8pWgKNCZbaUKq75OmjTzHsrobq8tp69WFtKflmYjDZjgptGji+1OWjIQygrRE9PWXSTXLQrC62g9i8gt4/zr8nx8f4G2+RAmKmNWr9nTRpKDIwf2OefVv/m9or0AOIvY/S8LM+nbtTWsvJ+lEZJ01FCzDHBtO0gdO3ocbN8lLFMPAdypyFNYWZtLI0yWo/SzDyZ3Qt8c2b+ZuDPRPXr2OGX55wwtUALhCY3UBmNASwgr0O9OMMQVg45WDZG5A985XFKY+HcwmnQyAhWd/c1VQByCLTaI250lSYH7me9Pvz2XcJbGTUZQkQVa1W1rF6ZGrK+prdQJdnO+CRKq3iAO+TIlPXXQjhk/cg+Kggwo2GRYe1v6Pq3LlhutU4R+nXRM9Q18/xoMIEtzAqo7RKqYIsyaJoLd/gHhctRkbu/Yo8wob2UdHMOqd15XH2y4MA7IrjoB4bd5cfgr1gpkVdya+qj0RhPD0jrSGkaVWUDkPhZgM2B/TDigYCjQHYcNwURW5zH2AUEXv5NJykAFSIEsW6vRr8MM12F0szDPzbBSkxgDNik7FPp2eU7qKUPUVQJwZR+3N23W14D0TYBwrWMp1duHU42a2YK6dWfWiQqyvySeV5VCDAlvhQMmq40N6k0z2bZhXNvAx9Oyr4ZrmvbtSSf9uPzyzyktIKHg0aAuIm7+lG3O9dehYxHYALEAQkRiGZ1AY/e+OnQhjfYO85l8hIBTPywRn5ro+CPoDrcHJtO99TnEqFUsyNY5IeqEfw4go00URQUbVy3FJjxYZoZXJ6ih5ZOpX5Oa65cA4S9IBDsRrNMR245crtMzKI3eD+BiUDVgf43NbSy96PjwfVuCRaxuWjBpFhF4gQe9BGoSr0x22AoAXuVe+gHqjsogBxwJHVSTAba+tZZmsIgvwzaMUBlB//URIXQX0b0pSqo3e1cWAdClhogc4jxP5hbJCL5DxyerMzomW34JCTx2X8Eu2bcAfp+ZYKehpFexmvC1MUD089oYfny71KBBb8xoerC+zgTZCBFZP0YTzypOK6pr1dairbuP+0RJWJiljHAGq/QmbG8eC73isPHiewBfE5ZOsjbE7o40ALB2d+ah6gS6tQ+jry+nr9fvoY/+c/ry8n9Ku9O7SA4fRz89fk/RGOWfn7QAQxYQJAk4bVrZozwlrzGIf7LlOf4ii1sZDKPOB2KyYWYaPEw5JevbBkD2YVAJ3U6CeTCXp37qS4wRybFgdTsLGRH90U1dE/WAtrIzuCm51A3uA4Lq84wKmQOE2gDGsb6xdG34erqOTrDGoEMVRGgzKvOgbWSoxuhhDPAW9Su2tvAjg/nldRYGOJcOCIvrISyut0Km6Krhdhh0EOM7SApRxfBTJWNOB4kbOmB8behCLSGpn+LC+iNEZBLR4qbTDWiaSNUkCiPo3U7Tp73t3UNWJuBZHU9Ak7npgPzj+krck+JsYZk+ei8CSegJmXEEHu9fFqde0Gw0gmsvz7IbAOwG2GSHuvVouOnknBJ3K8x5Tt87kbRVcxywIYMCZA2/TC3TlipdwECyBSfZOWjwTPZgdQf4APbgG1mNou3qH7V4u7ArwJldhR5a8B1muLh6M/2AFGF2IhP06vpVGkyOPtGT3+83IRMNI3IAQlGRZ1Mi4fG2koHRsc0OY7SI2WM2EWFNbjAIsNRYF5nJDxBtD5jBEwxSq69MIBGWVaP27NLmFi4wXwM8NRyfLwUrND2/YNg0dpdRYgEls1XLBrs51zTW5yvDV9M0rLINJtDRsZM6qGkB9YSV4EbBMZeXEaXr6AE3m+gkZ3C2vo9o/T1i00ya7EKJ39XGAKIGbg/RHz0XUoW1g7Wd6xAED0glllgNIdPFpLG1HhX17lL+cw1Xna6Og8gqLYBoGX2XGYbirwkiFIm3sZLfAQTVGwpSlg84CQjtCjJg1RntRh3wGmAH8Mn+1MYKSBpUzABtES8+Strzyr5+oeDt8YvkDSa38Fhek8eRLS5gvJIZ3ua65nnfg7fCCIxSC/cEpTllr2b19lwe3/O6n5blbxCrv1vlfup30vccTzWKHgrhOsP9lsvTW8DYhd0NgHATIFxcREdVZ8Zr2nBl4x1tOoFN8TgKnwOGi7I5okNkcx0kNxD0BEtoWPRQDRdqlboZHJcGJphgdtOf5m9FHRN1gE1YYSRrJdTOPH8VBgm8IUTRBgkUpkauIXZfwRm4l8GyB1YxGCWb7aTXAvRWVxtpfQ0xq86KLtDEC12A35WuudTXu49er0aqfBT87t81mTrwL2vvIicdbhbtiMJtDLI2DngAaB/ABmPhmvYPTPeFyAYzhCNibKilK/21GIDvkkh89NkdfS+j09/zCvelpV7r7wZAsoj+VE2DBhQlgOOLE4DP1zRcvpcJdsHMPYbMTjD1vaAnOOYjuC3PDCCq8EZm6Sr4xXu/47d8LPWOuv90RvjiBs7Sfm/Rq+yaQ+o1+ogGIOs4e3wBV1D0e8sgeJ7V3TlcfObTLZz2/d36N7LDcnlGC9hYPj7WysICsLjOzNd8dSmUnnE5b+XPdjvFCw0mfdQW6ekcDFZQBwhVYLeRyqqoL3EA4NlFLbIekQl09ksD43T4lP5IfeHZZZgWSVlVzlrhbRTHV1Pgd2NYUfSSHSqSDlkICl/B/mBhTXzGuIqqDtBE/hBHOnd/CadnDBroBzd2ZtEpzaQLgOCl3hXAayhN9E6iUu9IWx2jaaPrEzKQXEzN6higl30XHaoHjlJfW8NKPaUg2EB3tkkiWILLGGBDhKvVuHfTjrmtPebdXjRgyLKMTrmJW42xyjKwHFJn9NDJ9yeIugpYMW54XoJgGEA4htUJZepB1Xxtba+Rpgv9nsAWRplodzfIS3FMQW8UQfvGQD6P4Op57BentXrFyY5nc4VrEhR/XF+GVS6l7x/9czhfTw/fKIGwaOgzvrZowRm3PmebyQgVjbXGmRa/AqvYgknMo/9TT1jrRh8TzEpYQY8HOMa8Taf3G+Nffzv1WViZby4/SHOk7LLK2xLirKKwafw7OabMoUbW6Vi7UbRTzazawxHa0D010CGuNdLaMhlpcLloRwzvaWty7nrq6m3gVEvECSDdRRTLFj5v24DgdmU87XYMcQ0wVrZn6PLkGOkORuRhwbBNuZhFsV4QtjzoAczWBAZmnB5HvPe6Th+Osfu79QdwUddmmJxRKQs4XDuZea9OevHsTrmjApQK/aFeewJcYVk+/J3vPU7eLrO/aPdTjlt8LZgKfi5PA8HYgD8+PcHZPqYj+QZi/9eI/Cbk2GKS1TUrZxjKz7nYr3w9uQVKIDy5XeJbO3MAIYzQ+GEzTZuA4FF9Po1jTTUOtmAKdF/+2Z0z2DgYdOH4fOyDYAWPMEY8EHAwlCzjGvEQlmj8co0wOUWvEUC1hvJ8ACV6Zw9iFLo+DSnbDZI9LOESs4IPoqITCvUe/BFHuzbSeOdWGAN6cPHZpT7FFoaRreqF1AQI99p7uRQSR6jD5FoOeI9MHJfXRixyfMfVHuDKswVL9bp0x9A5eAoFvrWIFeXet0WR8gJGqIeoA/QJVASV4WlY4TE8c3ET1QUdMLEcKPnMXc60wVnA7/iBBOJe+pgT1zzuQX9anKFvzaPiMIORlRd93me4qeMHPoefSyB8ykPPszoGECJDBskxaA7BBiFb98jKomX4KnpADRqgiv+BmwwwgTa8V18o45gmQcJvJj8JhvWXuVthLLmF0/Q2xpe29o/Q93SkC4jSNZTjVQrRVjBWmEW6qWV4g3ohddkgrjt8N1DZTJPd1D3BVcO6te2Ac7OjL+1UJwDAMQCwv8X4ZKcthhEgmI0tkg4zaYcPIsqRbdhDnRjpLXSUPRhvNPIorulH1yIoT2mhd+snW0Nw1wqrSKmlVyuyxge/P83J+m29S63PGnHMyGNSCC3bXQCf/bbog2/rtb9t11UC4TOeiOKxOkLrGftaJyHBA3wEp8n2oStNH6FRLhkE87uiE4a+EEAxdfqno1fZXrF6idl7PULoVNSbL3CK2KnpwXFYJ06+HK4DhbwsZZvIkC2AdxsR7gCn4K52ROLqBlZQ9Isdu8E0mx29aadjGDAchRUOp/1WQgcjVPG6bUFh6IRDuR8Kfo4dVfpw/9nCf3ATINzGAbwPAK6huJc1qdDXEJChNG7xvfgj4PW0gFDgEEgEwiL07l25SZ+Lz9LVviIoGuWkBGOfVQdZLmdvgRIIn9FWWg21Gg+R7dn0+rMYHuY2V9McgLZJbLBhVTn/H7BH7zSK2M6Z/biy3qkLxJtAlL5O1ui5kSvpgJKfd9ZmozymER+jl3+ZLoxf4vj4+wGC7VikdXnfwk+sQcr8PfSSXW2NNFzdTDWYYBcZYezsBuI3O2oYREazSwyiuaxRlxxF35y7rhVzDCjqB+d3XF4eQAD5Ftlmtogv3m8u4bhrqKB1UOCSbPS+gaCP2nvTcKIRQ6gQREzppb9h5Gx3o3dg8doV502OO4aOc7q3hpN/M3WjzzYeXVDMzPAduJm34BJLIHzGQ0D4jOgSDSbGDfcAitYJWYZJLQEiZj7R3cXYX5c2UUYQCX0cPJFXJNhQak/QWa8OTqZF9ruz9pBUW8tEiBDSdoECT3TmniqDE7eZYJewlO0GVehYD2CSXe3b5AXcRBzeAXgBM4pH7SES73X0wwJx7w3xVxDMufsUf6O0AKxPy6bJFwoglB8Klk3E4l1SizVxvUgUiupHLBfY1YG9jyDo8xEItYbLADuZTJy0jPgYYOJ5G5Yn2z1/ii7FxQl+gpuvLr7PYEg6OJ6boZkywtwFecaxbbF13qf8e3ILlEB4crscfmtnM+mCWWjGyQQzunohza3ew32FFE/r85EAVPDAvBH7iIeCIcJKKA4jzpjfOEz4HU7gxDtGMtVewt0UyQQubI8wFC2Mut8AhBzjAABrkukkdIP4+nUBgH2sXcQGOxT2cIje7Riks+NoyBIsEHAT/AyZ24FFmn1GBliwQOOThbh9jDSm2Dqg4t0Bov7BzlJYl3sBVnWa8lgH0/u4eG8FeOg/qHrCWGTD4oJBceNv6tY9r8DsvwK+iu8szOQEFQ5NvHofLsAduk7cnwBz/VQPcPI3i5HhoN0xQRdHis3LP6e0QAmEpzTM0a8dIBZlmhy8nOZZb8/9KcKcHmg9Rv93sQ+HZUSU3D0FMzu0IAQrQ8w1zlcRW6PIOEYWDS2yyD1caXbU02Hl24Sddezhe6Ytkt5vOYA9rMQHAFoVd5lO9IOCICpHwA+3Z4BQJrgPq9GPUbZXgKBA2GRg5ELsiMsc0FXQBWGJr9xA50g68p2V1EYG6kSYoGCsI7j6waxfelNwcLTlX81778/7NF2XscK60ZjFOp6buPEGbt1Tmmx2zdhxnl0UqXJi5HpM1KDfo76J3eiAjXn2+v1ex/BlkmnUU4PPhIAyqT00rJP+OjV0FfcsQyS9s3J5WguUQPi01jnymxloJqlHsjD0MOI5t7bmYIQLpKjCUAHD0ufOPIYCjmNJFqaxoSlI8VsneebMVKM+RyAc4nUDAKybgxD3lTmSHVT7CIujqLpi7Z5AyNqG+0tnhyCoXpBj06lzZEhnsEKwFoDDyRpWIwtsMrAFxMz+AE7Ar4I/IikAAvD2YQz7+AzuEFanZTp8HzmIYG9mZrNP8/a9XwSScXw375MB5h5ptabxLfS+g42/gbt30jQZg1m2ZzGmGUJ3wATaRU2hbfrQOgl1u2H/fahEJlvuTetss4ZqhfJaabWdiKc2EnpsPUzf4VhtPzG6xJyWTtLc2Ru4q3fnlCUQnvFZKR73YzUepRSn2aYXVwjVIkRLfd86oIIXCzq+nuhudjkjFezcOxHCBrCh+8s57ogDxl/wKlZigXCWqnge4y46w4FafxrdxxFap2fFZgaA1t+qQCarZJTKBg/aumGCmTkKloJfE/ZoGq0DzteBP6DAV2UfQ/V8j2kFloGoTfqtqivHFKgVlQUATQeKjF7jYy3UGRvnHdrMZ+Oq/6eisTkMfU4mZDCJq9/1AhyvkxQqCssGLUj1A07RMzD13n6yGvWjn+7DEszv7ThMt/F825gkV+kXDdKp7ZNUY5/QyqE+J7He1DmyT07LlOaX7uKVMEptmxuh1tHjIcT+d+g5ve5LLYHwjC2ueGFpxBEyAn8w8WWwq/vzf0yLANkK4XOKver9iiWiMhhxApW6wB0Gnmn6tfKZuebjoSkyQa+krxBpFzjG7eX76eL4JNtPAXSwPkQhU/mbkaYqmCFiC1oHYS3uQZDl0QFkGlvUBwmGnqsddthJ9ZmeNoqTyyiQisKDkMG+3WZVmm0YJnpCwr+2yL7hIvTpVpKB8H2GwbjdQyA0VlyfyW4mF4Hwe1J1mYOxrxe9K+31usCQU4Ubz4rlANYW09zBSvr8EskXpslLOYJRh2vcP6Bk7BYx5w1E+aUGNXD2SOJaTSPDuF5NklptYCB9vlNLf/lhPf3v/8+jqJEzs/xj1M2JQk70qXI5vQVKIDy9bY79oujbFuF218d/QbaX1cjYoiPrfYwmBvXrL5i1cYJJNn440NTZCXpSL0PztDCPazQhIsCU/1uItffJPKxLzhrZiHtwfxAA24KxqePLLjUyGWHrAHFH95a9MHpkw4dsoQoT7AbsutEpdmFZrhL7rMWaUc2/DKS+V+luMSgHYDdgawr7JgUyvL/3HwZtD5f8PM28fYUY5AWMX/9KZIaMeIgYcBmj71/1Itg2edb3qRx4c30pNdpxlO/bT9MTlXR5mmQMw0ye5CK0QBeSM5NeIt5cQCRcsJc4+IH+NDJ5NfX0D6QdQji3EhPq9/QjMhQt1O9R5H0SXeE1nq0Gu9yDXvU9vYvHL4HwOZ+a4vGN8S+j0NEfOv7vtEoCTZOwTpIavv1gDJHVJtWCLBCS2QSQIU9CmgXk7PDAF24qPfh8keATXaHAaF5DnbTnNkgciluOQJUNL1qIMwgWukfD5kyikKNDBEHXHay+DZjgdhpohw3iixhFpVodX9Evgv9a40DACz86ULK3BYTbXJus8LwsNoWtrN+kPoQP59YpBTqTJngelgBVRO7QMvXKF8Xi/XSH7Nnfrs2nJmGTEyPt6fJkV7oKIxwcJNKnG1aIa5UGN3V/eiKYRd1Uam3kuqxM/Ca1d5NcY/U7YtkpO3rxQbrNBL0IEI5vXKV/oFph8nS/cjm5BTr+l//5f/3fCFJNbds0bqTiOnnD8tuiBTJrMqu0tT8EoiVSqo+SLOEKhY4UXwWyvGTDyR4gY2c0y4tRJcsWUcJosYlIqz+b36+SUMHM0V0MyhrK8B78wVaWCZ6nQ/dU9lhhAOq8UUZqLTY79S4AuosbjFbfXgCwD0frbsTeCuzhCXYXwIqY7j4MugBGwNGr1P1ig+MIlMat9gMM1ugwBO29XFrPxkgM29D7lxkLRhqLZIJmsXbxfaEueNltYUSLBhFzI/6Feiq3iD/fqKyn61e70pcf9aWPrjJRDuMb2E3ijwox42ByvnQ5ZLHyln7S0XcRIBwBGKuEbzbTygJp/te30twSdbB7ptOVsU/xLyyTtR5/htYS39zbIEM1KfGicVud4/iG5eeftoDihVk9asQe3xj/In0LI/yWBAoPqZSmrnAQh2utw+p0SC0dvbcHUJmE/W0iAv+wOocBhdyBJldAUX8No8kSiTnvoRt6sDqbBuZ70kVqagz09XByxVkgipEa/zi3/2IYwOT2sCi3oROswATNSNMf7jUMmmPPM2DZ62aV9elq4+JnK+LJiHTF8NgChMd/3xceUdy/bSDv0xJrJukfeY5fL88DOhogIAgYwWSHfvbfiyy2q5OQE5K+ixZw+np5LpjgRvta6hvZTR8CgL/8aCBNj3en/l6jQ4ozFuDH82d/DWouehWYNYiU46mtdyr1DdfT5anBdP/ecvoz0UIW6NKNSlVKuRxrAQkDmcN5yiQv7ulIu5sMN+S4sqmONdQpHx0Uht1dHP4giq/fXfw23Scu+P96+EP67fjl9BkDxzA5BVJTtTrbDMK0ptELbiHG3llfTPdWFyLoX9iZI8mqHXUOdqBR5uLgWEpDGDfwJzusT8y1yOF8SuoP9QnUqlxhEHRgAbaYlCDntZ20+K06L5merBCKypEYSPwzNZXgLAha//d9hsJoHdrIdra92snE46I7jU7VE7BjF2uJWNjdLN1TTGJTvX0AIpUIj7TvWcZLwCenyK5UGMY45sxGPd0HcB9QZqGBy0u1fzN9MdWerl4kJv1SJ477+JMyQE9e8lMLVqhfKNLAAck7DpAM2jqHSdoBgHbqE5oLdO3yezjUx9M++Yjn9VseZyK8Px2gIqr0YZ7XpWyHgUSzlssZW8DC7xMUXR9fu5KGcKlZ3HqUfj93PzINm+HZUKcODBbGr5LC4DDvnbO5IvGdtQWYIAWXyJYsU9SBdhl/NvWF38z+qAY9DW5TRJ79BSi8JlqLb4xacZYneStPrTPcZBzcpw2evKtZjrkqRHF0j27LcWVGWrIFwjXEdUW2OFfr9+Ks79OrreT9OzG4+l6x2LRWOlbbwncBqjnSdBl+F07OtMsodUR0ZnYyUWQONhn7wy6ZUFzc10nNKdC6JRkAc1r+DY4lAEYiVbKLz6NaGR3eS1OjB+nzq33ps6s9aWzMEgtcH30n54zkuD6LJ5ZWZ6DPRGINWSFuU+oPBXdVKZ2EZO6jN94PxpiliicOUX6gbAX1ZGD87bgfVQZrUOpVHhxSXAmEZ+8d6lx6SYg6SRnFjyZ/k76b+W/pNjU/rJZmmvsLffgc4rCrForYEoYFrhoo3yexFFfaL0aEyR/m76TfP7rNgGGgMEgcSwcA47/ev5nmV1bTL/o/SNfwAetC97O/j5EkjzI2ym41bTJCLNCdDurWQHzaHThY1Xs56JstZthO9mst2wLxEn6NFh6XETr0WsPtaYd8Z39zAhD4ghXSft6rztQmOrV9fF3mWTzEt/ArxNc/UH9YFcI0zHAS7wCLLsnyzd9o7HJOvJFB0IlGAF1lwpMBPuIYj6xYx8TXRJXRRpTQpfG29O8nK2mCyvSTuMhcHO9KYxhGuk24sS2w8cpzaeP4WUGoAH9sESC51jYmXQ0hB2ROT6hqwt9QkGREZ0h+n5/ksTb5mR8RjdtJ6Y5l8oR2/pnHPBe76Y7QiS/eaP9UujHxC4q+P8B14c/pwWYjiuqob7IKmSKYESeCSyevnVUC5MkY42DaRkxeZHA8oLNXiHDQaCIjm0FfuImoPbjfi+4P4GojHyI6xX30Qu0wSv0HMxiaR08LMeNB5HrGIvMJMAQEu9Rh4o+hzqqb7x28ooGfz8OiyCoQFqvAI5PTH1QxeZB0ZMaQbzSpM0OVuSXC8JZoYxl7ne9WYfFR3pPtdXfqIfKoIwwSMm5D33YBUp4l+SR1kr6La8zd+mIa7qMc7Aj+fyN96YtrVLKrkT2mxrn6OE43D9L2x3naZxxgyMfIeUk/+Mlc53c+N68dox0V4dM+pVwTvqW5j+RdvNef7HseHvJz3COjoVxepAVM4X91tDPKcc6u3kn1vdX0b1jthnWRIYLEJKCm4RJlMEXQPynEw7suBuGXwxO4a/Slb1dmY71PXeIZQqxWYWYG0v9ASn+NJfCFNNhdo7+r0MhAqG9hTtJAHz8DCBb3KMzpQxiisVfFwNN4otgcDIkzPsfhisO+c68hGtsWTFg6LB8AXLZDngayNtYIk08wXF2ExWvciNrEAqHW3tWlMHYsau0nM1F/93CEtCklBDtLZA0/6E44Q7GickgUiqJg/ER/W/rV5Z70Ae4xMsBBVFPd1Kbp0NfKJV64Ch4zzp0AHG98wIKeOHm4Wes7JrQDxOyDjpm0TwXCXZyom4Rt7iFBUPCGg2iwOzywb8rlhBYogfCERnmerzphAp1ElFhce520Wg/n/5Tm178nfnUjjeIbppjcSXhHCF+CWAjKWTc1TkLWUZQU3QwC2aOgeA/wnN+qR6TDHnqfBcp/3t0g1VfXAaU+2Y5zdWAdzkDYGiNecGuAnOXaw09RVog+RCDUeNKFSNyHU7j6r5zAITtYn+V47+I2GRuyFd38hKHXa00KBSt2YhjGlciSmmazFgCXyBSutRehFSPXBt4C62mwrcZ21oy+SFjcdJYAOFaTxBbN3RkKssPSQLAB+spoD7kpB0n4AAPspV90Y+XqJJ7YieiJhf2DHQrOAKG/RuEt37AGYAOObYlQu/UZ2OAGQPgoNdcekWTXSCMlEVgqVQuVSo4d/YlTlR9iuiib4UVaoGBWWpB1tv5ngO7b7eV0j1ojnbhhKF7lZKcZq4wWydN9FlPt4hd7e2CQU+mqEQ6NMWJe1xhga4hSq/gX7qTv6ejdlWa6AoPoRAzrRxlu3HEHkSMSCY/xvB3d7QU9Ff6K4/rRDUf1vFzM3LBARcRnGWBepO3ehn21Ardzn8WyDTPMlvP8jQDpom7VSUiWOI1+0LRYnbxfIVvMyNClNDH2ZfoYXfHl0Y/Yui2qFD5YuoW6b53EugAnhq0p1CHD1KKxiHvx1Co8wGrLT9DznLhwrnwVguPRJ02GIwwiafEWXh+yWuLN6xtkUTcBB2I/2csrHca/K4Mc3e/Es5zrLx/3gHPdDC9680RoIBJ14ux8aeQTnFqX08barfR9nVrFfeuRNNNiSDpPFwPL2T46J/2z1/RXzNw9sIIhgHMMpjhF/ZJJ1nuEXt2vr6c5HLj/ef5++phQuE9GVejr7CuYZoB93jtwWAQz5DjOh9QoB8IdcDpk+10ees973Hdt+6w3zeqCApwEf1nyY1E5/6KjemRrtN1ZfabDWJkHqWVj9vJa7xix6FPoWZnseL476Op28OPrxL2pr6tKrRkMLNUtCmVZGxuLPcfzOPxnOQNQxSM59lyYsKxLbV9S6mgCzKv1JiGgSCok7T1Mw5VP8q49nld6vXpHMO/xjEpG+NIaOvvwISKPfEzHbk//TDH4H5Yepom1FUTOSrjPyLBcHndlwLDVuY3j6IWhmRNwhEFziRC8j2sjEXnw+9l76Ta1a//P+7jcoDcaIbHrGCK0ls0XEXoCBBggFvyxWJMxx9nnTOPLixw5bvOd+WM7mOsvu9NkXWkDg0iIyIdsLN+OjyvbmDOj1nLcjdW2iOUNERsDhslR51bvE4o5Q8TPfrjlXCGhQ3uFioRMbNs7sHkeOs1MfynA8Gc2mSOajiQUWvN6qb7LZGxm9QFW8izGszwD0P7M07+ru6HtoA54wsjJ5L+5aaJOFeY2VNlYP/+hOrsnFOYjaWr/Wro0+hmzTSPd21pEdJkLl4yr6AsHAC8Z10kt7f7xC4NSPzVFV/cxRVM/VsxvVhbC5/Cf8DO80p+LsI8QkF/DEh3CDwPqeZfYg/08b0TE8E4ACJH4Zxzvec//tmxvOwQg+mxa920hdVlh9uPUlxO+HG3jRCEctuMOQ96/KmVYMZYoEbiYlLeJT+Y6z36N8Mt2+sFgh7VgmAT3cF5vdKX6RntaXMMPFB1hP5VXOSznjd1/3h/2PwAMGzum4iJDzXrOSxk8v3XdP+/A7+9e+/jq7pK8Ygt2Xqkze6BbxQovJ3mRJ/H+NtjZ70wRuR/dXQepun7JINpNf7r799RBfgR7wxDBIOvqF+Sw5j2j1zvQrKlhMgetz+PGH+Nm8z2uGP8wcwu2OI5ubyp9gPN2LzWN2xi0J8Pr2a6+AIIMxGfb533cKvwKuTHF4D0ssroVqT+17EGAIu8FSp/PHvq6BlJwpdIXYrFiqKoFPUeb+9iJkQrWCLtspxb2ANELGlza0N3t7vWmtfVmerRMrRSsxmM12Nwz+sOz2hocjGUTUmOKrnlA1vBLDW5lZMnJrYevOTpVIrg2AwhJ2LkNCwAVy+XFW8AOXUVUGh+8FEC4jZPr4sq36ebGMuxhNpTsFwA33WtCnH7GKR1wKuqNhf3N6FSIxNO4c/i0ZohS2MF/bB5n3WmOOQ5g6vTr9uXTfEbDPuXnoAO0uyy7E34gg99jcisYoYakTQwT20w9u9R56SYDjHkqu2GGLrJGI4j2ASGT4uqTqJV5Bn1vF4aRKs9oda0t3X0ImAKO6+QhHGKCrBFb3IMlWSvyUUoiWzxpKbbx541tUnktbqdbD3bSfgMDCTJffWcurTfmSQ6yBljjq4pxp1yOtIAN11ormxsIyvhitsMIi4Y9smn59rlbQJcMnGRxo+ip9sWAuMkg+ubBP5BrcDHiem1pXVV0ZH4WE/CZuI2KefWCFwDBy8Qs38SPzdVkng/JWqIzdhg/2KHDgk4e+7mvvdyhaAFbjyaE+SkpsbReBKWd7f20jj+hTjSpOpR6ezSSTDwBNLKwfcIgIYLhIuXuS7hU9aJTHMZLYG0dNrndBkhtE1rZTJcnqunCaEojuNb4vJ0APb8j9YknWTxUriOPYcQ7SMwKkt039xrp+wdeINZirm8DEBQITbzQi3tPT+r3gOVyQguUVuMTGuWlfEUvVlSaHroegGTHXl27mf5KSn4L8eg3ZnSJKa/s23bqpy3xO6NQ8XgKMNQReJJwrzop+o1+WAAQl+YpQgRYelyTBUR1vXNk9Hha+72M32SEus08ICb8v809SM3ua+nzi1+mqdrVAEGNEsVzFLzUvHbBwqxTMwwAqvddI5pogdA7JNiElx/ufwMkY21PdzaJQnkEcHZRfa6b7ESQy8FeXHZ6O3DWxucQaor2I/qNYOy1rDf2MMaw3xJi9tJBWlzspiohjtpIG82eRlpF56XTfZOEDKppyuX0FiiB8PS2eaFfHAY6Wo8NXEAcopIYKbduwS6+WqeYer0ecarqZI08OWvOOweZlmdXfRMv7Q9GhpRZYlllhzMkCVgHGBv4BGhocXFbRbucI9GrKpef0wICj3HYTjozAMx39a10qX8kfTb12zRCmKU1bVxy0azM4n3mnahJ+ukH00xOqi4e6Cy/qu5Ot42OtFkHDpskvaCODEItojaZxbt30tAA7LBG1cOhhPN1QmxW5ZJdnjyPCR0W1vfSLIaR7x/uUKcEkbqJC9d+P7kpiYPH11Q9p6VlBcFw6XHHcjmxBUogPLFZXuKXMEFrIk8P3WCQWHeYxJmrt9I/zt/FGRedBBxiXMYAM9SqeFaokmGaHEBG2QPrGGGQWXdjjXUTIPx2hfyGVaqzqY8kekVXm2yt5gzsWwLi2Z+xVmONJo+IJPmOpBqze33k/Pvv04XxX1I4aSImun0NIS32bb7KKlbiXhzst3BfWcJRbbRrJ12p1tJH6BOnSat/F4d5s1LPk5LrYX0/1bqJN+ZZ9pF0t4p+b39tnwzTpO16iHEGcOTQdA49PU244dMj+HKPZBx7VDMEAGtUSayQsVoL6EN9T9dX0B1vkFYMQORaCqA++12fry1LIHzFz1vIkRkO941zJroxuqPvoHZf1xfSbXRDfSvL6Vo/EQL8ZnF1U2KFfugZ16U63e0q6BrVN2pVVk/4kIE1g+g2gwFFUOzDtUbjSeGOE/5yIG6kn3rGOc77zxo9TFhrJpklWOBtgOsvPK8D0vkPj1zCqDFADZFNdHQ7ATQ59ZrROEZ1AGy4UtU7ayRfmI9JT4uyk941jCcm5dhhwhJcl82ITUhcG8DWgUdBG+93MEfL7Dco4xnFv5hEtVK7+s/nL9vXOFbDAb+fEE0num3yD66SJGKZUMBNaKelI5RITNVfLqe3QAmEp7fNS/yFrssk3k/ihCujn9LZDfTvSksyw4XvAa1GWH5vDA5TLH4wBsnzWn4dtILbBNEoAwy0y/gfWg9XH0TXRXSIgqw6RhOxGt/sRZXM8PTHLAgaV2yt4W9g2HfJJPMI37POA8APl6j1HRKsEkbns4zQxy4SL+BPOESESQWx2NKv62z3kDT8DwE8U3KZRWi4vSeq5SkFLPFcTNygdODEtcF73XX0kVYcd60YSsk//RadMDMUYs3m+fnNLoCpbGH2mw63530XkUp9gLBrbyc6ZYC5XE5vgRIIT2+bl/yLzJDqaOF0a1RBNd1GZFlD5zS/T7aQOgOAbr2FKGNonYH+GkRkfWdd3LYXnaOrwNiAIa7BNjTOyESf41BnPeV7uZ2isEaoZUDpB8Ik9d38ZnmBMEctxQAMTtGmvXDiUSdoAfUOnmUfQDhI/sjJ2pXwJ1UlMoBbzf5Sb1oENG8RZWT0jnWt1Q2bEdtkr5MAoDWV59HxmtghPy/5o1phlnhwOZ7Fb+wRrup9XWWX1mc2eYS1cQTSNvrZCLHrQ73jZLvuhbGWjJAmO3UpgfDUpnk1P6ifM23TZXVIzNQTJHa9v/DHNLP417SyRPZichH+Fn9Bw+tqDBQ7uKB21uXotg4QWYesIr6PASWTQLA6O76e9dTvxXa2tAz6Hj6a6ln/RGGl2+QSXELc3AJg5GZbJFLY3V6AqTlRmaNwH/YNU4OFdeIyNT5wKSzJF0c+TDVUIoPoEesUU/rDAlloOMJ4+HzmxK6Ktx34DvYh2l4GuGTx6iPNGL4bbF52qGYwP0NTdigW+/yUGtQTmwhCsbjJdbjvOpPrXjulJDj/+OBFDDZEtfB7uZzeAiUQnt42r+wXxZSK6ZHsxNQ+kcm1t3en5VXF5AfpX5Yp8o110bKSOk/LDrUCPy92eVyjU4olAJEPxXGK1+L38jWDoGzwzvpq+uvyHNb4xaxWgMldhMnpy+nzMFRSILKN1eWpR1w24cHuSlpYofwCvntVRGYnvQsjH6VZGvfe3B/Duq94/BF5Dj9gspPFFWt/VR1yTosW0SyAYVRA5Lvi2fE2QFDxWKtw9jhoJxEsORIB79sYSjbIedkL+F4d+5yJ9nJIHwrR5XJ6C5RAeHrbvMJf8ozeDXswn6GO1xeHP0xf3f/H9A1Wwn9c+CuRAcvp7yYupd+OTacvSOA6AlC+KI1z0Bai1Su8uXf60KYks5znDyS5+BYQnEOvJ+Bc7x/mOYynX8HW9dM02UJ2SSJMC8ASDL8mFvyvy/Pp/4P53VtaBwh7ogb2jclfIRJ3p3sL35JSbQVgzSKwx1A07sJHMD+XLOqalUamF8KxP7C0XvKH1l8nMrfRmGJuxP9K8bBv1slEg5P3pYHLZE7/ZZSS0GKsJFIup7dAWdf49LZ55b/YOY1ckB0KiOF3BigiK4WOp50IEXWGdbIjr7M6SK0tIqezW6ujet6lHA5PbzFrHSsar6K3s61MbvH50Hj69ehk+ozXa2SQ0fIriGmx7YIpaoDq5dWnIjg63fiqHrFa7U+XmOT6SNNWrWK9BRzV3WoMWaUmipmvZZM+W9mejvaGXrp4JPtI7idcTevh2Qf0abRcwBwlBG6ie/x6dSV9v7FNOrWxdH3y1+mjqd9EPWOrLeZ6KuWTj0Y98keLfwPd7RavJRAeaZg39daO3oGuyHx2KtrNaafi3XKS99BP/bi+wPs6A0UQNP2TGY0ZZLCGsnu//KcmGKlfNUX/305cTH87fjF9OTKORX8AQ5QuLhpJChFW7Z1kHYdnvrcGsr6dbmcVvF2yRF9ENJ4aupauU9umC2BcJbX+LMl3/7x4LwwydSJNBEbVHxbS8jU8BhWJg/MFNwyxuUkfEDgF0PtYs2/i1/hPMNCv1qhXUoEJjn2Rfnf9v0QdnRqGmyr6w0MEfePYrHQAADSCSURBVPlN9U4f8SgQlqLxW/Ionf0VYRSXJ0jYoB6xB2PK8vp1YkYfpX1E5VvUXZ0hdX8/SvwxRCpDt3JyUJyqHUCKUwweB2a5/LwWEOQ0YCj+mhhD667uRk4+gp2srVi08GpZ1i1JPZ+6RcVUDR8TPJ9aBTcbnaDJTq0+WNeaK2OfiprpwdJ36cHyzbS2NYtBZg7u2B4M030FRV1qPJ61a7YQu2WRGk9krA2KO20iKTRwot5K6Cr7PkjXhoaIRrnMRHodQ801JtIa/Un9cDlVFs/raa8lED6tdd7Ab4KhLg8WhdKivLI5TxjVj+icvk135v9MdbultIfFchoXm8uUDP0IhfsN+np7Ww9A+Pyi8hu4xbf6lIq0HTghd3fnoXEE954AQW9CoHqI87qGE5lgBkJrv1AFj+9qxMRt6q9J8gVBVDeWC1hyx7DkGpbXg9j6L6Rpu7NyK6z7gq+O8RpMLNOg3k+ViL6MVtIzjZduUEaPbJMHsadnMg30j5IM+BMyo3+MnvkDIl3GI5JEp+5yOUMLtOaJEgjP0FZvYpOw+GJ1VLzROXewd4TO/mFap1zjGkV61jfuYyV8QOzqTPonCstbZ9eaGIpvE7xq2dRnzeHgYI4BXbLFMz/KowB42k4yR8XgrFPcgtFZ/KqC2808RpG19KDRTL0D6viMFso6RN1Y1AfrYyhrUz8MRkYc8lVyS0YReZ6bgGx45CauMNbKXiFSpLNrNHV2T+BNcJm0XcSwo3fsxmF6gD4i29RCrb+goFsuZ2gBCPNBlbaiOGTFMoIH6ERKBn2GhnuNmxi3qnjsakTKZO1yiL0rmwtpgTKf3zz8J3REddKyz6R6YyGN4XN4kWw0X2LZ/BDGsEf93MGD7OLhsMhDQwE8JLP4Jn/3+PPR2yt+O/rdeXj/GABRMTz+EGBlKx5tF1URMr95dLlGhdSYfBStf8Ay/C+LCxRnH0iXMHjpbG2ImwClcaxdXSC6QoGrM5ydK2QgZ9LjGar71bjhxGaSBtlhg5RauvJUjFypfZxuTP9N+hCDSJVjPrYIC7hHr+48PK0XvEewj/Ds1A4YVoYpNr21Q62DDQrWvOBxy91fZQvY0alrQqGgCQZKFZZ4gUQOAuEyDNHcczs7y+k7CsPf3VogI/IiK8k+Ec9qiG1mqzGW2TVijzmGrEM/tFxEKGe49hxHh/tZhtYRvHjpDfC08x8/79O29cLi98ONDt/wSz6SwKeGNRyY+WCGF40VLgFQNI5tlv8RHoyYqrgqI9TvT9FY/d7SNpZg7FqTgyTSRb0xSL5Ck7YeBaoeMpkbgjdK5MlDAO57Iov2H95NfTDKIZ7VVE/OP6kOuJNnrei9B5M0OsnYYcP6FH/DP5BbOfrM4oLLP89sAZoU9QKNJxAOmghylbhGhOQSCJ/Zdm94A/RMrYEwiCikbmgFAFwmlvXB8u1kgfklQHGRKnoHuGZ0k6Z4qEKxp06KB7EOkNZkgCQMFpe3PolWziqveZDLRGQsDi4GVgz4fLtPG2Sv3jRz/Owt0DrlSRzfutisgL3i3orvi9cMgBnc9AssUvQXoYlVWJwMUGuyrM/j6G9oDLcJDtYEQb7VZWYTI0YVMXZs8DpM/lqIrYrDsvxi0Sg2jNPzNNbkxfUP2WcnfbdhkOUO9U0a6RI6wat9O+mAdFwyQgE2jGlkszGzTZlEoWjJn//KnJMg4am9DyDspHhMpWJpwZ9/wHLP198CIWYxKEO8YpAZ43oVi+TGFpEF26usyzDENYqMUzpydyM9YN3H5+wA5tGhFZPViFkdNcyiTAZ5gFGfxlxsXB1l8e9pd/d0WHrans/67TGkFSDmHvl8xWvxqTjW43385kkwz6yJ28r3dfSgbKsIGgwPa6yxvlp/w28TtudxLMWq36DMLEdztIVl11yQG1h1Db+rocLoQu/X238jfTE+nT5CfFWvW1hwj16djK6tbSh9MvU79MDDaYtn1mg9ty0Y/U2q31mCwUQNuuHcrq9QDnQ/TcIkq+giy+XltkClwihoJ7vFsX7xcs9SHu0VtADDiodWMESV5SbftHpao0nkgoMKfzVf6xQRqsMSGwDjDnGyiVRNiazFbVozi5WBbDaTDrClDfoR/UFZkeU43Dx5Myf9yt4v2KHy7kehI5+1ONtJTPT41h6jWG2s/D63W3zyi9YBBUHBUFFXNrhtKizKV+iu4mZdiEw9ML2+yPuX1Qqre21pmalkjzG0z+t25xBJVcfSdN/FNDp4NaKFZH2dANdRNuidyO50b5ER1jCE1XlW6zyjtcZiWli7m+7D6B9szcE0qVxIDHGjjfT7ncMRu9wNKyyXl9sCpdX45bbnGz2azEW2oM9aN1EMQ+imTAQrODYp8uS6y7qvqBXVzXbRgzVJ47QVOfUsQ+lnt9sjx94uPmyhJWsB4llvLpiYKP3M5fg2Bcw9c8cjGxw/RvGTxzoOjUfwmd2KPb29IiK7kw/qCIu1OJoqg9CpwphDM8f9jWMJHscibChdJ+1tEg3Xbqy5Pa7UCTkJBItjegXqDjWIyRpHcanZxrl6FId6z6e71PeLX2MdHkiTRKdcHP0kkjn0wTzL5eW2QAmEL7c93+jRHPZtLaukgysRVBAO1rCaXEyIBLCAndmU82dYkNlOWkAo8JlkNIPm0VKQ3tbZQSpfhzBTQM0bbZZTT15c3U/uLGPo4fUX23mggFa+8DVb9ckQBAi6ZkNGd+jvCjcWJ4WnLZkZ4rBNBROfVV+X9WwqsHqcsfncJBGrIGkey+mhD0LfaDKHcnnxFlDvCvlHfYRq6MUPVx7hbW6BzM7gMDjg5uSeXC0D7PCf7Ad9mFlODsEygDJ/zpEqP4GKZ97y04d/sfvxrZ73PMf3L47r6wsei0Pno592Di3ItGiIuNSFMSchTFw2riU3499p+x69zsfvfVa61/ThGaBuUbcp45Sr6ICHesYRofEjDGtxwV8f71u+e/4WoJsnbFxE6ORkts9/hHKPd6wFZIpecvCZYoTHPQTQaSR5AhxzhGsGzBak8PtZl+cb/mc96mvcrsXinn4ftqntiaisFTnW/N2LXKlHtMaIkUXqf2uoNwTYwm1GoHwWy3yR85+nfffJNt7csihXCYTn6bmfeK+ZMcowjpkfzo57Jx733HwJWmbAfDpsPk97CHzqDruq3eEVEBNYgO6LA+3zXMf7vu0+bHB3AyBsAISrK6Qf3+SLXf1nXt7DfN8b8f27P7nIkeWJD0e+L9++lhbIbJMJqnwOr669nexJ+Y1WKFWWKA69S1TJ/q7qwlL38OpavTxy2QJlC7ytLVDZ2cGiuAsAWgyhXMoWKFugbIFz2AKVJgpDTIZEGpQs/Bw+//KWyxYoW4AWKAPrym5QtkDZAue+BUogPPddoGyAsgXKFiiBsOwDZQuULXDuW6AEwnPfBcoGKFugbIESCMs+ULZA2QLnvgVKIDz3XaBsgLIFyhYogbDsA2ULlC1w7lugBMJz3wXKBihboGyBEgjLPlC2QNkC574FSiA8912gbICyBcoWKIGw7ANlC5QtcO5boMxQfe67QNkAZQuc0xYg18xBJ3nOSDhTAuE57QPlbZctcO5bgDrebZT2Iel3CYTnvjOUDVC2wDltAWtg9fS0pQOKeleq1fa03wE9LDPhntPuUN522QLnswUqyMPd3aSj7qPyzORUV6rVKCfYWdpNzmd3KO+6bIGyBSpDQ5V0sLyfmqAjtUze70Xi6yrmBwk+mQYfUNWKUsC5IORZihgVx+U1NudPFH07y75vW4t7L7RPFHKLgkE/vcAoBWpGc9voXbzHn95S+c05b4FzZSxxcFe6qEdbRUnKncdgP6ED7G6TtHvber/PHuhxDICjowK9pqC6SCiI7pH5m3rp79zS7r202oiSvScuBxQdt312d7hZ20hQLJeyBd7hFjilq7/Dd/SUS28HrHqG21P3UHuq9lCP9qRaVYDl5sJe2mDd3aK6HwP+pEUwrXS3pc7+ttTVT/F0PrtGnWCAwf2amwdpaw22vUldGMHi5EOddPg39p0g2DtKOckB2qiXCUP2fGyx6tfG4l5qLO/FPe6VQHishcqP71oLnCsglA3WLlfS8LVq6h2iqHkXo/wIOAW7AwjnvtmGDe6kzaX9U4GwioJ1cJpjXa2kkatV2CCgwb6K3MEIYUubS3tp5k/baeU+wiTAKIC87Utnbzv3VE21i5XUByDKdI+Kv97jbnOfNtpJS7Td/u5esN+3/b7K6ytb4Gkt8NqBUJ8dWUY7PjyvsmLKAQWpFE2P6uo8b2dfO6ywI/WNYSDCdH4UCIsB3zWQQbK943Sq08VxhgDVoSuAxqVq+CIdNjQAoWgsY1x/tJe21vdTQ1Dlmt72RXG4C5bbC3Pun8hAePSabaPd7Xa22Q0Ruk2Pg6ONeHTjd/C9UoMqjlB1tPqq/dQ6w4cLbWA7qEtWfbK/m/vaPs/3tMku9K4eR981Xp/LS8NuU5wz3nMeuubRvn14bW/ojePatot2ow8d3i/t5vtibBXtZjsdb7s32Y1eOxA60Cp4c7e70nCvatndAnioYB96vqNMjFPap/OD4o0dq7UUHbt4aMX3J712Ig4PA4L94x2AYIsNHtnQ+6x2twO4Hamx0pF26ujUThGzj+z29ry1A0cnfvIZxQRDe56ljd6emzn7lVRwp3CydK0yUfoc85rbwyMJeParPVi/etLmxkHa2bC/MUmcMtnZ3wrdawdOvFl8OON1OR+z7rXO6wTvNYR+9mjfPuPhXsVmAqBSku2mqsjJxHbrcGw4zltA7qSxx/WrY2429mm3rEI62ALcj4zFV3GNTztmxcYNlH7aVi/rN9qje1A2llmZjfZKFs6z/mg3rT3cjU7aBBCPL4fD+/CNW/DhjE8jgA4dmuL1E4doHUawdRvFcZnhifrI4xf1Nn7+yc29jRf5/Nckg3HwOqF1DwJ8PMsqagGfVayFwUhWyHYakQQzB7T63qMGMSe4MB4x+W7X99P6LPrTlb1gh4UhSZ1033ju90ok9o8zLy0QCRZYeDTwutfkWpA8lD68BkFlB320wCzgnLErn/ky3DD6dUs/rh7Z9rPtKtxf0W72efu7qyQh+n7rHmy7AHIBkUkkABEQ3GWtz+9G28W1v2aArwQ9dcb5KVY8VwOdZWOffe9Iexr9oBpsSvH0pZ/Xk7DOfrUdjHBjD4X+CUB4lut92jaypXZnOwfHSZ2a7/wtZkVnxJO2edoJyt9eaQsojWgMGpzuSMPXq2lwsoIqoPL4eR4ZDw7+eM6tKwqAKcCJV39zGwe2euG7/9QIQHKQF0DYCVuqXUKfjH5aSUIR+ax9v7gUz/G4H2G5R1crAG6resEFbm0GIIEArO/uZuPcqxjX3KtA5zhW1z6ELrmfthPoizbynqPNWtcb1120Hb8F8bLd+N19giXSdg/Rp2+tNhivst9X+vh/cvDK4uJO2qq3pWaTK3qVSrvWqe0AAkhYXWnQl70UnfRn6WKe42K0Dh+K3Tbd8VvhQTv7hRjwimbn57jcctNWCyju9uA10DfuAEY6wSDUM3LESt56jkU/8rnGV8eeb/zuMVtA6EaCaycDWinBPr7XVkBYHvTR79mmQ7UQvz/30tql0Fd2EBVW6eR8HK8TIBJsB9DrbgPsWvVlptt4LezAUg+v97lPmncQsGSyAqDAp0qo13aryajRJes61loC/Itr9bujt0qTRKv4h+897sGebXKAKol2oX0yoD5uu9ZhX+lLZWEBN+r1jtTeZJZ6pac64eA2xNHp4oRNnverrIR9NWLB0WvxPDIAZ7OwGD/xY2vWc5sQXfjs7Fwub7YF6G+Kvxq5Rj/ojFVxziWzk8cj4PG7ky/5pN/bKwcxwTuYQyyMvn1sQLtja33Rvi+Yuhoz2zWQQh9d9LOV+8306C94LNxDPYQuLow4xy7l5Ds74Vuu1/P0I9orzdl2smeXaLf483i/DGSPPx9/d7ztDg2oiNwZCH/uhR4/09k/57s5+/bllq0WUBxZvL0DK0Q8wGr8eCbLM54g6TYb8/gksvq5XN5cC8gEB6YqIZ4KhA5kmVmIqFzW8cH5s67UR/yGHnNcvxbp1o3I1iY+7Qr9p6ytPpf74c+5rwGY84CuYpdRISAK61VRtFsc7wUb7w012RNN8fYC4Yu0Dg/mBZ/NE4100geV4ks/NGOm1EqWxaG8pSLxzgYdb3GXDrgbeiOZYbm8gRagI2jo0DA3fA0d3Y3ONIBop4I/XLie1lF8ZE/73dsptmk93pfylJ91kJOuie8KEPSyumsdAJYWXHShLTcxHeBljAVrdLunLTI7AU9ReOKz3G59AGyonU66huJgRZsUn096Le6xdZwXFd1POsXzfPdWAmF+WIi3z3MnR7aNDvG0B3Vk25/7VgOMs+zu9nZYpxWP///2zry7jeS64o2Ni0SKM9JsHh87EyeT5ST5/p8iJ3/4HOc4XmbGHtsjS6JESVyw5/5udbUazW4QIEEQEKqkJrbuWl69uvW2qoreMdsGJQGyooQVKnj2FmW+29YnPVdPAVQ6bIJPvu7qUriTbII92aYt0czhEey/GNas5um+GTVWjOkVRDAoF79TvO/jzS2T8oJ3yHteMkBV61R5wPURiAGIar49yhdv5NXObYaV22s/MnlAuxNoJ2mazzeBYBy7pgVA6jcfsnfT9Cc2cSV0+5D9rd9tKBCG+KyJwgPGssEtk2yuUAcQR8iz9wVAxHGxBO98MM4uXk0Mgtg66GCXKYaeEHAbg7prGgFwRpXaA7PmHsc2kgdhE/rddiH1Gq+2rVQGRFziF22lOGuI/VuKDubOmsos+RVtI2YuMPv8TKEnUrPruVyXz60VXntiOfHYHsvAj5poUKupThik6jfVhYkumDNiZWYfiGDFt7TTfanJ8C5hK5TPpElsYkGLUuviBA9NvaQz5wPfMlu9AMr6wSFBkggvBYIA4ZkG1eB9KdM5bwkrYsEAJgVU7UYQVL3N9/qDF5v4XdMyzhKlMsp0Iz/6x/TT61I8WspzFW9V/OYlmIAA1Qt5vt5LolpKNMwZglCC/rvIzKtvI+ECeNDMaJYwxHt52YEJgjMFkGS98biv9cZIGaXUy2dc8sBjVpeGiq9CpSHOCkDbk7qD944Yrn0xahHJnxcO+BchFYplY0WLg315Po7puoKq39VXp3rX3M8HJ7LLyb4U4vDmZ3h1NrEZgbozeawqARjYtZ7KkwrtGkHQKmMAIdaIv1UYyrni2ngP7R1vq3s80TpGjsiHAEiooI5HFMiSbmsGYbIjDpAQHMJgeE+izkiBIUhZa9tVHv1vPpBZxjON+raubYEtcHRoqP97Zi2F1U43JZ4LdkYtR5UUbRCseQieot7ENI4HQQNi7LGAAI0IfjTfKz/yZAKPdCN8CbPSvrzOTFDQ+aHSRgIhsypM8E72tdPv5ohUc6jGsjYAgA66jxSN72ziQGcGsWe2JAbRdDrUDC8QHIoLBGTlhJ3q6CuFIWjdM6BWl2Co97oPgICRuA8GRWVB7YGpLFUGjjfj4SUEfC9PO9n5CWDIBgkKtNX39xFTWa03Tgi8sUgSABBghPRaTWqO6ivpXfVisrs41Tdq50qSsuqqXPqGEBmkQupxrZ/y4gCvkSYrwk7YdONMwfg4uXB4WTrMtYswmAPNWSnSlXRmW5wcCPQJfYH6aU0g4NjCzUEiGkqTudDE9/pPQ0txPEyZ0M+TXl7egcp7/NnEvED53kREXmtB/bU2mm90T7vTzQ7FM8QBMsaqE3OsqBcCqA/hbfrQiwaU7bUk2lmSV5/Bbw7ZyRcyQAPs6AZC9bHbAJijJYhnCflhJQqOlwPx6KHGAEIPUvhDSIabCYSasBi0DhL9y2g5SSbvLXc0qtaKxlWVCQIQypsmQzIDwD1dKevqndYZn+l6rThNgWJWAWWkCDZuYLbGCO3HK3lAByRP+JtBDcgwoGGk6PWEyeIAh4m47/BkKrtOkIixZTKwzn7Uaptb0rPa/nmfGZhPvu5kz36lUAs5J4IKn4+k+JK/AjRnrlNuS71ZWJlXdPGbBz+ThlYxIXnYlGBCFbf4jfkjSmJvRtmL/x1mr34/NCAREA1YcFmly/tmQt3pEkkw0u6yqzd67Y5DGJU+D3IpEgl+mURdAOShJnB4H42oSMo3gAnqpMrqjhw3iLT2pRwZqLBdYFBgaMmweDC88fZq4pn942AzBbgmDQsNWBp6KJ5j0vUkq7ZeS6qrJUHR6EI8/vr7oWg3yC4l2aMaF5IgJp1IBtqgaL2R8hu0RbO3Mi29kFnJ4KjJXpMAq2MA13WnjQRCBjMzKqIyUt1DzBA3dYSXZ0mltZqiWbY8xtyNMIo4gNnXQFCTYcwDNYetwcomADOP8kCyAvBgFgDOxnvlFdWlmmyVj3aMOaAC3BhWAjDLQ0dLOKIrg3zVCTsZdWUJJSB48nOpVdiWVIcI1JRJ26gLg54JC9Uf1dj2zBVVizIZyITJsKNOdHrUtZkiqcOrPw49YaCWFoO35gFXMR+sAapWVGllY7qIJvB+vfSel6X2XZ2F/vSqDqmcTKod8VLs93LVrVqLh5h8ATmvkW4Awi6aigKzsRGGCaSc0+x7NLczxSwChExo9XX+8Ixg8cMHv6t+rvy8po8bCYRravtKivEsLaaccXaYoYOIP29AFRXgeWdUfKOZQP81m8KIBkC9zjClnmlM5Afy5PcQ+Q8gw/yXmr1R+S5vAsJb8CcgiK0HdQpJMA4k1zOvSwB4bEqqi2yYZ7InAUDUCUfBypI9pmEHnbivogG5WgD10oXU/PzXA6tzC/VZNZ91fxapcCZiB3/5+4FVSnZEYlKN/V6tkicHASFSJM6TpsSuTITM2LGk7Jry43tWrbz63dCB29scK5uAsIkblvo+H+X5M3wym91lXCuTKMVYPREXR2mQYgKgfCjQNShXo/QeVbqtk7pQwZ9+I5VI6glOlMa0bL1VFtIgAyeuIwcEO+z3WKqHhQFVHBDEhoQU8VqxmAxKbKCrTAx6h3/IscQk0JQw8CPFYMKgHg+hljXV7abv4QEk6ivV+/yRpGrR9PEztBCRXRPnTDL/yNmGg840kcrVkLAJIsmHcBnlBTEriUm6sEWrfDQ3Qn+2NSUg3NCeM+/lOFKW7qhutFcVJgP4VBLQdXbNG6cfYGb2GGz9c8/OgNPv8t9W8GK1S2D7WOEpX/7Hvu2mHR0GVh0/1Bt7G2o5quiL/xtkr38Y5WEqK6hIOQu1GWfUoQC567rUUwev/PmpIgww7CORrhaPyzW6l/dWpUVPJLOrt3LunGu5bFeOoYpzKvBT2GjiUBMW0ntT4jfusUmh2on5Q5iuLgW8SPWo8Xa8bBntyu3fSCCE9ti0OprZCC3BKLtoYpaEObxvXvOkt2h2D3of4AV4BOALjMss7HAYYs10kaw+SyXyagnZgYp4rwqvM9Mfnoim7BTCQIFOi5PWZVX/UAQD5pNfBg+xvZIaSNXx43aoPLyipz8MvSqH0KL78hJSLzuVZGN1W6sVh090MYjtUceZdUdaVItY12faAYgjEXLRH8WO6aVK0CeAHGMK+3RTstdYUjSaSF2K5Q1UFhMIUum20i62byOBEI8cndDTwN2Xi53DghZNljjUMWMdwOQOWvTBjb0vgCGjFgaE8d49H9o2hKEaOZABj5c2k0QGzQi4zaQaVanG4NhjxxKYXLd7flnB4MeG+cW/7fnIAsDYIFgq3ECuKjGh4T1/Ka8sW/078PY+1CmVTR3gIQZ+nWpHs6kPnkpUy5uM/BvLHnnFkNBwONEW1OMenYtLu9QP3AqveJeXquqc52O6iTcIDQIQryUIp7yx5+J4G8hGaWnw2o3b9UVdUx+8BQzUR7JjtL7Vqwy7y8w2A0lMDslQqMibP225SEhPCP2wW+FMQI1k/TLMjuMjOhewB717HhwDX/yrdgaRobvC/+5TvgNMg7Qd7ohSpW9Y8g8hPCe/UPyc+op+QtKwFMEArCTqSv1PZRd8/1zqsNS5ZST9SnZzP3qVh+rGax0I+mHRAVoQZ4p6vO2TplVk8QSxkLSFtl3vBfW9eIU+KtubIzFt4hAi+HchYhPtyBvwgwe5ChNNzGgLX7th9q4j2cO1BhWOmYsgSwJyF020Ba8oO90yw38MQIgBGmZjpcNf/ufKQauoczOTg9oNuB2/CHGNx1/WU0xPOQGc2M0m2tjztolBQywle/kRosLERahP3UYGSCv0B7GMP2nD3D6hMmrTfSVMAwTtXnMYVAr0gFbdcNQQurPNCakbmnqCFEjRNihcHdn0G2pxMxDGCaSeGuQZgDCUF0wb99eX9bVY/bfdw8NONrpQpLkGx6Y0x+BcI1Xc1Hw6nVksXDfdveG/qzOYaTGCn/116EBo22PqDPrcixNC0k2cpVGPmf2rCSZmEDi2Ua+1yYSs/cVf8jxSIK/e2FQTlu2OFVWMshg1xOW9kYROQDfe4vta7RNr7Pbl/ANANEk23G/bJTGBrmzMYQtf1QSkNPhgXlMYW9CnKfk33UTX3ZRsi7/9XHpT9mv9vfv4cUenrLUU6a1BtNai5xdmMJx/S/Ov18d/870b+osxxDY1bILazuvlyDY1pKu6BFPaPiqgBGiQiK4lZxq+tQPhlnSKoTJIhIRZ7EsldhxlOT8GJnVBmlWsIB5iVGKvsLlWsdV/Yf4p16epCNXzYxjQkV9oy9wETeJVvVFE86TB70LTuZNIQbeghlez2rbP3Scn2pn6TDYSqVYNY2zb2vTR1BfmRjUm7o/g2XkzvRvtBxjYMOciKHALUmnCxIbEWlfKwYxRNcpTT34LwdtBEnwnMMQWtymJQY7YU9Tonsi1rva6+vzRNbcpNLho9O1rV2Qzt7Db57/uJ6Uat7OrPa33myMur7tSMwy6aKd9JB1yjdZqv1Wem2b6/EGD5aI0u1bYzV9YYtA6UaRBhlwRqlN6lNAlwjnYReWVAqaRCPForjMtRoewkQVRCh9DskmIttwwFubRRlNoTopcOpxDmCB1c9+cm7bkp430GnuytlSzBBXVGXRIkIaWeO6hb4XvIu89dF0WKN9MX7LfVgcBkhYgSKzju78paPq37H+3ZhBEihb/QNcm+2BUAam/vcvbDoa0A4+vPeXNHWkTStPYUt9xkBL3VPu1mmOk20YJUNVKLvF5I4HQW/vItoQqxRZNi+AEHcOFQ4FodwKPU7ofCtw0SCiVe9iBBBD0io37qUptrp4MR3n8Ze0d4UvqiEOJWMM6x9KcRzfuJ3vK1Q7i//CW0zb9v5ZsapENrM6WiAAStI9mux95Om9Nht6VHe/8tk8iatNmAqEGUF9nfrAQHgM7HbRIooMI0+jn2xgt8ky6Z7UUQNLyrtQSFbxPn5a4Ede5zjg9784tqTR4UJu9xvALm506wLjOubRa0txrbkhmmCvYMEHbDgZwqkHCIGQ0ACGStOhmh9y8QQfdJHkWW8FByIXElXslwZ0y30ggtCShFQic93H6PdPXgkgoUuAxxVOJZJjS6ingrqA7xPsz/F8adEgnAAyboX7+L3sKpA57IRbPrr5aMzlSjiUf2SoB4KD6lipI9fko8MDZww7JvX3FnWxxQi32dm5qCzG4tSYB0YWxwc7RtRNTPszi8lRA85qk7H4X2KoMNmXwxgwCxW1PGwmEDsBVZ7ExJbFndWJ8I+HVmY4NSzjYSKK7/GC1U7S1OoRKxOBhcJQUsQg5bNO/92jfqjEB4Vke53aX8hd+VvWCj5gYAb1r6ls+oJEGCQZnq65tTnjyie3kaktFLnXHTLMIxu+/107QkvzqkicR9ROAGSaR63SBlqjF7DAE+FL2tqeNBEIGl426MLI6ZCkg3PYe2fT60zcaKN7hWBID64yL81bieMhfkbbaQqETnRly9banwGqODVjPDMWAZoMHBn1LoT5Ng5XVMOwwjmSDFGt1ej1VXElPA0osbQQA6YtidU8ld+iBpIcTyzvGaDVNUwIkr0S3Lmr2Xr1pAfXbmxLne10idSOFb6uGzJyeUqLALAUYI83jxAcZIa2/1bkeOKXqbkU1Y3DgiAAIv/rPfa9CmS3oHj+pUtiLObtmhL0QJKhJrGs3iEiyweZFnbcpobqyZRZmCHafDmpxTQsEUjhCMBldaDKat/+jgVArgOxwrCebHTJhd3bOSwmOkzgP1pS+8V8lINz4LtrACmpQIVlgw2XpHIDIZhdVyR0wZAULkgqbwnK28PHP1qOGgns4aQBsH6KlOtdiIXXUCGZr+q/+S2CtelqNvsWotsooScnHbWqJo/O5p+6jzqimnND3uTba+Ozbnj9fW+ETy2+JIHoGmuCEnBdVgfrMQUxMItGLHLOJr5CHi76lbLZhQxqlXssmnoFPkMjZeu8hJqPNVI2XpeQ67qeDG2bHdRS/SWUAKGwBZpARALKdFpIVEhUjoRgM/iijer7/HUDIc5MRkiQGw/trFRIggx6wPvpcID2+fnaKS6cOutg4AmkKaYhAcDsMFlH1QpPd7iKOT+IFNIr21GVaCZsZGJSHl0HyuZyBPwTJ9VA7/nzyCwGhHFKc21wX3B4f9SSQ0+T9DcciAJKc5Pf4addACKDP1CFmqlekws++3XN72ddxMobWzeE3xaPKMDQltKUlJAIAafuILfSUxzpTAsIaasPQbHduj5k6hgFCrxFaUJV6ah7fma+w32IrRIJgzTEbL/QO1Pw8ji0SInqRn+gsExLAyWDjuaa10/HZW78KxKjbuaSf0T9qUKn/6pJBW15u2zm1ecRX2mH7SGom2/az4/PoCoeL6inc9miHFfCKCxxQ+7lwtNiDyl6M+u29jqFF6jof6xwWea0XTQAfebGlGbsueQs6PWwgUnk4KFhDDp33dMXwJGycTSAYARBacEwoK3ym1AmQb0iYFN4/H+swqDk3QU+1lfogFT79pud6MTnaBkkfs9Ua8x3B7SQRG7BjfJlutEP7jTJR0m52LX+ncpm84I11pt0DQug7j8bqYKQbTkA70JnC9pyJ2QFAJIz7OP1tnR2+yrIIc0Jy4PjJk69HGhBidG0Tr+NRzPRFWaIpzgrsWNAWRvfA1KAZMPPP648ik+XeAAAEc19ooKLGA2ZB0mIEl5I+8r0dOzoKc+9IR2NKymJtNOfsDtTnBPaXT9hjMBuQdOwl9jHO/2XLOICJ9Pw3OGo0SQh0hks0DsAD5NjRhxTBwEAo+lnqlvrJYVwHAh8CpwHkJhB0JiIEIH6lRQZv8rOSb5p8KPdipG3/NRGMtb9hS4VQTnUygW7e7Fc/cgQoE10825j+dTC9ynZ50Fl54GRBcwD4oBf2WVR8zjc+/U6HUA37fu7SlV/fn90CQg0OOqVJsnNHqXfpUHZafvYrVrboQl3SoP27zm097yMapFSmQF9n0b743cAC01cayBysXpsMONC1Z8ngp1/3NdglNSF43AcYqquQ6FjrzKCjX3l1jF21ivpsDUDA0ZK3G1shzoexNrwA8MuaQADUAO4AYlcgAEjx/EiHQd22KQCavdhCWgAxqoe2tQJ4AB8gjCSa09i/VduSEx/zACCI5I6E+uK3OndY6utNiUmEcYJT5aVOGIRux7KhIgHS9nLyRzQArT9now8mBOrmPR6J+FBeXE7QWBftgG6sgulBN9rCPfG+/PZ1vuwUENIhSHR0UlB1RGr3ZCC5O1mf6UxOZOM3RHskQWZTAoNTmqUAvMsyyLMfpx6gDBpLCY9EPri+kvjtWDtokxicHIYe9lms3LiCj/Q3+zMSttM7GBlcLPn1FCjsEfmhkNj3dDoHHwUphfNydE/TAIVF1MQokRm4BLyN938orvYdeQEiXHuPZ28xeM9+1fxJ9Y2xtEjDSIPEcZ7JqQU/35j8vICQs57/MLAUh2caZwaSvWkVM6H9vNeXvCLpEXbj83CaMJdnSrSDxtCuAMyY9xpfdwoIITbL76ziaoD43ODKgDDt6Si6Vf+n8rbRaaxC0MeUaigAIzO5cBgTkiESFDYjJBfTLn/Gg1l0xEaEZPZMJ+oxqF7oXNz+HXbLrqlS8RXSP4BLOahhqLKWCvHqzozo4hG/8W96Zs4tBUMU9+QAMpvTcp+KOkXwXZLpABNsckz0mHXw6HM+DIevTyXlLQM2qPbj4dBbrj16OjHdDNAaM0WbK80L36vSmkzKfV+5zbSbaVps77Ub1/PFTgEhs2E0GnO2w3SsGR9mh9YzvXL9c2DQ6k3NnVSbZ/Ptm/XL4s10vT34NMigLdvxo/Jg6D84Ro1DFdVteZ68xymAgfxEXmTUtnOpYAxabFNlFXQVRCE/bFXnAmCkeso/0ooXTtvrSWpFMmQMunp5HV0u9eRN+Tv/cMOfZe9vym6JfMrgBh1xRNFm+uNU26CxFRqfl6Ut/cGFJIlTg7NwHK+ovnOEQKx7pa4BDPVj5ft4+ya+7hQQIqlcKjTiXEZ9mAWJsIX4jrRX9N7qumkhPuCmhhsbvl5dBefl1FS4vuenup9Rkd8/12qT45HsSoSrdAU4uhMbUukBVptkksgOBEbHX07lnGCQSoXVtl0A430kVHB2yWazWA6h/+QXvezkZwo5kbrnElWnch1vUweedx6ltt4mn6WeUeXtlc3RnFP5cFi8+bOOTJV9D9t2/60kRPH+bdNbSZMcsfDsn3Ce9BwP2pFTzIk2ww13bHNUlW9bx7s+93BAeEfC3abhzIiEBrDM67VOuGMm9TpTLa/qKVwmgmFkmTgwLPHoD/9i8jv9Kc/G8TfzhR6OtqPi+yXeQJ4pAK1rKSZrqhNlw6/5xce56UNTZ26DRhjG6+pkdUz0xSuMFEJh+yxdo0z+xKS3OBaoC/bYT/+h54GKh7b/LjgnSqSOT93pFSC40k7s8AAeUCQdykNNZokaKjMOCpwR1LXo1wY6mJbUSG1wzKG0DSbXS6mTgIY3NmiMhaPtJXos0jL6lft41aRBO/CEc3m7OgEg5gnMPoAfDiLW6dNO28MXKaPhHuyMLFfEwYETZaBoikfPJrYHRtph1zS/hyrmlW3IUE2n+bSBtlDvgnbK+77PtKmr1cMBoTiokRno8XjV1fq235mJdNKdYsTwWBLv9LmCQTHeM8O1OxQaUngXmJVBUThXSjd42daHR+IvfvUMx6Q5h995FGaoHfR6DrUtMpczXeCPjeRUuKZeHntGpTmVooyaZ2PRoV1z+k434pl8/puB1Ccd/E6gb8OifNoWY9AAKmx5Y4VtTHRW7pwqxKrc6pWA7tPvQ1mnfxhmR5JcWQLIypfHn0l4lVrPgLexn0rocl3KFRL5Ai15VRC2wMGSmCYAzpchFg4ew+Ncl/xs3Q9N31EH9WkAjjBRAICAHrGOlEUQOEe+YtdzpIMka6TrAtCb8l7we8qO7cLEQNzok59Lopdz7Oiz4GFnVQjJZbrOfPBXxZ9C8mOyyUGQccjkScgSr0wi605rBUJoQqNff6/DooT8nHNbl7BnmDia2aqErLt/qe9UCRgE5slawYuGV5EByQCIi/N95IduYYAOFB6CutFXnWOCCV9pIBFisP9Y0g8AU0l0KGoFz9fNynjznIc6f/9JPS2upMoxu+NZRfKYl5j9oSmvhHTEtlSfwfvNsjPOQakmvn/zZ1Z+yDYkiaIuDxwQqF42pteostCX9tpemId61OXjshngahZHsNLvDm2qVmqFn7ETj0RH+pU2Aij0DwHExOe1pbIj3VhiRTqkbCGXJXPeq65hstEr7CkeQaIh3o4ladAEXiHvGP7CY6jmOC4Ax/OXxOZd5xfuq005mhkIVT75IpkhRXEhscEfSLx8XtYpUltm9UuV634VvcYDhceIxwiYhv/PTvDKawJRX4fVNUyUygC6+VXvoRt/RC+aA3/Q13j1bc8U7QBzpPSmCaRapVV+bv3xv19OX3+nAfuD3OUvVpl1fV5eUygmKGaGmtsglC86XAS7l6QOog6WuqwOhUBq1KN4hsVEnUTn+xJo2MWvjiT5WcdPub/Dl5W/scOtyqhN8EE5LUoLaBDVofLz1fcwHYDjQUv7qjfkn82Eoi31u1YnNT8G6pJBXR5+DEZuyMPF6EHAhIFBqssn/BKqwCAv6FuhU7xv1a8epLQXfqStdL3qywUfeCeXvA20hUbQD4AQAAoYjDTZIRHynXmWgY7qWqEtebscvzqrpZszQxZ9iGWEV5VJ2eQ6c+PSxdz8AKTI6VXQTmMIukEzmxigY6Sd6MvkAd9BN0LYPAkxYUI304zXNbZBrezvvcouD55nw8cv179DNbPoWAPowROMFOuCZKSORULCm8x7fIkFYOg+Oquc+DxWx90lFeXfJZPSswwIGO0uKTCl2n6XTHhW1UDqgtE3NRlA6NsSPxqwNKjHCoxun+cTdgm8eAYamTcY1LoCzea3MtJ1/l1b8is0yOngjla146SCNMc68mDW0ffQTj+WpWj4ArpBQ+hy78C9AFmF2ymZAupYz1Z3BJJEze2mQAQ11LaNGKFbQs44qWB2yAgq3wR0W4J2wuuUEgUSBRIFdpsCCQh3u/9T6xMFEgVEgQSEiQ0SBRIFdp4CCQh3ngUSARIFEgUSECYeSBRIFNh5CiQg3HkWSARIFEgUSECYeCBRIFFg5ymQgHDnWSARIFEgUSABYeKBRIFEgZ2nQALCnWeBRIBEgUSBBISJBxIFEgV2ngIJCHeeBRIBEgUSBRIQJh5IFEgU2HkKJCDceRZIBEgUSBRIQJh4IFEgUWDnKZCAcOdZIBEgUSBRIAFh4oFEgUSBnadAAsKdZ4FEgESBRIEEhIkHEgUSBXaTAjqbiPOJSO0tO1og1Dr9TRRIFEgUWCEF2j6xrYSMK8w7ZZUokCiQKLDhFNBhU8K/djhvlSP3Nry+qXqJAokCiQIrpUB+UqGO4Gu3dYZrZ09AmKyFKyVxyixRIFFgsykwbU2ySXuU8dpucSI9QChATClRIFEgUWBXKBCAcJBN2wLC7kEr2z9uZZ3erjQ/tTNRIFEgUSDLJq1hNu5eCgiHWbd3mGUHJwJCSYXbdjp96sxEgUSBRIHbUGAquyBAOOqcyz8ylmqMjXA/y3qPplnvsYyGUpVTShRIFEgU+FgpMG2NLAlOOn3ZCIfBRhidJb2jLNvTlYDwY+3+1K5EgUQBKICDZNy90HUltTh3lvADHuP9T7Ps0ZfTrHOISzmlRIFEgUSBj5MC4/ZVdtl7mQ07793AlmIHHTSDerz/yTQ7/EIqsmyGDqVJcYUfJxekViUK7CwFplpIN8lG7cus3zvN7YMt2QgBQv0B+PaOWtnh0wCIXWyFKZxmZ9klNTxR4GOkwEROkVHnMhv23mfDvXfZpNsvmhkkwnYr6x0IBE/kQX42zQ4+VVzNXlh6UtyZ3iQKJAokCmwpBSwLtvvZoPcmG3bPBIIXDpthRR0S4YyPmBCao6/1iFzLo34rmwxlWBzpzmQ23NLuT9VOFEgUAARxigy777OLg79mg/1TeYWnBkBAcBYI9QUeY2yF49E065+Ns+mknQ3eaoMaAeJ0koyGiaUSBRIFtosCXj3SGhgEr/ZeZX1deIxbrRwI222tM9YFvBWXPnV6rWzvyTQ7/macHf1ylPWOxlmrm9Tk7er+VNtEgUQBHCMETQ+677Lzgx+zy4O/OWQm05I6q8QRBPUaVGN/G0TEVkf6Msvunk6y8VgeloEeetXOhm872aSPdGizYqJyokCiQKLARlIg2AO1fE5hMkOB4GDvddbff5WN5CTJOhLsJPC1SiCIRNg1NMomWEiFqMgCQ5wnB8/GciePs448yuc/9rLhm242GvZ0b1KTN5IDUqUSBXacArYHOkTmXGrwa0mBP9lBYg8xmytIjquCYAcgjJA2FQBGwyGICRgiGe7J0DgeScScKpNHw6x1pmUpfaRDxdcMdY2V81S5cKWUKJAokCiwRgoAfBnbabGBQnuQjTtXQRLsvVOYzFtdeIgv5RzRf0FUBEHAz1enk3V0/T8bMedct3V2AQAAAABJRU5ErkJggg==;" parent="1" vertex="1">
          <mxGeometry x="945" y="446.1199999999999" width="98.29" height="98.29" as="geometry" />
        </mxCell>
        <mxCell id="9pg-booq9goJNZEmGVTY-23" value="" style="shape=cylinder3;whiteSpace=wrap;html=1;boundedLbl=1;backgroundOutline=1;size=15;fillColor=#FF9933;strokeColor=none;" parent="1" vertex="1">
          <mxGeometry x="1178" y="356.12" width="348" height="243.88" as="geometry" />
        </mxCell>
        <mxCell id="9pg-booq9goJNZEmGVTY-24" value="CDP Metadata" style="text;html=1;align=center;verticalAlign=middle;whiteSpace=wrap;rounded=0;fontStyle=1;fontSize=16;" parent="1" vertex="1">
          <mxGeometry x="1238" y="340.1199999999999" width="208" height="70.88" as="geometry" />
        </mxCell>
        <mxCell id="9pg-booq9goJNZEmGVTY-25" value="&lt;b&gt;&lt;font style=&quot;font-size: 14px;&quot;&gt;Workflow(MySQL)&lt;/font&gt;&lt;/b&gt;" style="rounded=0;whiteSpace=wrap;html=1;dashed=1;verticalAlign=top;fillColor=#ffcc99;strokeColor=none;" parent="1" vertex="1">
          <mxGeometry x="557" y="658.9999999999999" width="305" height="115" as="geometry" />
        </mxCell>
        <mxCell id="9pg-booq9goJNZEmGVTY-26" value="&lt;span style=&quot;color: rgb(23, 43, 77); font-family: ui-monospace, Menlo, &amp;quot;Segoe UI Mono&amp;quot;, &amp;quot;Ubuntu Mono&amp;quot;, monospace; font-size: 14px; white-space: pre; background-color: rgba(9, 30, 66, 0.06);&quot;&gt;AIMAS_CAMPAIGN_WORKFLOW_ELEMENT&lt;/span&gt;" style="shape=cylinder3;whiteSpace=wrap;html=1;boundedLbl=1;backgroundOutline=1;size=15;fontSize=10;align=left;fontStyle=1" parent="1" vertex="1">
          <mxGeometry x="582" y="688.9999999999999" width="265" height="65" as="geometry" />
        </mxCell>
        <mxCell id="9pg-booq9goJNZEmGVTY-27" value="" style="shape=cylinder3;whiteSpace=wrap;html=1;boundedLbl=1;backgroundOutline=1;size=15;fillColor=#FF9933;strokeColor=none;" parent="1" vertex="1">
          <mxGeometry x="1175" y="615.12" width="354" height="94.88" as="geometry" />
        </mxCell>
        <mxCell id="9pg-booq9goJNZEmGVTY-28" value="Engagement" style="text;html=1;align=center;verticalAlign=middle;whiteSpace=wrap;rounded=0;fontStyle=1;fontSize=16;" parent="1" vertex="1">
          <mxGeometry x="1248.5" y="599.1199999999999" width="208" height="70.88" as="geometry" />
        </mxCell>
        <mxCell id="9pg-booq9goJNZEmGVTY-29" value="" style="shape=cylinder3;whiteSpace=wrap;html=1;boundedLbl=1;backgroundOutline=1;size=15;fillColor=#FF9933;strokeColor=none;" parent="1" vertex="1">
          <mxGeometry x="1167.5" y="755.44" width="376" height="104.56" as="geometry" />
        </mxCell>
        <mxCell id="9pg-booq9goJNZEmGVTY-30" value="Event Center" style="text;html=1;align=center;verticalAlign=middle;whiteSpace=wrap;rounded=0;fontStyle=1;fontSize=16;" parent="1" vertex="1">
          <mxGeometry x="1249" y="739.9999999999999" width="208" height="70.88" as="geometry" />
        </mxCell>
        <mxCell id="9pg-booq9goJNZEmGVTY-31" value="&lt;div style=&quot;font-size: 10px;&quot;&gt;&lt;span style=&quot;color: rgb(0, 0, 0); font-size: 14px; font-weight: 700;&quot;&gt;&amp;lt;Table&amp;gt;&lt;/span&gt;&lt;/div&gt;&lt;div style=&quot;font-size: 10px;&quot;&gt;&lt;span style=&quot;color: rgb(0, 0, 0); font-size: 14px; font-weight: 700;&quot;&gt;AIMAS_ENGAGEMENT&lt;/span&gt;&lt;/div&gt;" style="text;html=1;align=center;verticalAlign=middle;whiteSpace=wrap;rounded=0;fillColor=#f5f5f5;fontColor=#333333;strokeColor=#666666;dashed=1;" parent="1" vertex="1">
          <mxGeometry x="1190.5" y="659" width="330" height="38.12" as="geometry" />
        </mxCell>
        <mxCell id="9pg-booq9goJNZEmGVTY-32" value="&lt;div style=&quot;&quot;&gt;&lt;span style=&quot;color: rgb(0, 0, 0);&quot;&gt;&lt;b style=&quot;&quot;&gt;&lt;font style=&quot;font-size: 13px;&quot;&gt;&amp;lt;Table&amp;gt;&lt;/font&gt;&lt;/b&gt;&lt;/span&gt;&lt;/div&gt;&lt;div style=&quot;&quot;&gt;&lt;span style=&quot;color: rgb(0, 0, 0);&quot;&gt;&lt;b style=&quot;&quot;&gt;&lt;font style=&quot;font-size: 13px;&quot;&gt;RAW_TRACKING_EVENT&lt;/font&gt;&lt;/b&gt;&lt;/span&gt;&lt;/div&gt;" style="text;html=1;align=center;verticalAlign=middle;whiteSpace=wrap;rounded=0;fillColor=#f5f5f5;fontColor=#333333;strokeColor=#666666;dashed=1;" parent="1" vertex="1">
          <mxGeometry x="1190.5" y="804.4400000000004" width="332" height="40" as="geometry" />
        </mxCell>
        <mxCell id="9pg-booq9goJNZEmGVTY-40" style="edgeStyle=orthogonalEdgeStyle;rounded=0;orthogonalLoop=1;jettySize=auto;html=1;entryX=0;entryY=0.25;entryDx=0;entryDy=0;strokeWidth=2;strokeColor=#333333;" parent="1" source="3emYtROKRZzzf2U3mYJL-23" target="9pg-booq9goJNZEmGVTY-65" edge="1">
          <mxGeometry relative="1" as="geometry">
            <mxPoint x="1040" y="777" as="sourcePoint" />
          </mxGeometry>
        </mxCell>
        <mxCell id="9pg-booq9goJNZEmGVTY-41" style="edgeStyle=orthogonalEdgeStyle;rounded=0;orthogonalLoop=1;jettySize=auto;html=1;entryX=1;entryY=0.5;entryDx=0;entryDy=0;curved=1;strokeWidth=2;strokeColor=#333333;" parent="1" source="9pg-booq9goJNZEmGVTY-42" target="9pg-booq9goJNZEmGVTY-47" edge="1">
          <mxGeometry relative="1" as="geometry" />
        </mxCell>
        <mxCell id="9pg-booq9goJNZEmGVTY-42" value="&lt;font style=&quot;color: rgb(0, 0, 0);&quot;&gt;&lt;b&gt;1. add table customer_user&lt;/b&gt;&lt;/font&gt;&lt;div&gt;&lt;font style=&quot;color: rgb(0, 0, 0);&quot;&gt;&lt;b&gt;2. add table customer_campaign_cia&lt;/b&gt;&lt;/font&gt;&lt;/div&gt;" style="shape=note;whiteSpace=wrap;html=1;backgroundOutline=1;darkOpacity=0.05;align=left;verticalAlign=top;fontSize=15;" parent="1" vertex="1">
          <mxGeometry x="1623" y="290" width="547" height="90" as="geometry" />
        </mxCell>
        <mxCell id="9pg-booq9goJNZEmGVTY-43" value="" style="group" parent="1" vertex="1" connectable="0">
          <mxGeometry x="1202" y="387.1199999999999" width="291" height="181" as="geometry" />
        </mxCell>
        <mxCell id="9pg-booq9goJNZEmGVTY-44" value="&lt;div style=&quot;font-size: 10px;&quot;&gt;&lt;span style=&quot;color: rgb(23, 43, 77); font-family: -apple-system, &amp;quot;system-ui&amp;quot;, &amp;quot;Segoe UI&amp;quot;, Roboto, Oxygen, Ubuntu, &amp;quot;Fira Sans&amp;quot;, &amp;quot;Droid Sans&amp;quot;, &amp;quot;Helvetica Neue&amp;quot;, sans-serif; font-size: 14px; font-weight: 700; letter-spacing: -0.07px; text-align: left; white-space-collapse: preserve; background-color: rgb(255, 255, 255);&quot;&gt;CUSTOMER_CAMPAIGN&lt;/span&gt;&lt;/div&gt;" style="text;html=1;align=center;verticalAlign=middle;whiteSpace=wrap;rounded=0;fillColor=#f5f5f5;fontColor=#333333;strokeColor=#666666;dashed=1;" parent="9pg-booq9goJNZEmGVTY-43" vertex="1">
          <mxGeometry width="290" height="23" as="geometry" />
        </mxCell>
        <mxCell id="9pg-booq9goJNZEmGVTY-45" value="&lt;div style=&quot;font-size: 10px;&quot;&gt;&lt;span style=&quot;color: rgb(23, 43, 77); font-family: -apple-system, &amp;quot;system-ui&amp;quot;, &amp;quot;Segoe UI&amp;quot;, Roboto, Oxygen, Ubuntu, &amp;quot;Fira Sans&amp;quot;, &amp;quot;Droid Sans&amp;quot;, &amp;quot;Helvetica Neue&amp;quot;, sans-serif; font-size: 14px; font-weight: 700; letter-spacing: -0.07px; text-align: left; white-space-collapse: preserve; background-color: rgb(255, 255, 255);&quot;&gt;CUSTOMER_CAMPAIGN_TREATMENT&lt;/span&gt;&lt;/div&gt;" style="text;html=1;align=center;verticalAlign=middle;whiteSpace=wrap;rounded=0;fillColor=#f5f5f5;fontColor=#333333;strokeColor=#666666;dashed=1;" parent="9pg-booq9goJNZEmGVTY-43" vertex="1">
          <mxGeometry y="23" width="290" height="23" as="geometry" />
        </mxCell>
        <mxCell id="9pg-booq9goJNZEmGVTY-46" value="&lt;div style=&quot;font-size: 10px;&quot;&gt;&lt;span style=&quot;font-family: -apple-system, &amp;quot;system-ui&amp;quot;, &amp;quot;Segoe UI&amp;quot;, Roboto, Oxygen, Ubuntu, &amp;quot;Fira Sans&amp;quot;, &amp;quot;Droid Sans&amp;quot;, &amp;quot;Helvetica Neue&amp;quot;, sans-serif; font-size: 14px; font-weight: 700; letter-spacing: -0.07px; text-align: left; white-space-collapse: preserve; background-color: rgb(255, 255, 255);&quot;&gt;&lt;font style=&quot;color: rgb(0, 0, 0);&quot;&gt;CUSTOMER_CAMPAIGN_OFFER&lt;/font&gt;&lt;/span&gt;&lt;/div&gt;" style="text;html=1;align=center;verticalAlign=middle;whiteSpace=wrap;rounded=0;fillColor=#f5f5f5;fontColor=#333333;strokeColor=#666666;dashed=1;" parent="9pg-booq9goJNZEmGVTY-43" vertex="1">
          <mxGeometry x="1" y="66.36000000000013" width="290" height="23" as="geometry" />
        </mxCell>
        <mxCell id="9pg-booq9goJNZEmGVTY-47" value="&lt;div style=&quot;font-size: 10px;&quot;&gt;&lt;div style=&quot;font-weight: 700; color: rgb(0, 0, 0); text-align: left;&quot;&gt;&lt;span style=&quot;color: rgb(23, 43, 77); font-family: -apple-system, &amp;quot;system-ui&amp;quot;, &amp;quot;Segoe UI&amp;quot;, Roboto, Oxygen, Ubuntu, &amp;quot;Fira Sans&amp;quot;, &amp;quot;Droid Sans&amp;quot;, &amp;quot;Helvetica Neue&amp;quot;, sans-serif; font-size: 14px; letter-spacing: -0.07px; white-space-collapse: preserve; background-color: rgb(255, 255, 255);&quot;&gt;&lt;span style=&quot;letter-spacing: -0.07px;&quot;&gt;CUSTOMER_MARKETING_OFFER&lt;/span&gt;&lt;/span&gt;&lt;/div&gt;&lt;/div&gt;" style="text;html=1;align=center;verticalAlign=middle;whiteSpace=wrap;rounded=0;fillColor=#f5f5f5;fontColor=#333333;strokeColor=#666666;dashed=1;" parent="9pg-booq9goJNZEmGVTY-43" vertex="1">
          <mxGeometry x="1" y="89.36000000000013" width="290" height="23" as="geometry" />
        </mxCell>
        <mxCell id="9pg-booq9goJNZEmGVTY-48" value="&lt;div style=&quot;font-size: 10px;&quot;&gt;&lt;div style=&quot;font-weight: 700; color: rgb(0, 0, 0); text-align: left;&quot;&gt;&lt;span style=&quot;color: rgb(23, 43, 77); font-family: -apple-system, &amp;quot;system-ui&amp;quot;, &amp;quot;Segoe UI&amp;quot;, Roboto, Oxygen, Ubuntu, &amp;quot;Fira Sans&amp;quot;, &amp;quot;Droid Sans&amp;quot;, &amp;quot;Helvetica Neue&amp;quot;, sans-serif; font-size: 14px; letter-spacing: -0.07px; white-space-collapse: preserve; background-color: rgb(255, 255, 255);&quot;&gt;CUSTOMER_MKOFFR_PROMO&lt;/span&gt;&lt;/div&gt;&lt;/div&gt;" style="text;html=1;align=center;verticalAlign=middle;whiteSpace=wrap;rounded=0;fillColor=#f5f5f5;fontColor=#333333;strokeColor=#666666;dashed=1;" parent="9pg-booq9goJNZEmGVTY-43" vertex="1">
          <mxGeometry x="1" y="111.36000000000013" width="290" height="23" as="geometry" />
        </mxCell>
        <mxCell id="9pg-booq9goJNZEmGVTY-49" value="&lt;div style=&quot;font-size: 10px;&quot;&gt;&lt;div style=&quot;font-weight: 700; color: rgb(0, 0, 0); text-align: left;&quot;&gt;&lt;span style=&quot;color: rgb(23, 43, 77); font-family: -apple-system, &amp;quot;system-ui&amp;quot;, &amp;quot;Segoe UI&amp;quot;, Roboto, Oxygen, Ubuntu, &amp;quot;Fira Sans&amp;quot;, &amp;quot;Droid Sans&amp;quot;, &amp;quot;Helvetica Neue&amp;quot;, sans-serif; font-size: 14px; letter-spacing: -0.07px; white-space-collapse: preserve; background-color: rgb(255, 255, 255);&quot;&gt;CUSTOMER_BU&lt;/span&gt;&lt;/div&gt;&lt;/div&gt;" style="text;html=1;align=center;verticalAlign=middle;whiteSpace=wrap;rounded=0;fillColor=#f5f5f5;fontColor=#333333;strokeColor=#666666;dashed=1;" parent="9pg-booq9goJNZEmGVTY-43" vertex="1">
          <mxGeometry x="1" y="135" width="290" height="23" as="geometry" />
        </mxCell>
        <mxCell id="9pg-booq9goJNZEmGVTY-50" value="&lt;div style=&quot;font-size: 10px;&quot;&gt;&lt;span style=&quot;color: rgb(23, 43, 77); font-family: -apple-system, &amp;quot;system-ui&amp;quot;, &amp;quot;Segoe UI&amp;quot;, Roboto, Oxygen, Ubuntu, &amp;quot;Fira Sans&amp;quot;, &amp;quot;Droid Sans&amp;quot;, &amp;quot;Helvetica Neue&amp;quot;, sans-serif; font-size: 14px; letter-spacing: -0.07px; text-align: left; white-space-collapse: preserve; background-color: rgb(255, 255, 255);&quot;&gt;&lt;b&gt;CUSTOMER_CAMPAIGN_CONTACT&lt;/b&gt;&lt;/span&gt;&lt;/div&gt;" style="text;html=1;align=center;verticalAlign=middle;whiteSpace=wrap;rounded=0;fillColor=#f5f5f5;fontColor=#333333;strokeColor=#666666;dashed=1;" parent="9pg-booq9goJNZEmGVTY-43" vertex="1">
          <mxGeometry x="1" y="46" width="290" height="23" as="geometry" />
        </mxCell>
        <mxCell id="9pg-booq9goJNZEmGVTY-51" value="&lt;div style=&quot;font-size: 10px;&quot;&gt;&lt;span style=&quot;color: rgb(255, 0, 0); font-family: -apple-system, &amp;quot;system-ui&amp;quot;, &amp;quot;Segoe UI&amp;quot;, Roboto, Oxygen, Ubuntu, &amp;quot;Fira Sans&amp;quot;, &amp;quot;Droid Sans&amp;quot;, &amp;quot;Helvetica Neue&amp;quot;, sans-serif; font-size: 14px; font-weight: 700; letter-spacing: -0.07px; text-align: left; white-space-collapse: preserve; background-color: rgb(255, 255, 255);&quot;&gt;CUSTOMER_USER&lt;/span&gt;&lt;/div&gt;" style="text;html=1;align=center;verticalAlign=middle;whiteSpace=wrap;rounded=0;fillColor=#f5f5f5;fontColor=#333333;strokeColor=#666666;dashed=1;" parent="9pg-booq9goJNZEmGVTY-43" vertex="1">
          <mxGeometry x="1" y="158" width="290" height="23" as="geometry" />
        </mxCell>
        <mxCell id="9pg-booq9goJNZEmGVTY-52" value="&lt;div&gt;&amp;nbsp;Tracking event&lt;/div&gt;" style="text;html=1;align=left;verticalAlign=middle;whiteSpace=wrap;rounded=0;fontSize=15;fontStyle=1" parent="1" vertex="1">
          <mxGeometry x="990" y="848.1199999999999" width="161" height="30" as="geometry" />
        </mxCell>
        <mxCell id="9pg-booq9goJNZEmGVTY-53" value="CRMBO Data In" style="rounded=1;whiteSpace=wrap;html=1;arcSize=12;fillColor=#cce5ff;strokeColor=none;fontStyle=1;fontSize=15;" parent="1" vertex="1">
          <mxGeometry x="1755" y="596.1199999999999" width="125" height="234" as="geometry" />
        </mxCell>
        <mxCell id="9pg-booq9goJNZEmGVTY-54" style="edgeStyle=orthogonalEdgeStyle;rounded=0;orthogonalLoop=1;jettySize=auto;html=1;entryX=0.051;entryY=0.554;entryDx=0;entryDy=0;entryPerimeter=0;strokeWidth=2;strokeColor=#333333;" parent="1" target="9pg-booq9goJNZEmGVTY-4" edge="1">
          <mxGeometry relative="1" as="geometry">
            <mxPoint x="1663.62" y="721.79" as="targetPoint" />
            <mxPoint x="1611.62" y="721.79" as="sourcePoint" />
          </mxGeometry>
        </mxCell>
        <mxCell id="9pg-booq9goJNZEmGVTY-55" style="edgeStyle=orthogonalEdgeStyle;rounded=0;orthogonalLoop=1;jettySize=auto;html=1;strokeWidth=2;strokeColor=#333333;" parent="1" edge="1">
          <mxGeometry relative="1" as="geometry">
            <mxPoint x="1969.62" y="721.79" as="targetPoint" />
            <mxPoint x="1917.62" y="721.79" as="sourcePoint" />
          </mxGeometry>
        </mxCell>
        <mxCell id="9pg-booq9goJNZEmGVTY-65" value="&lt;div style=&quot;font-size: 10px;&quot;&gt;&lt;span style=&quot;font-family: -apple-system, &amp;quot;system-ui&amp;quot;, &amp;quot;Segoe UI&amp;quot;, Roboto, Oxygen, Ubuntu, &amp;quot;Fira Sans&amp;quot;, &amp;quot;Droid Sans&amp;quot;, &amp;quot;Helvetica Neue&amp;quot;, sans-serif; font-size: 14px; font-weight: 700; letter-spacing: -0.07px; text-align: left; white-space-collapse: preserve; background-color: rgb(255, 255, 255);&quot;&gt;CUSTOMER_CAMPAIGN_CIA&lt;/span&gt;&lt;/div&gt;" style="text;html=1;align=center;verticalAlign=middle;whiteSpace=wrap;rounded=0;fillColor=#f5f5f5;fontColor=#FF0000;strokeColor=none;dashed=1;" parent="1" vertex="1">
          <mxGeometry x="1203" y="568.12" width="290" height="23" as="geometry" />
        </mxCell>
        <mxCell id="9pg-booq9goJNZEmGVTY-80" value="&lt;b&gt;&lt;font style=&quot;font-size: 14px;&quot;&gt;Engagement(MySQL)&lt;/font&gt;&lt;/b&gt;" style="rounded=0;whiteSpace=wrap;html=1;dashed=1;verticalAlign=top;fillColor=#ffcc99;strokeColor=none;" parent="1" vertex="1">
          <mxGeometry x="540" y="934.06" width="370" height="165.94" as="geometry" />
        </mxCell>
        <mxCell id="9pg-booq9goJNZEmGVTY-86" style="edgeStyle=orthogonalEdgeStyle;rounded=0;orthogonalLoop=1;jettySize=auto;html=1;entryX=0;entryY=0.5;entryDx=0;entryDy=0;curved=1;strokeWidth=2;strokeColor=#333333;" parent="1" source="9pg-booq9goJNZEmGVTY-17" target="9pg-booq9goJNZEmGVTY-32" edge="1">
          <mxGeometry relative="1" as="geometry">
            <Array as="points">
              <mxPoint x="824" y="890" />
              <mxPoint x="824" y="880" />
              <mxPoint x="1190" y="880" />
            </Array>
          </mxGeometry>
        </mxCell>
        <mxCell id="9pg-booq9goJNZEmGVTY-81" value="&lt;div style=&quot;font-size: 14px; font-weight: 700; text-align: center;&quot;&gt;&lt;span style=&quot;text-align: left;&quot;&gt;AIMAS_ENGAGEMENT_APP_PUSH_RECORD&lt;/span&gt;&lt;/div&gt;&lt;div style=&quot;font-size: 14px; font-weight: 700; text-align: center;&quot;&gt;&lt;span style=&quot;text-align: left;&quot;&gt;AIMAS_ENGAGEMENT_EMAIL_RECORD&lt;/span&gt;&lt;span style=&quot;text-align: left;&quot;&gt;&lt;/span&gt;&lt;/div&gt;&lt;div style=&quot;font-size: 14px; font-weight: 700; text-align: center;&quot;&gt;&lt;span style=&quot;text-align: left;&quot;&gt;AIMAS_ENGAGEMENT_IN_APP_PUSH_RECORD&lt;/span&gt;&lt;br style=&quot;text-align: left;&quot; data-prosemirror-content-type=&quot;node&quot; data-prosemirror-node-name=&quot;hardBreak&quot; data-prosemirror-node-inline=&quot;true&quot;&gt;&lt;span style=&quot;text-align: left;&quot;&gt;AIMAS_ENGAGEMENT_SMS_RECORD&lt;/span&gt;&lt;/div&gt;" style="shape=cylinder3;whiteSpace=wrap;html=1;boundedLbl=1;backgroundOutline=1;size=15;fontSize=10;align=left;" parent="1" vertex="1">
          <mxGeometry x="559.5" y="973.1199999999999" width="332" height="105.94" as="geometry" />
        </mxCell>
        <mxCell id="3emYtROKRZzzf2U3mYJL-16" style="edgeStyle=orthogonalEdgeStyle;rounded=0;orthogonalLoop=1;jettySize=auto;html=1;entryX=0;entryY=0.5;entryDx=0;entryDy=0;strokeWidth=2;" parent="1" source="3emYtROKRZzzf2U3mYJL-3" target="3emYtROKRZzzf2U3mYJL-13" edge="1">
          <mxGeometry relative="1" as="geometry" />
        </mxCell>
        <mxCell id="3emYtROKRZzzf2U3mYJL-3" value="" style="shape=cylinder3;whiteSpace=wrap;html=1;boundedLbl=1;backgroundOutline=1;size=15;rotation=90;" parent="1" vertex="1">
          <mxGeometry x="599.5" y="1090" width="60" height="115" as="geometry" />
        </mxCell>
        <mxCell id="3emYtROKRZzzf2U3mYJL-4" value="Kafka" style="text;html=1;align=center;verticalAlign=middle;whiteSpace=wrap;rounded=0;fontStyle=1;fontSize=14;" parent="1" vertex="1">
          <mxGeometry x="593" y="1132.5" width="60" height="30" as="geometry" />
        </mxCell>
        <mxCell id="3emYtROKRZzzf2U3mYJL-9" style="edgeStyle=orthogonalEdgeStyle;rounded=0;orthogonalLoop=1;jettySize=auto;html=1;entryX=0.5;entryY=1;entryDx=0;entryDy=0;entryPerimeter=0;strokeWidth=2;strokeColor=#333333;" parent="1" edge="1">
          <mxGeometry relative="1" as="geometry">
            <mxPoint x="458" y="1017" as="sourcePoint" />
            <mxPoint x="572" y="1144.5" as="targetPoint" />
            <Array as="points">
              <mxPoint x="515" y="1017" />
              <mxPoint x="515" y="1144" />
            </Array>
          </mxGeometry>
        </mxCell>
        <mxCell id="3emYtROKRZzzf2U3mYJL-17" style="edgeStyle=orthogonalEdgeStyle;rounded=0;orthogonalLoop=1;jettySize=auto;html=1;entryX=0;entryY=0.5;entryDx=0;entryDy=0;strokeWidth=2;strokeColor=#333333;" parent="1" source="3emYtROKRZzzf2U3mYJL-13" target="9pg-booq9goJNZEmGVTY-31" edge="1">
          <mxGeometry relative="1" as="geometry">
            <Array as="points">
              <mxPoint x="1140" y="1148" />
              <mxPoint x="1140" y="678" />
            </Array>
          </mxGeometry>
        </mxCell>
        <mxCell id="3emYtROKRZzzf2U3mYJL-13" value="&lt;span style=&quot;font-size: 14px; font-weight: 700;&quot;&gt;Engagement Write SR Job&lt;/span&gt;" style="rounded=0;whiteSpace=wrap;html=1;rotation=0;container=0;fillColor=#cce5ff;strokeColor=none;" parent="1" vertex="1">
          <mxGeometry x="805" y="1101.26" width="103.21" height="92.49" as="geometry" />
        </mxCell>
        <mxCell id="3emYtROKRZzzf2U3mYJL-20" style="edgeStyle=orthogonalEdgeStyle;rounded=0;orthogonalLoop=1;jettySize=auto;html=1;entryX=0;entryY=0.5;entryDx=0;entryDy=0;strokeWidth=2;" parent="1" source="3emYtROKRZzzf2U3mYJL-21" target="3emYtROKRZzzf2U3mYJL-23" edge="1">
          <mxGeometry relative="1" as="geometry" />
        </mxCell>
        <mxCell id="3emYtROKRZzzf2U3mYJL-21" value="" style="shape=cylinder3;whiteSpace=wrap;html=1;boundedLbl=1;backgroundOutline=1;size=15;rotation=90;" parent="1" vertex="1">
          <mxGeometry x="582.79" y="763.12" width="60" height="115" as="geometry" />
        </mxCell>
        <mxCell id="3emYtROKRZzzf2U3mYJL-22" value="Kafka" style="text;html=1;align=center;verticalAlign=middle;whiteSpace=wrap;rounded=0;fontStyle=1;fontSize=14;" parent="1" vertex="1">
          <mxGeometry x="576.29" y="805.62" width="60" height="30" as="geometry" />
        </mxCell>
        <mxCell id="3emYtROKRZzzf2U3mYJL-23" value="&lt;span style=&quot;font-size: 14px; font-weight: 700;&quot;&gt;Workflow Write SR Job&lt;/span&gt;" style="rounded=0;whiteSpace=wrap;html=1;rotation=0;container=0;fillColor=#cce5ff;strokeColor=none;" parent="1" vertex="1">
          <mxGeometry x="759" y="774" width="103.21" height="92.49" as="geometry" />
        </mxCell>
        <mxCell id="3emYtROKRZzzf2U3mYJL-24" style="edgeStyle=orthogonalEdgeStyle;rounded=0;orthogonalLoop=1;jettySize=auto;html=1;entryX=0;entryY=0.5;entryDx=0;entryDy=0;entryPerimeter=0;strokeWidth=2;strokeColor=#333333;" parent="1" edge="1">
          <mxGeometry relative="1" as="geometry">
            <mxPoint x="458" y="720" as="sourcePoint" />
            <mxPoint x="582" y="719.5" as="targetPoint" />
            <Array as="points">
              <mxPoint x="490" y="720" />
              <mxPoint x="490" y="720" />
            </Array>
          </mxGeometry>
        </mxCell>
        <mxCell id="3emYtROKRZzzf2U3mYJL-25" style="edgeStyle=orthogonalEdgeStyle;rounded=0;orthogonalLoop=1;jettySize=auto;html=1;entryX=0.273;entryY=0.959;entryDx=0;entryDy=0;entryPerimeter=0;strokeWidth=2;strokeColor=#333333;" parent="1" source="9pg-booq9goJNZEmGVTY-17" target="3emYtROKRZzzf2U3mYJL-21" edge="1">
          <mxGeometry relative="1" as="geometry">
            <Array as="points">
              <mxPoint x="507" y="720" />
              <mxPoint x="507" y="807" />
            </Array>
          </mxGeometry>
        </mxCell>
        <mxCell id="3emYtROKRZzzf2U3mYJL-26" value="AS-IS" style="text;html=1;align=center;verticalAlign=middle;whiteSpace=wrap;rounded=0;fontStyle=1;fontSize=14;fontColor=#CC0000;" parent="1" vertex="1">
          <mxGeometry x="503" y="973.12" width="60" height="30" as="geometry" />
        </mxCell>
        <mxCell id="3emYtROKRZzzf2U3mYJL-28" style="edgeStyle=orthogonalEdgeStyle;rounded=0;orthogonalLoop=1;jettySize=auto;html=1;curved=1;strokeWidth=2;strokeColor=#333333;" parent="1" source="3emYtROKRZzzf2U3mYJL-27" target="9pg-booq9goJNZEmGVTY-80" edge="1">
          <mxGeometry relative="1" as="geometry" />
        </mxCell>
        <mxCell id="3emYtROKRZzzf2U3mYJL-27" value="planing to migrate to SR" style="shape=note;whiteSpace=wrap;html=1;backgroundOutline=1;darkOpacity=0.05;align=left;verticalAlign=top;fontStyle=1;fontSize=14;" parent="1" vertex="1">
          <mxGeometry x="945" y="958.12" width="163.71" height="60" as="geometry" />
        </mxCell>
        <mxCell id="gyFH5Tu4j7qP2ZTiGYmG-2" style="edgeStyle=orthogonalEdgeStyle;rounded=0;orthogonalLoop=1;jettySize=auto;html=1;curved=1;entryX=1;entryY=0.5;entryDx=0;entryDy=0;" parent="1" source="gyFH5Tu4j7qP2ZTiGYmG-1" target="9pg-booq9goJNZEmGVTY-31" edge="1">
          <mxGeometry relative="1" as="geometry">
            <mxPoint x="1356" y="659" as="targetPoint" />
          </mxGeometry>
        </mxCell>
        <mxCell id="gyFH5Tu4j7qP2ZTiGYmG-1" value="&lt;font style=&quot;color: rgb(0, 0, 0);&quot;&gt;&lt;b&gt;1. add&amp;nbsp; control flag field&lt;/b&gt;&lt;/font&gt;" style="shape=note;whiteSpace=wrap;html=1;backgroundOutline=1;darkOpacity=0.05;align=left;verticalAlign=top;fontSize=15;" parent="1" vertex="1">
          <mxGeometry x="1560" y="569" width="181" height="71" as="geometry" />
        </mxCell>
        <mxCell id="gyFH5Tu4j7qP2ZTiGYmG-4" value="" style="endArrow=classic;startArrow=classic;html=1;rounded=0;fontColor=#FF0000;strokeColor=#FF0000;" parent="1" edge="1">
          <mxGeometry width="50" height="50" relative="1" as="geometry">
            <mxPoint x="874" y="720.73" as="sourcePoint" />
            <mxPoint x="924" y="720.73" as="targetPoint" />
          </mxGeometry>
        </mxCell>
        <mxCell id="gyFH5Tu4j7qP2ZTiGYmG-5" value="" style="endArrow=classic;startArrow=classic;html=1;rounded=0;fontColor=#FF0000;strokeColor=#FF0000;" parent="1" edge="1">
          <mxGeometry width="50" height="50" relative="1" as="geometry">
            <mxPoint x="1060" y="720" as="sourcePoint" />
            <mxPoint x="1110" y="720" as="targetPoint" />
          </mxGeometry>
        </mxCell>
        <mxCell id="7mvWpR-rzC4vm4ULXptJ-1" value="&lt;b&gt;&lt;font&gt;CDC1.0&lt;/font&gt;&lt;/b&gt;" style="rounded=0;whiteSpace=wrap;html=1;dashed=1;verticalAlign=middle;fillColor=#FFE6CC;strokeColor=none;fontSize=15;" vertex="1" parent="1">
          <mxGeometry x="278" y="1330" width="168" height="120" as="geometry" />
        </mxCell>
        <mxCell id="7mvWpR-rzC4vm4ULXptJ-2" value="&lt;b&gt;Adobe&lt;/b&gt;" style="rounded=0;whiteSpace=wrap;html=1;dashed=1;verticalAlign=middle;fillColor=#FFE6CC;strokeColor=none;fontSize=15;" vertex="1" parent="1">
          <mxGeometry x="278" y="1492.13" width="168" height="120" as="geometry" />
        </mxCell>
        <mxCell id="7mvWpR-rzC4vm4ULXptJ-3" value="&lt;b&gt;Workflow&lt;/b&gt;" style="rounded=0;whiteSpace=wrap;html=1;dashed=1;verticalAlign=middle;fillColor=#dae8fc;strokeColor=none;fontSize=15;" vertex="1" parent="1">
          <mxGeometry x="278" y="1640" width="168" height="84" as="geometry" />
        </mxCell>
        <mxCell id="7mvWpR-rzC4vm4ULXptJ-6" value="&lt;b&gt;Engaement&lt;/b&gt;" style="rounded=0;whiteSpace=wrap;html=1;dashed=1;verticalAlign=middle;fillColor=#dae8fc;strokeColor=none;fontSize=15;" vertex="1" parent="1">
          <mxGeometry x="278" y="1743" width="168" height="72" as="geometry" />
        </mxCell>
        <mxCell id="7mvWpR-rzC4vm4ULXptJ-7" value="&lt;b&gt;Event Center&lt;/b&gt;" style="rounded=0;whiteSpace=wrap;html=1;dashed=1;verticalAlign=middle;fillColor=#dae8fc;strokeColor=none;fontSize=15;" vertex="1" parent="1">
          <mxGeometry x="278" y="1837" width="168" height="70" as="geometry" />
        </mxCell>
        <mxCell id="7mvWpR-rzC4vm4ULXptJ-68" style="edgeStyle=orthogonalEdgeStyle;rounded=0;orthogonalLoop=1;jettySize=auto;html=1;" edge="1" parent="1" source="7mvWpR-rzC4vm4ULXptJ-8" target="7mvWpR-rzC4vm4ULXptJ-59">
          <mxGeometry relative="1" as="geometry" />
        </mxCell>
        <mxCell id="7mvWpR-rzC4vm4ULXptJ-69" style="edgeStyle=orthogonalEdgeStyle;rounded=0;orthogonalLoop=1;jettySize=auto;html=1;" edge="1" parent="1" source="7mvWpR-rzC4vm4ULXptJ-8" target="7mvWpR-rzC4vm4ULXptJ-60">
          <mxGeometry relative="1" as="geometry" />
        </mxCell>
        <mxCell id="7mvWpR-rzC4vm4ULXptJ-70" style="edgeStyle=orthogonalEdgeStyle;rounded=0;orthogonalLoop=1;jettySize=auto;html=1;" edge="1" parent="1" source="7mvWpR-rzC4vm4ULXptJ-8" target="7mvWpR-rzC4vm4ULXptJ-61">
          <mxGeometry relative="1" as="geometry" />
        </mxCell>
        <mxCell id="7mvWpR-rzC4vm4ULXptJ-83" style="edgeStyle=orthogonalEdgeStyle;rounded=0;orthogonalLoop=1;jettySize=auto;html=1;" edge="1" parent="1" source="7mvWpR-rzC4vm4ULXptJ-8" target="7mvWpR-rzC4vm4ULXptJ-82">
          <mxGeometry relative="1" as="geometry" />
        </mxCell>
        <mxCell id="7mvWpR-rzC4vm4ULXptJ-8" value="&lt;div&gt;&lt;b&gt;&lt;font style=&quot;color: light-dark(rgb(0, 0, 0), rgb(237, 237, 237)); font-size: 18px;&quot;&gt;StarRocks&lt;/font&gt;&lt;/b&gt;&lt;/div&gt;" style="rounded=0;whiteSpace=wrap;html=1;dashed=1;verticalAlign=top;fillColor=#B3B3B3;strokeColor=none;fontSize=21;fontColor=#333333;" vertex="1" parent="1">
          <mxGeometry x="653" y="1330" width="437" height="580" as="geometry" />
        </mxCell>
        <mxCell id="7mvWpR-rzC4vm4ULXptJ-9" value="" style="shape=cylinder3;whiteSpace=wrap;html=1;boundedLbl=1;backgroundOutline=1;size=15;fillColor=#FF9933;strokeColor=none;" vertex="1" parent="1">
          <mxGeometry x="698" y="1399.13" width="348" height="440.87" as="geometry" />
        </mxCell>
        <mxCell id="7mvWpR-rzC4vm4ULXptJ-10" value="Realtime Delivery" style="text;html=1;align=center;verticalAlign=middle;whiteSpace=wrap;rounded=0;fontStyle=1;fontSize=16;" vertex="1" parent="1">
          <mxGeometry x="759" y="1382.1299999999999" width="208" height="70.88" as="geometry" />
        </mxCell>
        <mxCell id="7mvWpR-rzC4vm4ULXptJ-17" value="" style="group;fillColor=#e1d5e7;strokeColor=#9673a6;" vertex="1" connectable="0" parent="1">
          <mxGeometry x="722" y="1444.1299999999999" width="310" height="220" as="geometry" />
        </mxCell>
        <mxCell id="7mvWpR-rzC4vm4ULXptJ-73" value="" style="rounded=0;whiteSpace=wrap;html=1;fillColor=#1ba1e2;strokeColor=none;fontColor=#ffffff;" vertex="1" parent="7mvWpR-rzC4vm4ULXptJ-17">
          <mxGeometry x="-10" y="-10.13" width="320" height="230.13" as="geometry" />
        </mxCell>
        <mxCell id="7mvWpR-rzC4vm4ULXptJ-18" value="&lt;div style=&quot;font-size: 10px;&quot;&gt;&lt;span style=&quot;color: rgb(23, 43, 77); font-family: -apple-system, &amp;quot;system-ui&amp;quot;, &amp;quot;Segoe UI&amp;quot;, Roboto, Oxygen, Ubuntu, &amp;quot;Fira Sans&amp;quot;, &amp;quot;Droid Sans&amp;quot;, &amp;quot;Helvetica Neue&amp;quot;, sans-serif; font-size: 14px; font-weight: 700; letter-spacing: -0.07px; text-align: left; white-space-collapse: preserve; background-color: rgb(255, 255, 255);&quot;&gt;CUSTOMER_CAMPAIGN&lt;/span&gt;&lt;/div&gt;" style="text;html=1;align=center;verticalAlign=middle;whiteSpace=wrap;rounded=0;fillColor=#f5f5f5;fontColor=#333333;strokeColor=#666666;dashed=1;" vertex="1" parent="7mvWpR-rzC4vm4ULXptJ-17">
          <mxGeometry x="3" width="290" height="23" as="geometry" />
        </mxCell>
        <mxCell id="7mvWpR-rzC4vm4ULXptJ-19" value="&lt;div style=&quot;font-size: 10px;&quot;&gt;&lt;span style=&quot;color: rgb(23, 43, 77); font-family: -apple-system, &amp;quot;system-ui&amp;quot;, &amp;quot;Segoe UI&amp;quot;, Roboto, Oxygen, Ubuntu, &amp;quot;Fira Sans&amp;quot;, &amp;quot;Droid Sans&amp;quot;, &amp;quot;Helvetica Neue&amp;quot;, sans-serif; font-size: 14px; font-weight: 700; letter-spacing: -0.07px; text-align: left; white-space-collapse: preserve; background-color: rgb(255, 255, 255);&quot;&gt;CUSTOMER_CAMPAIGN_TREATMENT&lt;/span&gt;&lt;/div&gt;" style="text;html=1;align=center;verticalAlign=middle;whiteSpace=wrap;rounded=0;fillColor=#f5f5f5;fontColor=#333333;strokeColor=#666666;dashed=1;" vertex="1" parent="7mvWpR-rzC4vm4ULXptJ-17">
          <mxGeometry x="3" y="23" width="290" height="23" as="geometry" />
        </mxCell>
        <mxCell id="7mvWpR-rzC4vm4ULXptJ-20" value="&lt;div style=&quot;font-size: 10px;&quot;&gt;&lt;span style=&quot;font-family: -apple-system, &amp;quot;system-ui&amp;quot;, &amp;quot;Segoe UI&amp;quot;, Roboto, Oxygen, Ubuntu, &amp;quot;Fira Sans&amp;quot;, &amp;quot;Droid Sans&amp;quot;, &amp;quot;Helvetica Neue&amp;quot;, sans-serif; font-size: 14px; font-weight: 700; letter-spacing: -0.07px; text-align: left; white-space-collapse: preserve; background-color: rgb(255, 255, 255);&quot;&gt;&lt;font style=&quot;color: rgb(0, 0, 0);&quot;&gt;CUSTOMER_CAMPAIGN_OFFER&lt;/font&gt;&lt;/span&gt;&lt;/div&gt;" style="text;html=1;align=center;verticalAlign=middle;whiteSpace=wrap;rounded=0;fillColor=#f5f5f5;fontColor=#333333;strokeColor=#666666;dashed=1;" vertex="1" parent="7mvWpR-rzC4vm4ULXptJ-17">
          <mxGeometry x="4" y="66.36000000000013" width="290" height="23" as="geometry" />
        </mxCell>
        <mxCell id="7mvWpR-rzC4vm4ULXptJ-21" value="&lt;div style=&quot;font-size: 10px;&quot;&gt;&lt;div style=&quot;font-weight: 700; color: rgb(0, 0, 0); text-align: left;&quot;&gt;&lt;span style=&quot;color: rgb(23, 43, 77); font-family: -apple-system, &amp;quot;system-ui&amp;quot;, &amp;quot;Segoe UI&amp;quot;, Roboto, Oxygen, Ubuntu, &amp;quot;Fira Sans&amp;quot;, &amp;quot;Droid Sans&amp;quot;, &amp;quot;Helvetica Neue&amp;quot;, sans-serif; font-size: 14px; letter-spacing: -0.07px; white-space-collapse: preserve; background-color: rgb(255, 255, 255);&quot;&gt;&lt;span style=&quot;letter-spacing: -0.07px;&quot;&gt;CUSTOMER_MARKETING_OFFER&lt;/span&gt;&lt;/span&gt;&lt;/div&gt;&lt;/div&gt;" style="text;html=1;align=center;verticalAlign=middle;whiteSpace=wrap;rounded=0;fillColor=#f5f5f5;fontColor=#333333;strokeColor=#666666;dashed=1;" vertex="1" parent="7mvWpR-rzC4vm4ULXptJ-17">
          <mxGeometry x="4" y="89.36000000000013" width="290" height="23" as="geometry" />
        </mxCell>
        <mxCell id="7mvWpR-rzC4vm4ULXptJ-22" value="&lt;div style=&quot;font-size: 10px;&quot;&gt;&lt;div style=&quot;font-weight: 700; color: rgb(0, 0, 0); text-align: left;&quot;&gt;&lt;span style=&quot;color: rgb(23, 43, 77); font-family: -apple-system, &amp;quot;system-ui&amp;quot;, &amp;quot;Segoe UI&amp;quot;, Roboto, Oxygen, Ubuntu, &amp;quot;Fira Sans&amp;quot;, &amp;quot;Droid Sans&amp;quot;, &amp;quot;Helvetica Neue&amp;quot;, sans-serif; font-size: 14px; letter-spacing: -0.07px; white-space-collapse: preserve; background-color: rgb(255, 255, 255);&quot;&gt;CUSTOMER_MKOFFR_PROMO&lt;/span&gt;&lt;/div&gt;&lt;/div&gt;" style="text;html=1;align=center;verticalAlign=middle;whiteSpace=wrap;rounded=0;fillColor=#f5f5f5;fontColor=#333333;strokeColor=#666666;dashed=1;" vertex="1" parent="7mvWpR-rzC4vm4ULXptJ-17">
          <mxGeometry x="4" y="111.36000000000013" width="290" height="23" as="geometry" />
        </mxCell>
        <mxCell id="7mvWpR-rzC4vm4ULXptJ-23" value="&lt;div style=&quot;font-size: 10px;&quot;&gt;&lt;div style=&quot;font-weight: 700; color: rgb(0, 0, 0); text-align: left;&quot;&gt;&lt;span style=&quot;color: rgb(23, 43, 77); font-family: -apple-system, &amp;quot;system-ui&amp;quot;, &amp;quot;Segoe UI&amp;quot;, Roboto, Oxygen, Ubuntu, &amp;quot;Fira Sans&amp;quot;, &amp;quot;Droid Sans&amp;quot;, &amp;quot;Helvetica Neue&amp;quot;, sans-serif; font-size: 14px; letter-spacing: -0.07px; white-space-collapse: preserve; background-color: rgb(255, 255, 255);&quot;&gt;CUSTOMER_BU&lt;/span&gt;&lt;/div&gt;&lt;/div&gt;" style="text;html=1;align=center;verticalAlign=middle;whiteSpace=wrap;rounded=0;fillColor=#f5f5f5;fontColor=#333333;strokeColor=#666666;dashed=1;" vertex="1" parent="7mvWpR-rzC4vm4ULXptJ-17">
          <mxGeometry x="4" y="135" width="290" height="23" as="geometry" />
        </mxCell>
        <mxCell id="7mvWpR-rzC4vm4ULXptJ-24" value="&lt;div style=&quot;font-size: 10px;&quot;&gt;&lt;span style=&quot;color: rgb(23, 43, 77); font-family: -apple-system, &amp;quot;system-ui&amp;quot;, &amp;quot;Segoe UI&amp;quot;, Roboto, Oxygen, Ubuntu, &amp;quot;Fira Sans&amp;quot;, &amp;quot;Droid Sans&amp;quot;, &amp;quot;Helvetica Neue&amp;quot;, sans-serif; font-size: 14px; letter-spacing: -0.07px; text-align: left; white-space-collapse: preserve; background-color: rgb(255, 255, 255);&quot;&gt;&lt;b&gt;CUSTOMER_CAMPAIGN_CONTACT&lt;/b&gt;&lt;/span&gt;&lt;/div&gt;" style="text;html=1;align=center;verticalAlign=middle;whiteSpace=wrap;rounded=0;fillColor=#f5f5f5;fontColor=#333333;strokeColor=#666666;dashed=1;" vertex="1" parent="7mvWpR-rzC4vm4ULXptJ-17">
          <mxGeometry x="4" y="46" width="290" height="23" as="geometry" />
        </mxCell>
        <mxCell id="7mvWpR-rzC4vm4ULXptJ-25" value="&lt;div style=&quot;font-size: 10px;&quot;&gt;&lt;span style=&quot;color: rgb(255, 0, 0); font-family: -apple-system, &amp;quot;system-ui&amp;quot;, &amp;quot;Segoe UI&amp;quot;, Roboto, Oxygen, Ubuntu, &amp;quot;Fira Sans&amp;quot;, &amp;quot;Droid Sans&amp;quot;, &amp;quot;Helvetica Neue&amp;quot;, sans-serif; font-size: 14px; font-weight: 700; letter-spacing: -0.07px; text-align: left; white-space-collapse: preserve; background-color: rgb(255, 255, 255);&quot;&gt;CUSTOMER_USER&lt;/span&gt;&lt;/div&gt;" style="text;html=1;align=center;verticalAlign=middle;whiteSpace=wrap;rounded=0;fillColor=#f5f5f5;fontColor=#333333;strokeColor=#666666;dashed=1;" vertex="1" parent="7mvWpR-rzC4vm4ULXptJ-17">
          <mxGeometry x="4" y="158" width="290" height="23" as="geometry" />
        </mxCell>
        <mxCell id="7mvWpR-rzC4vm4ULXptJ-31" value="CDC1.0" style="shape=cylinder3;whiteSpace=wrap;html=1;boundedLbl=1;backgroundOutline=1;size=15;fontSize=14;fontStyle=1;fillColor=#d0cee2;strokeColor=none;" vertex="1" parent="1">
          <mxGeometry x="478" y="1399.13" width="92" height="69.13" as="geometry" />
        </mxCell>
        <mxCell id="7mvWpR-rzC4vm4ULXptJ-33" value="campaign_workflow&lt;div&gt;campaign_workflow_element&lt;/div&gt;" style="shape=cylinder3;whiteSpace=wrap;html=1;boundedLbl=1;backgroundOutline=1;size=15;fontSize=12;fontStyle=1;fillColor=#d0cee2;strokeColor=none;" vertex="1" parent="1">
          <mxGeometry x="478" y="1670" width="92" height="62.01" as="geometry" />
        </mxCell>
        <mxCell id="7mvWpR-rzC4vm4ULXptJ-34" value="engagement_global_rule&lt;div&gt;engagement_access_control_list&lt;/div&gt;&lt;div&gt;engagement_customer_rule_config&lt;/div&gt;" style="shape=cylinder3;whiteSpace=wrap;html=1;boundedLbl=1;backgroundOutline=1;size=15;fontSize=12;fontStyle=1;fillColor=#d0cee2;strokeColor=none;" vertex="1" parent="1">
          <mxGeometry x="478" y="1770" width="92" height="58" as="geometry" />
        </mxCell>
        <mxCell id="7mvWpR-rzC4vm4ULXptJ-35" value="event_generic_rule&lt;div&gt;event_rule_template&lt;/div&gt;" style="shape=cylinder3;whiteSpace=wrap;html=1;boundedLbl=1;backgroundOutline=1;size=15;fontSize=12;fontStyle=1;fillColor=#d0cee2;strokeColor=none;" vertex="1" parent="1">
          <mxGeometry x="478" y="1860" width="92" height="61" as="geometry" />
        </mxCell>
        <mxCell id="7mvWpR-rzC4vm4ULXptJ-37" style="edgeStyle=orthogonalEdgeStyle;rounded=0;orthogonalLoop=1;jettySize=auto;html=1;entryX=0;entryY=0;entryDx=0;entryDy=45;entryPerimeter=0;" edge="1" parent="1" source="7mvWpR-rzC4vm4ULXptJ-3" target="7mvWpR-rzC4vm4ULXptJ-33">
          <mxGeometry relative="1" as="geometry" />
        </mxCell>
        <mxCell id="7mvWpR-rzC4vm4ULXptJ-38" style="edgeStyle=orthogonalEdgeStyle;rounded=0;orthogonalLoop=1;jettySize=auto;html=1;entryX=0;entryY=0;entryDx=0;entryDy=45;entryPerimeter=0;" edge="1" parent="1" source="7mvWpR-rzC4vm4ULXptJ-6" target="7mvWpR-rzC4vm4ULXptJ-34">
          <mxGeometry relative="1" as="geometry" />
        </mxCell>
        <mxCell id="7mvWpR-rzC4vm4ULXptJ-39" style="edgeStyle=orthogonalEdgeStyle;rounded=0;orthogonalLoop=1;jettySize=auto;html=1;entryX=0;entryY=0;entryDx=0;entryDy=45;entryPerimeter=0;" edge="1" parent="1" source="7mvWpR-rzC4vm4ULXptJ-7" target="7mvWpR-rzC4vm4ULXptJ-35">
          <mxGeometry relative="1" as="geometry" />
        </mxCell>
        <mxCell id="7mvWpR-rzC4vm4ULXptJ-51" value="&lt;b&gt;PMO&lt;/b&gt;" style="rounded=0;whiteSpace=wrap;html=1;dashed=1;verticalAlign=middle;fillColor=#dae8fc;strokeColor=none;fontSize=15;" vertex="1" parent="1">
          <mxGeometry x="278" y="1932" width="168" height="70" as="geometry" />
        </mxCell>
        <mxCell id="7mvWpR-rzC4vm4ULXptJ-52" value="PMO" style="shape=cylinder3;whiteSpace=wrap;html=1;boundedLbl=1;backgroundOutline=1;size=15;fontSize=14;fontStyle=1;fillColor=#d0cee2;strokeColor=none;" vertex="1" parent="1">
          <mxGeometry x="478" y="1960" width="92" height="58" as="geometry" />
        </mxCell>
        <mxCell id="7mvWpR-rzC4vm4ULXptJ-53" style="edgeStyle=orthogonalEdgeStyle;rounded=0;orthogonalLoop=1;jettySize=auto;html=1;entryX=0;entryY=0;entryDx=0;entryDy=45;entryPerimeter=0;" edge="1" parent="1" source="7mvWpR-rzC4vm4ULXptJ-51" target="7mvWpR-rzC4vm4ULXptJ-52">
          <mxGeometry relative="1" as="geometry" />
        </mxCell>
        <mxCell id="7mvWpR-rzC4vm4ULXptJ-58" style="edgeStyle=orthogonalEdgeStyle;rounded=0;orthogonalLoop=1;jettySize=auto;html=1;entryX=0;entryY=0.5;entryDx=0;entryDy=0;entryPerimeter=0;" edge="1" parent="1" source="7mvWpR-rzC4vm4ULXptJ-1" target="7mvWpR-rzC4vm4ULXptJ-31">
          <mxGeometry relative="1" as="geometry" />
        </mxCell>
        <mxCell id="7mvWpR-rzC4vm4ULXptJ-59" value="&lt;b&gt;&lt;font&gt;CRMBO&lt;/font&gt;&lt;/b&gt;" style="rounded=0;whiteSpace=wrap;html=1;dashed=1;verticalAlign=middle;fillColor=#cdeb8b;strokeColor=none;fontSize=15;" vertex="1" parent="1">
          <mxGeometry x="1220" y="1330" width="168" height="72" as="geometry" />
        </mxCell>
        <mxCell id="7mvWpR-rzC4vm4ULXptJ-60" value="&lt;b&gt;&lt;font&gt;AIMAS Dashboard&lt;/font&gt;&lt;/b&gt;" style="rounded=0;whiteSpace=wrap;html=1;dashed=1;verticalAlign=middle;fillColor=#fad9d5;strokeColor=none;fontSize=15;" vertex="1" parent="1">
          <mxGeometry x="1220" y="1527" width="168" height="108.13" as="geometry" />
        </mxCell>
        <mxCell id="7mvWpR-rzC4vm4ULXptJ-61" value="&lt;b&gt;&lt;font&gt;Superset BI&lt;/font&gt;&lt;/b&gt;" style="rounded=0;whiteSpace=wrap;html=1;dashed=1;verticalAlign=middle;fillColor=#fad9d5;strokeColor=none;fontSize=15;" vertex="1" parent="1">
          <mxGeometry x="1220" y="1690" width="168" height="120" as="geometry" />
        </mxCell>
        <mxCell id="7mvWpR-rzC4vm4ULXptJ-44" value="&lt;div style=&quot;&quot;&gt;&lt;b style=&quot;background-color: transparent;&quot;&gt;&lt;font style=&quot;font-size: 13px;&quot;&gt;AIMAS_CAMPAIGN_WORKFLOW_CUSTOMER&lt;/font&gt;&lt;/b&gt;&lt;/div&gt;" style="text;html=1;align=center;verticalAlign=middle;whiteSpace=wrap;rounded=0;fillColor=#f5f5f5;fontColor=#FF0000;strokeColor=#666666;dashed=1;" vertex="1" parent="1">
          <mxGeometry x="702" y="1673" width="332" height="34.52" as="geometry" />
        </mxCell>
        <mxCell id="7mvWpR-rzC4vm4ULXptJ-15" value="&lt;div style=&quot;font-size: 10px;&quot;&gt;&lt;span style=&quot;font-size: 14px; font-weight: 700; background-color: transparent;&quot;&gt;AIMAS_ENGAGEMENT&lt;/span&gt;&lt;/div&gt;" style="text;html=1;align=center;verticalAlign=middle;whiteSpace=wrap;rounded=0;fillColor=#f5f5f5;fontColor=#FF3333;strokeColor=#666666;dashed=1;" vertex="1" parent="1">
          <mxGeometry x="698" y="1735.9996935933145" width="330" height="29.120919220055626" as="geometry" />
        </mxCell>
        <mxCell id="7mvWpR-rzC4vm4ULXptJ-16" value="&lt;div style=&quot;&quot;&gt;&lt;b style=&quot;background-color: transparent; color: light-dark(rgb(0, 0, 0), rgb(237, 237, 237));&quot;&gt;&lt;font style=&quot;font-size: 13px;&quot;&gt;TRACKING_EVENT&lt;/font&gt;&lt;/b&gt;&lt;/div&gt;" style="text;html=1;align=center;verticalAlign=middle;whiteSpace=wrap;rounded=0;fillColor=#f5f5f5;fontColor=#333333;strokeColor=#666666;dashed=1;" vertex="1" parent="1">
          <mxGeometry x="699" y="1799.7065600000003" width="332" height="24.293333333333287" as="geometry" />
        </mxCell>
        <mxCell id="7mvWpR-rzC4vm4ULXptJ-26" value="&lt;div style=&quot;font-size: 10px;&quot;&gt;&lt;span style=&quot;font-family: -apple-system, &amp;quot;system-ui&amp;quot;, &amp;quot;Segoe UI&amp;quot;, Roboto, Oxygen, Ubuntu, &amp;quot;Fira Sans&amp;quot;, &amp;quot;Droid Sans&amp;quot;, &amp;quot;Helvetica Neue&amp;quot;, sans-serif; font-size: 14px; font-weight: 700; letter-spacing: -0.07px; text-align: left; white-space-collapse: preserve; background-color: rgb(255, 255, 255);&quot;&gt;CUSTOMER_CAMPAIGN_CIA&lt;/span&gt;&lt;/div&gt;" style="text;html=1;align=center;verticalAlign=middle;whiteSpace=wrap;rounded=0;fillColor=#f5f5f5;fontColor=#FF0000;strokeColor=default;dashed=1;" vertex="1" parent="1">
          <mxGeometry x="726" y="1626.13" width="290" height="23" as="geometry" />
        </mxCell>
        <mxCell id="7mvWpR-rzC4vm4ULXptJ-76" style="edgeStyle=orthogonalEdgeStyle;rounded=0;orthogonalLoop=1;jettySize=auto;html=1;entryX=0.012;entryY=0.404;entryDx=0;entryDy=0;entryPerimeter=0;" edge="1" parent="1" source="7mvWpR-rzC4vm4ULXptJ-1" target="7mvWpR-rzC4vm4ULXptJ-73">
          <mxGeometry relative="1" as="geometry" />
        </mxCell>
        <mxCell id="7mvWpR-rzC4vm4ULXptJ-77" style="edgeStyle=orthogonalEdgeStyle;rounded=0;orthogonalLoop=1;jettySize=auto;html=1;entryX=0.008;entryY=0.404;entryDx=0;entryDy=0;entryPerimeter=0;" edge="1" parent="1" source="7mvWpR-rzC4vm4ULXptJ-2" target="7mvWpR-rzC4vm4ULXptJ-73">
          <mxGeometry relative="1" as="geometry">
            <Array as="points">
              <mxPoint x="580" y="1570" />
              <mxPoint x="580" y="1527" />
            </Array>
          </mxGeometry>
        </mxCell>
        <mxCell id="7mvWpR-rzC4vm4ULXptJ-78" value="" style="shape=cylinder3;whiteSpace=wrap;html=1;boundedLbl=1;backgroundOutline=1;size=15;rotation=90;" vertex="1" parent="1">
          <mxGeometry x="624.76" y="1644.76" width="8.52" height="92.01" as="geometry" />
        </mxCell>
        <mxCell id="7mvWpR-rzC4vm4ULXptJ-71" style="edgeStyle=orthogonalEdgeStyle;rounded=0;orthogonalLoop=1;jettySize=auto;html=1;entryX=0;entryY=0.5;entryDx=0;entryDy=0;" edge="1" parent="1" source="7mvWpR-rzC4vm4ULXptJ-3" target="7mvWpR-rzC4vm4ULXptJ-44">
          <mxGeometry relative="1" as="geometry">
            <Array as="points">
              <mxPoint x="569" y="1650" />
              <mxPoint x="569" y="1690" />
              <mxPoint x="702" y="1690" />
            </Array>
          </mxGeometry>
        </mxCell>
        <mxCell id="7mvWpR-rzC4vm4ULXptJ-79" value="" style="shape=cylinder3;whiteSpace=wrap;html=1;boundedLbl=1;backgroundOutline=1;size=15;rotation=90;" vertex="1" parent="1">
          <mxGeometry x="616.5" y="1704.5" width="13" height="92.01" as="geometry" />
        </mxCell>
        <mxCell id="7mvWpR-rzC4vm4ULXptJ-66" style="edgeStyle=orthogonalEdgeStyle;rounded=0;orthogonalLoop=1;jettySize=auto;html=1;entryX=0;entryY=0.5;entryDx=0;entryDy=0;" edge="1" parent="1" source="7mvWpR-rzC4vm4ULXptJ-6" target="7mvWpR-rzC4vm4ULXptJ-15">
          <mxGeometry relative="1" as="geometry">
            <Array as="points">
              <mxPoint x="568" y="1760" />
              <mxPoint x="568" y="1750" />
              <mxPoint x="698" y="1750" />
            </Array>
          </mxGeometry>
        </mxCell>
        <mxCell id="7mvWpR-rzC4vm4ULXptJ-81" value="" style="shape=cylinder3;whiteSpace=wrap;html=1;boundedLbl=1;backgroundOutline=1;size=15;rotation=90;" vertex="1" parent="1">
          <mxGeometry x="623.39" y="1766.24" width="14.24" height="92.01" as="geometry" />
        </mxCell>
        <mxCell id="7mvWpR-rzC4vm4ULXptJ-67" style="edgeStyle=orthogonalEdgeStyle;rounded=0;orthogonalLoop=1;jettySize=auto;html=1;entryX=0;entryY=0.5;entryDx=0;entryDy=0;" edge="1" parent="1" source="7mvWpR-rzC4vm4ULXptJ-7" target="7mvWpR-rzC4vm4ULXptJ-16">
          <mxGeometry relative="1" as="geometry">
            <Array as="points">
              <mxPoint x="580" y="1850" />
              <mxPoint x="580" y="1812" />
            </Array>
          </mxGeometry>
        </mxCell>
        <mxCell id="7mvWpR-rzC4vm4ULXptJ-82" value="&lt;b&gt;&lt;font&gt;EDP&lt;/font&gt;&lt;/b&gt;" style="rounded=0;whiteSpace=wrap;html=1;dashed=1;verticalAlign=middle;fillColor=#cdeb8b;strokeColor=none;fontSize=15;" vertex="1" parent="1">
          <mxGeometry x="1220" y="1433" width="168" height="52" as="geometry" />
        </mxCell>
      </root>
    </mxGraphModel>
  </diagram>
</mxfile>
